{"glyphs":{"0":{"ha":686,"x_min":28,"x_max":660,"o":"m 343 -11 q 110 74 192 -11 q 28 318 28 160 l 28 857 q 107 1115 28 1026 q 343 1204 186 1204 q 581 1115 501 1204 q 660 857 660 1026 l 660 318 q 578 74 660 158 q 343 -11 496 -11 m 343 208 q 386 233 369 208 q 403 290 403 257 l 403 879 q 391 958 403 931 q 343 985 379 985 q 296 958 307 985 q 285 879 285 931 l 285 290 q 301 233 285 257 q 343 208 317 208 z "},"1":{"ha":460,"x_min":17,"x_max":417,"o":"m 164 919 q 98 872 140 890 q 17 854 56 854 l 17 1044 q 138 1093 78 1054 q 225 1194 199 1132 l 417 1194 l 417 0 l 164 0 l 164 919 z "},"2":{"ha":686,"x_min":39,"x_max":669,"o":"m 42 57 q 67 208 42 139 q 131 333 93 278 q 229 464 168 389 q 328 596 292 542 q 391 720 365 650 q 417 872 417 790 q 403 948 417 921 q 353 975 389 975 q 293 868 293 975 l 293 722 l 42 722 l 39 796 q 67 1019 39 932 q 164 1153 94 1107 q 356 1199 233 1199 q 588 1115 506 1199 q 669 876 669 1031 q 642 698 669 778 q 576 558 615 618 q 471 418 536 499 q 392 317 424 361 q 336 225 361 272 l 661 225 l 661 0 l 42 0 l 42 57 z "},"3":{"ha":686,"x_min":26,"x_max":651,"o":"m 328 -14 q 99 69 171 -14 q 26 321 26 151 l 26 446 l 271 446 l 271 321 q 285 237 271 267 q 340 207 299 207 q 383 228 369 207 q 399 277 396 249 q 401 360 401 306 l 401 389 q 300 543 401 543 q 276 542 282 543 l 276 756 q 372 784 340 756 q 404 875 404 813 q 346 976 404 976 q 299 958 310 976 q 285 913 289 940 q 281 872 282 885 l 281 836 l 33 836 l 32 878 q 110 1119 33 1042 q 344 1196 186 1196 q 649 878 649 1196 q 624 730 649 785 q 538 653 599 675 q 612 591 588 628 q 644 501 636 554 q 651 360 651 449 q 574 81 651 175 q 328 -14 497 -14 z "},"4":{"ha":686,"x_min":13,"x_max":674,"o":"m 367 0 l 367 189 l 13 189 l 13 375 l 238 1194 l 610 1194 l 610 388 l 674 388 l 674 189 l 610 189 l 610 0 l 367 0 m 225 388 l 367 388 l 367 989 l 225 388 z "},"5":{"ha":686,"x_min":31,"x_max":663,"o":"m 343 -17 q 115 53 200 -17 q 31 261 31 124 l 31 438 l 279 438 l 279 336 q 292 240 279 275 q 343 206 304 206 q 392 229 379 206 q 406 299 406 253 l 406 533 q 394 624 406 590 q 344 658 382 658 q 276 560 276 658 l 58 560 l 58 1194 l 626 1194 l 626 971 l 285 971 l 285 803 q 333 842 303 826 q 403 857 364 857 q 608 751 553 857 q 663 453 663 646 q 640 194 663 293 q 547 39 617 94 q 343 -17 478 -17 z "},"6":{"ha":686,"x_min":36,"x_max":669,"o":"m 358 -11 q 165 31 236 -11 q 65 156 94 72 q 36 372 36 239 l 36 694 q 59 985 36 879 q 153 1148 82 1092 q 365 1204 224 1204 q 508 1178 443 1204 q 613 1099 574 1151 q 651 971 651 1046 l 651 842 l 421 842 l 421 867 q 410 961 421 928 q 361 994 400 994 q 306 974 322 994 q 290 910 290 953 l 290 669 q 342 722 307 703 q 424 740 376 740 q 574 701 521 740 q 649 586 628 663 q 669 386 669 510 q 597 92 669 196 q 358 -11 525 -11 m 350 208 q 398 238 388 208 q 408 336 408 268 l 408 432 q 353 529 408 529 q 290 444 290 529 l 290 297 q 350 208 290 208 z "},"7":{"ha":686,"x_min":47,"x_max":650,"o":"m 99 0 q 160 358 111 192 q 297 744 210 525 q 338 849 325 814 l 385 974 l 47 974 l 47 1194 l 650 1194 l 650 1017 q 622 892 643 951 q 561 749 600 833 q 514 642 531 685 q 417 331 454 488 q 368 0 379 175 l 99 0 z "},"8":{"ha":686,"x_min":31,"x_max":656,"o":"m 343 -12 q 105 81 179 -12 q 31 356 31 174 l 31 435 q 53 585 31 529 q 133 668 76 640 q 56 742 79 690 q 32 874 32 793 l 32 906 q 110 1135 32 1061 q 343 1208 189 1208 q 577 1133 500 1208 q 654 896 654 1058 q 632 748 654 804 q 553 667 610 692 q 636 572 617 636 q 656 386 656 507 q 654 356 656 363 q 581 81 654 174 q 343 -12 507 -12 m 343 769 q 406 883 406 769 q 391 958 406 928 q 343 989 376 989 q 295 958 310 989 q 281 883 281 928 q 343 769 281 769 m 343 224 q 408 342 408 224 l 407 401 q 396 511 407 469 q 343 553 385 553 q 293 516 308 553 q 278 425 278 479 q 279 390 278 401 l 279 379 l 278 342 q 343 224 278 224 z "},"9":{"ha":700,"x_min":35,"x_max":668,"o":"m 339 -11 q 197 16 261 -11 q 93 96 132 43 q 54 224 54 149 l 54 351 l 283 351 l 283 328 q 294 233 283 268 q 343 199 306 199 q 398 220 382 199 q 414 285 414 242 l 414 524 q 363 472 397 492 q 281 453 328 453 q 130 492 183 453 q 56 607 76 531 q 35 808 35 683 q 107 1101 35 999 q 346 1204 179 1204 q 539 1163 468 1204 q 639 1038 610 1121 q 668 821 668 954 l 668 499 q 646 208 668 314 q 553 45 624 101 q 339 -11 482 -11 m 351 664 q 414 749 414 664 l 414 897 q 354 985 414 985 q 306 955 317 985 q 296 858 296 925 l 296 761 q 351 664 296 664 z "},"\u0000":{"ha":0,"x_min":0,"x_max":0,"o":""},"\r":{"ha":325,"x_min":0,"x_max":0,"o":""}," ":{"ha":325,"x_min":0,"x_max":0,"o":""},"A":{"ha":674,"x_min":21,"x_max":654,"o":"m 21 0 l 136 1193 l 540 1193 l 654 0 l 428 0 l 411 193 l 267 193 l 253 0 l 21 0 m 285 383 l 393 383 l 340 990 l 329 990 l 285 383 z "},"Á":{"ha":674,"x_min":21,"x_max":654,"o":"m 21 0 l 136 1193 l 540 1193 l 654 0 l 428 0 l 411 193 l 267 193 l 253 0 l 21 0 m 285 383 l 393 383 l 340 990 l 329 990 l 285 383 m 175 1229 l 175 1381 l 497 1529 l 497 1293 l 175 1229 z "},"Ă":{"ha":674,"x_min":21,"x_max":654,"o":"m 21 0 l 136 1193 l 540 1193 l 654 0 l 428 0 l 411 193 l 267 193 l 253 0 l 21 0 m 285 383 l 393 383 l 340 990 l 329 990 l 285 383 m 339 1256 q 143 1308 214 1256 q 72 1467 72 1360 q 75 1496 72 1476 l 249 1494 q 269 1436 249 1456 q 340 1417 289 1417 q 411 1436 390 1417 q 432 1494 432 1456 l 606 1496 l 607 1472 q 536 1309 607 1363 q 339 1256 465 1256 z "},"Ắ":{"ha":674,"x_min":21,"x_max":654,"o":"m 21 0 l 136 1193 l 540 1193 l 654 0 l 428 0 l 411 193 l 267 193 l 253 0 l 21 0 m 285 383 l 393 383 l 340 990 l 329 990 l 285 383 m 224 1465 l 224 1536 l 478 1664 l 478 1508 l 224 1465 m 333 1242 q 217 1265 268 1242 q 139 1325 167 1288 q 111 1403 111 1363 q 113 1432 111 1422 l 242 1431 q 263 1367 242 1388 q 333 1346 283 1346 q 403 1367 383 1346 q 424 1431 424 1388 l 560 1432 q 561 1408 561 1421 q 533 1327 561 1365 q 453 1265 506 1289 q 333 1242 401 1242 z "},"Ặ":{"ha":674,"x_min":21,"x_max":654,"o":"m 21 0 l 136 1193 l 540 1193 l 654 0 l 428 0 l 411 193 l 267 193 l 253 0 l 21 0 m 285 383 l 393 383 l 340 990 l 329 990 l 285 383 m 217 -269 l 217 -67 l 460 -67 l 460 -269 l 217 -269 m 336 1256 q 140 1303 211 1256 q 69 1447 69 1350 q 72 1475 69 1456 l 246 1475 q 266 1411 246 1432 q 336 1390 286 1390 q 408 1411 388 1390 q 428 1475 428 1432 l 601 1475 q 603 1451 603 1464 q 533 1303 603 1351 q 336 1256 463 1256 z "},"Ằ":{"ha":674,"x_min":21,"x_max":654,"o":"m 21 0 l 136 1193 l 540 1193 l 654 0 l 428 0 l 411 193 l 267 193 l 253 0 l 21 0 m 285 383 l 393 383 l 340 990 l 329 990 l 285 383 m 478 1465 l 224 1508 l 224 1664 l 478 1536 l 478 1465 m 333 1242 q 217 1265 268 1242 q 139 1325 167 1288 q 111 1403 111 1363 q 113 1432 111 1422 l 242 1431 q 263 1367 242 1388 q 333 1346 283 1346 q 403 1367 383 1346 q 424 1431 424 1388 l 560 1432 q 561 1408 561 1421 q 533 1327 561 1365 q 453 1265 506 1289 q 333 1242 401 1242 z "},"Ẳ":{"ha":674,"x_min":21,"x_max":654,"o":"m 21 0 l 136 1193 l 540 1193 l 654 0 l 428 0 l 411 193 l 267 193 l 253 0 l 21 0 m 285 383 l 393 383 l 340 990 l 329 990 l 285 383 m 296 1496 q 346 1551 346 1514 q 304 1592 346 1592 q 265 1585 286 1592 l 265 1660 q 343 1675 303 1675 q 425 1648 396 1675 q 454 1574 454 1621 q 340 1444 454 1478 l 296 1496 m 333 1242 q 217 1265 268 1242 q 139 1325 167 1288 q 111 1403 111 1363 q 113 1432 111 1422 l 242 1431 q 263 1367 242 1388 q 333 1346 283 1346 q 403 1367 383 1346 q 424 1431 424 1388 l 560 1432 q 561 1408 561 1421 q 533 1327 561 1365 q 453 1265 506 1289 q 333 1242 401 1242 z "},"Ẵ":{"ha":674,"x_min":21,"x_max":654,"o":"m 21 0 l 136 1193 l 540 1193 l 654 0 l 428 0 l 411 193 l 267 193 l 253 0 l 21 0 m 285 383 l 393 383 l 340 990 l 329 990 l 285 383 m 429 1475 q 390 1481 408 1475 q 343 1499 372 1486 q 301 1515 318 1510 q 268 1521 285 1521 q 211 1486 232 1521 l 135 1525 q 183 1606 158 1579 q 253 1632 207 1632 q 291 1626 274 1632 q 340 1608 308 1621 q 382 1592 367 1597 q 415 1586 397 1586 q 446 1594 433 1586 q 472 1624 458 1603 l 557 1597 q 508 1506 533 1536 q 429 1475 482 1475 m 333 1242 q 217 1265 268 1242 q 139 1325 167 1288 q 111 1403 111 1363 q 113 1432 111 1422 l 242 1431 q 263 1367 242 1388 q 333 1346 283 1346 q 403 1367 383 1346 q 424 1431 424 1388 l 560 1432 q 561 1408 561 1421 q 533 1327 561 1365 q 453 1265 506 1289 q 333 1242 401 1242 z "},"Â":{"ha":674,"x_min":21,"x_max":654,"o":"m 21 0 l 136 1193 l 540 1193 l 654 0 l 428 0 l 411 193 l 267 193 l 253 0 l 21 0 m 285 383 l 393 383 l 340 990 l 329 990 l 285 383 m 35 1256 l 197 1529 l 474 1529 l 638 1256 l 394 1256 l 336 1449 l 278 1256 l 35 1256 z "},"Ấ":{"ha":674,"x_min":21,"x_max":818,"o":"m 21 0 l 136 1193 l 540 1193 l 654 0 l 428 0 l 411 193 l 267 193 l 253 0 l 21 0 m 285 383 l 393 383 l 340 990 l 329 990 l 285 383 m 532 1357 l 610 1494 l 818 1494 l 690 1357 l 532 1357 m 75 1246 l 236 1419 l 436 1419 l 597 1246 l 403 1247 l 336 1339 l 269 1247 l 75 1246 z "},"Ậ":{"ha":674,"x_min":21,"x_max":654,"o":"m 21 0 l 136 1193 l 540 1193 l 654 0 l 428 0 l 411 193 l 267 193 l 253 0 l 21 0 m 285 383 l 393 383 l 340 990 l 329 990 l 285 383 m 217 -269 l 217 -67 l 460 -67 l 460 -269 l 217 -269 m 35 1263 l 197 1488 l 475 1488 l 638 1263 l 394 1263 l 336 1408 l 278 1263 l 35 1263 z "},"Ầ":{"ha":674,"x_min":21,"x_max":736,"o":"m 21 0 l 136 1193 l 540 1193 l 654 0 l 428 0 l 411 193 l 267 193 l 253 0 l 21 0 m 285 383 l 393 383 l 340 990 l 329 990 l 285 383 m 736 1357 l 578 1357 l 450 1494 l 658 1494 l 736 1357 m 75 1246 l 236 1419 l 436 1419 l 597 1246 l 403 1247 l 336 1339 l 269 1247 l 75 1246 z "},"Ẩ":{"ha":674,"x_min":21,"x_max":701,"o":"m 21 0 l 136 1193 l 540 1193 l 654 0 l 428 0 l 411 193 l 267 193 l 253 0 l 21 0 m 285 383 l 393 383 l 340 990 l 329 990 l 285 383 m 542 1381 q 593 1436 593 1399 q 550 1476 593 1476 q 513 1469 531 1476 l 513 1544 q 590 1560 550 1560 q 672 1533 643 1560 q 701 1458 701 1506 q 588 1329 701 1363 l 542 1381 m 75 1246 l 236 1419 l 436 1419 l 597 1246 l 403 1247 l 336 1339 l 269 1247 l 75 1246 z "},"Ẫ":{"ha":674,"x_min":21,"x_max":654,"o":"m 21 0 l 136 1193 l 540 1193 l 654 0 l 428 0 l 411 193 l 267 193 l 253 0 l 21 0 m 285 383 l 393 383 l 340 990 l 329 990 l 285 383 m 418 1453 q 380 1458 397 1453 q 331 1476 363 1464 q 289 1493 306 1488 q 256 1499 272 1499 q 199 1464 221 1499 l 124 1504 q 170 1584 146 1557 q 240 1611 194 1611 q 283 1605 263 1611 q 328 1586 303 1599 q 369 1569 354 1575 q 403 1564 385 1564 q 434 1573 421 1564 q 460 1603 447 1582 l 544 1575 q 495 1483 521 1514 q 418 1453 469 1453 m 75 1246 l 236 1419 l 436 1419 l 597 1246 l 403 1247 l 336 1339 l 269 1247 l 75 1246 z "},"Ȁ":{"ha":674,"x_min":-7,"x_max":654,"o":"m 21 0 l 136 1193 l 540 1193 l 654 0 l 428 0 l 411 193 l 267 193 l 253 0 l 21 0 m 285 383 l 393 383 l 340 990 l 329 990 l 285 383 m 189 1251 l -7 1543 l 151 1617 l 301 1292 l 189 1251 m 394 1251 l 225 1543 l 382 1617 l 507 1292 l 394 1251 z "},"Ä":{"ha":674,"x_min":21,"x_max":654,"o":"m 21 0 l 136 1193 l 540 1193 l 654 0 l 428 0 l 411 193 l 267 193 l 253 0 l 21 0 m 285 383 l 393 383 l 340 990 l 329 990 l 285 383 m 46 1261 l 46 1463 l 289 1463 l 289 1261 l 46 1261 m 375 1261 l 375 1463 l 617 1463 l 617 1261 l 375 1261 z "},"Ạ":{"ha":674,"x_min":21,"x_max":654,"o":"m 21 0 l 136 1193 l 540 1193 l 654 0 l 428 0 l 411 193 l 267 193 l 253 0 l 21 0 m 285 383 l 393 383 l 340 990 l 329 990 l 285 383 m 217 -269 l 217 -67 l 460 -67 l 460 -269 l 217 -269 z "},"À":{"ha":674,"x_min":21,"x_max":654,"o":"m 21 0 l 136 1193 l 540 1193 l 654 0 l 428 0 l 411 193 l 267 193 l 253 0 l 21 0 m 285 383 l 393 383 l 340 990 l 329 990 l 285 383 m 497 1229 l 175 1293 l 175 1529 l 497 1381 l 497 1229 z "},"Ả":{"ha":674,"x_min":21,"x_max":654,"o":"m 21 0 l 136 1193 l 540 1193 l 654 0 l 428 0 l 411 193 l 267 193 l 253 0 l 21 0 m 285 383 l 393 383 l 340 990 l 329 990 l 285 383 m 244 1331 q 306 1366 285 1346 q 326 1418 326 1386 q 257 1482 326 1482 q 196 1472 224 1482 l 196 1594 q 321 1617 258 1617 q 453 1574 406 1617 q 501 1454 501 1531 q 317 1246 501 1303 l 244 1331 z "},"Ȃ":{"ha":674,"x_min":21,"x_max":654,"o":"m 21 0 l 136 1193 l 540 1193 l 654 0 l 428 0 l 411 193 l 267 193 l 253 0 l 21 0 m 285 383 l 393 383 l 340 990 l 329 990 l 285 383 m 85 1267 q 82 1294 82 1286 q 147 1454 82 1403 q 335 1506 213 1506 q 524 1453 460 1506 q 589 1290 589 1401 q 588 1267 589 1276 l 428 1267 q 403 1335 428 1311 q 336 1358 378 1358 q 269 1335 294 1358 q 244 1267 244 1311 l 85 1267 z "},"Ā":{"ha":674,"x_min":21,"x_max":654,"o":"m 21 0 l 136 1193 l 540 1193 l 654 0 l 428 0 l 411 193 l 267 193 l 253 0 l 21 0 m 285 383 l 393 383 l 340 990 l 329 990 l 285 383 m 113 1275 l 113 1378 l 554 1378 l 554 1275 l 113 1275 z "},"Ą":{"ha":674,"x_min":21,"x_max":660,"o":"m 21 0 l 136 1193 l 540 1193 l 654 0 l 428 0 l 411 193 l 267 193 l 253 0 l 21 0 m 285 383 l 393 383 l 340 990 l 329 990 l 285 383 m 525 -428 q 407 -403 461 -428 q 321 -332 353 -378 q 289 -224 289 -286 q 468 0 289 -100 l 611 0 l 586 -29 q 523 -114 543 -81 q 503 -189 503 -147 q 523 -246 503 -226 q 581 -265 543 -265 q 660 -250 614 -265 l 660 -401 q 525 -428 597 -428 z "},"Å":{"ha":674,"x_min":21,"x_max":654,"o":"m 21 0 l 136 1193 l 540 1193 l 654 0 l 428 0 l 411 193 l 267 193 l 253 0 l 21 0 m 285 383 l 393 383 l 340 990 l 329 990 l 285 383 m 336 1247 q 161 1309 226 1247 q 96 1478 96 1371 q 161 1646 96 1585 q 336 1707 226 1707 q 511 1646 446 1707 q 576 1478 576 1585 q 511 1309 576 1371 q 336 1247 446 1247 m 336 1371 q 407 1401 381 1371 q 433 1478 433 1432 q 407 1553 433 1524 q 336 1583 381 1583 q 267 1553 293 1583 q 240 1478 240 1522 q 267 1401 240 1432 q 336 1371 293 1371 z "},"Ǻ":{"ha":674,"x_min":21,"x_max":654,"o":"m 21 0 l 136 1193 l 540 1193 l 654 0 l 428 0 l 411 193 l 267 193 l 253 0 l 21 0 m 285 383 l 393 383 l 340 990 l 329 990 l 285 383 m 336 1247 q 162 1305 226 1247 q 97 1464 97 1363 q 163 1622 97 1564 q 336 1679 228 1679 q 511 1621 446 1679 q 576 1464 576 1563 q 511 1306 576 1364 q 336 1247 446 1247 m 336 1371 q 407 1397 381 1371 q 433 1464 433 1424 q 407 1531 433 1504 q 336 1557 381 1557 q 267 1531 293 1557 q 240 1464 240 1504 q 267 1397 240 1424 q 336 1371 293 1371 m 175 1704 l 175 1836 l 497 1950 l 497 1756 l 175 1704 z "},"Ã":{"ha":674,"x_min":21,"x_max":654,"o":"m 21 0 l 136 1193 l 540 1193 l 654 0 l 428 0 l 411 193 l 267 193 l 253 0 l 21 0 m 285 383 l 393 383 l 340 990 l 329 990 l 285 383 m 449 1269 q 377 1279 410 1269 q 299 1307 344 1289 q 256 1324 276 1317 q 219 1331 235 1331 q 157 1285 179 1331 l 56 1338 q 122 1451 86 1413 q 224 1489 157 1489 q 289 1481 260 1489 q 365 1454 318 1472 q 440 1432 415 1432 q 504 1482 479 1432 l 617 1446 q 577 1352 596 1388 q 527 1293 558 1317 q 449 1269 496 1269 z "},"Æ":{"ha":889,"x_min":-29,"x_max":863,"o":"m -29 0 l 188 1193 l 847 1193 l 847 983 l 653 983 l 653 711 l 838 711 l 838 508 l 653 508 l 653 211 l 863 211 l 863 0 l 422 0 l 422 325 l 282 325 l 229 0 l -29 0 m 314 521 l 419 521 l 419 990 l 381 990 l 314 521 z "},"Ǽ":{"ha":889,"x_min":-29,"x_max":863,"o":"m -29 0 l 188 1193 l 847 1193 l 847 983 l 653 983 l 653 711 l 838 711 l 838 508 l 653 508 l 653 211 l 863 211 l 863 0 l 422 0 l 422 325 l 282 325 l 229 0 l -29 0 m 314 521 l 419 521 l 419 990 l 381 990 l 314 521 m 378 1229 l 378 1381 l 700 1529 l 700 1293 l 378 1229 z "},"B":{"ha":665,"x_min":53,"x_max":639,"o":"m 53 1193 l 376 1193 q 566 1129 507 1193 q 625 921 625 1065 l 625 868 q 503 664 625 697 q 608 574 578 644 q 639 386 639 503 q 582 98 639 196 q 376 0 525 0 l 53 0 l 53 1193 m 335 744 q 376 767 365 744 q 388 832 388 790 l 388 951 q 336 1010 388 1010 l 286 1010 l 286 744 l 335 744 m 310 210 q 403 299 403 210 l 403 447 q 387 529 403 501 q 331 557 371 557 l 286 557 l 286 211 l 310 210 z "},"C":{"ha":658,"x_min":43,"x_max":632,"o":"m 331 -11 q 122 71 200 -11 q 43 296 43 153 l 43 846 q 114 1114 43 1024 q 336 1204 185 1204 q 549 1132 468 1204 q 629 924 629 1060 l 629 718 l 392 718 l 392 894 q 379 965 392 946 q 336 985 367 985 q 292 963 304 985 q 281 897 281 940 l 281 299 q 294 230 281 251 q 336 208 308 208 q 392 299 392 208 l 392 514 l 632 514 l 632 289 q 331 -11 632 -11 z "},"Ć":{"ha":658,"x_min":43,"x_max":632,"o":"m 331 -11 q 122 71 200 -11 q 43 296 43 153 l 43 846 q 114 1114 43 1024 q 336 1204 185 1204 q 549 1132 468 1204 q 629 924 629 1060 l 629 718 l 392 718 l 392 894 q 379 965 392 946 q 336 985 367 985 q 292 963 304 985 q 281 897 281 940 l 281 299 q 294 230 281 251 q 336 208 308 208 q 392 299 392 208 l 392 514 l 632 514 l 632 289 q 331 -11 632 -11 m 174 1229 l 174 1381 l 496 1529 l 496 1293 l 174 1229 z "},"Č":{"ha":658,"x_min":35,"x_max":638,"o":"m 331 -11 q 122 71 200 -11 q 43 296 43 153 l 43 846 q 114 1114 43 1024 q 336 1204 185 1204 q 549 1132 468 1204 q 629 924 629 1060 l 629 718 l 392 718 l 392 894 q 379 965 392 946 q 336 985 367 985 q 292 963 304 985 q 281 897 281 940 l 281 299 q 294 230 281 251 q 336 208 308 208 q 392 299 392 208 l 392 514 l 632 514 l 632 289 q 331 -11 632 -11 m 197 1256 l 35 1529 l 278 1529 l 336 1335 l 394 1529 l 638 1529 l 474 1256 l 197 1256 z "},"Ç":{"ha":658,"x_min":43,"x_max":632,"o":"m 632 514 l 632 289 q 386 -8 632 18 q 483 -133 449 -65 q 517 -262 517 -200 q 466 -382 517 -336 q 314 -428 415 -428 q 179 -401 244 -428 l 179 -250 q 260 -265 222 -265 q 339 -185 339 -265 q 322 -102 339 -149 q 272 -7 304 -56 q 105 90 167 11 q 43 296 43 169 l 43 846 q 114 1114 43 1024 q 336 1204 185 1204 q 549 1132 468 1204 q 629 924 629 1060 l 629 718 l 392 718 l 392 894 q 379 965 392 946 q 336 985 367 985 q 292 963 304 985 q 281 897 281 940 l 281 299 q 294 230 281 251 q 336 208 308 208 q 392 299 392 208 l 392 514 l 632 514 z "},"Ĉ":{"ha":658,"x_min":35,"x_max":638,"o":"m 331 -11 q 122 71 200 -11 q 43 296 43 153 l 43 846 q 114 1114 43 1024 q 336 1204 185 1204 q 549 1132 468 1204 q 629 924 629 1060 l 629 718 l 392 718 l 392 894 q 379 965 392 946 q 336 985 367 985 q 292 963 304 985 q 281 897 281 940 l 281 299 q 294 230 281 251 q 336 208 308 208 q 392 299 392 208 l 392 514 l 632 514 l 632 289 q 331 -11 632 -11 m 35 1256 l 197 1529 l 474 1529 l 638 1256 l 394 1256 l 336 1449 l 278 1256 l 35 1256 z "},"Ċ":{"ha":658,"x_min":43,"x_max":632,"o":"m 331 -11 q 122 71 200 -11 q 43 296 43 153 l 43 846 q 114 1114 43 1024 q 336 1204 185 1204 q 549 1132 468 1204 q 629 924 629 1060 l 629 718 l 392 718 l 392 894 q 379 965 392 946 q 336 985 367 985 q 292 963 304 985 q 281 897 281 940 l 281 299 q 294 230 281 251 q 336 208 308 208 q 392 299 392 208 l 392 514 l 632 514 l 632 289 q 331 -11 632 -11 m 215 1256 l 215 1458 l 458 1458 l 458 1256 l 215 1256 z "},"D":{"ha":685,"x_min":53,"x_max":643,"o":"m 53 1193 l 382 1193 q 574 1122 510 1193 q 639 913 638 1051 l 642 354 q 581 89 643 178 q 374 0 518 0 l 53 0 l 53 1193 m 335 211 q 400 275 400 211 l 400 890 q 394 951 400 931 q 371 978 388 971 q 319 985 354 985 l 293 985 l 293 211 l 335 211 z "},"Ǆ":{"ha":1254,"x_min":53,"x_max":1283,"o":"m 53 1193 l 382 1193 q 574 1122 510 1193 q 639 913 638 1051 l 642 354 q 581 89 643 178 q 374 0 518 0 l 53 0 l 53 1193 m 335 211 q 400 275 400 211 l 400 890 q 394 951 400 931 q 371 978 388 971 q 319 985 354 985 l 293 985 l 293 211 l 335 211 m 707 0 l 707 217 l 979 974 l 733 974 l 733 1193 l 1232 1193 l 1232 985 l 953 219 l 1219 219 l 1219 0 l 707 0 m 843 1256 l 681 1529 l 924 1529 l 982 1335 l 1040 1529 l 1283 1529 l 1119 1256 l 843 1256 z "},"Ð":{"ha":685,"x_min":1,"x_max":643,"o":"m 642 354 q 581 89 643 178 q 374 0 518 0 l 53 0 l 53 546 l 1 546 l 1 703 l 53 703 l 53 1193 l 382 1193 q 574 1122 510 1193 q 639 913 638 1051 l 642 354 m 400 890 q 394 951 400 931 q 371 978 388 971 q 319 985 354 985 l 293 985 l 293 703 l 351 703 l 351 546 l 293 546 l 293 211 l 335 211 q 400 275 400 211 l 400 890 z "},"Ď":{"ha":685,"x_min":40,"x_max":643,"o":"m 53 1193 l 382 1193 q 574 1122 510 1193 q 639 913 638 1051 l 642 354 q 581 89 643 178 q 374 0 518 0 l 53 0 l 53 1193 m 335 211 q 400 275 400 211 l 400 890 q 394 951 400 931 q 371 978 388 971 q 319 985 354 985 l 293 985 l 293 211 l 335 211 m 203 1256 l 40 1529 l 283 1529 l 342 1335 l 400 1529 l 643 1529 l 479 1256 l 203 1256 z "},"Đ":{"ha":685,"x_min":1,"x_max":642,"o":"m 642 354 q 581 89 643 178 q 374 0 518 0 l 53 0 l 53 546 l 1 546 l 1 703 l 53 703 l 53 1193 l 382 1193 q 574 1122 510 1193 q 639 913 638 1051 l 642 354 m 400 890 q 394 951 400 931 q 371 978 388 971 q 319 985 354 985 l 293 985 l 293 703 l 351 703 l 351 546 l 293 546 l 293 211 l 335 211 q 400 275 400 211 l 400 890 z "},"ǅ":{"ha":1221,"x_min":53,"x_max":1282,"o":"m 53 1193 l 382 1193 q 574 1122 510 1193 q 639 913 638 1051 l 642 354 q 581 89 643 178 q 374 0 518 0 l 53 0 l 53 1193 m 335 211 q 400 275 400 211 l 400 890 q 394 951 400 931 q 371 978 388 971 q 319 985 354 985 l 293 985 l 293 211 l 335 211 m 704 0 l 704 149 l 957 825 l 715 825 l 715 1017 l 1208 1017 l 1208 851 l 969 182 l 1211 182 l 1211 0 l 704 0 m 842 1079 l 679 1353 l 922 1353 l 981 1158 l 1039 1353 l 1282 1353 l 1118 1079 l 842 1079 z "},"E":{"ha":572,"x_min":53,"x_max":546,"o":"m 53 0 l 53 1193 l 531 1193 l 531 963 l 296 963 l 296 731 l 521 731 l 521 506 l 296 506 l 296 232 l 546 232 l 546 0 l 53 0 z "},"É":{"ha":572,"x_min":53,"x_max":546,"o":"m 53 0 l 53 1193 l 531 1193 l 531 963 l 296 963 l 296 731 l 521 731 l 521 506 l 296 506 l 296 232 l 546 232 l 546 0 l 53 0 m 139 1229 l 139 1381 l 461 1529 l 461 1293 l 139 1229 z "},"Ĕ":{"ha":572,"x_min":38,"x_max":572,"o":"m 53 0 l 53 1193 l 531 1193 l 531 963 l 296 963 l 296 731 l 521 731 l 521 506 l 296 506 l 296 232 l 546 232 l 546 0 l 53 0 m 304 1256 q 108 1308 179 1256 q 38 1467 38 1360 q 40 1496 38 1476 l 214 1494 q 234 1436 214 1456 q 306 1417 254 1417 q 376 1436 356 1417 q 397 1494 397 1456 l 571 1496 l 572 1472 q 501 1309 572 1363 q 304 1256 431 1256 z "},"Ě":{"ha":572,"x_min":0,"x_max":603,"o":"m 53 0 l 53 1193 l 531 1193 l 531 963 l 296 963 l 296 731 l 521 731 l 521 506 l 296 506 l 296 232 l 546 232 l 546 0 l 53 0 m 163 1256 l 0 1529 l 243 1529 l 301 1335 l 360 1529 l 603 1529 l 439 1256 l 163 1256 z "},"Ê":{"ha":572,"x_min":0,"x_max":603,"o":"m 53 0 l 53 1193 l 531 1193 l 531 963 l 296 963 l 296 731 l 521 731 l 521 506 l 296 506 l 296 232 l 546 232 l 546 0 l 53 0 m 0 1256 l 163 1529 l 439 1529 l 603 1256 l 360 1256 l 301 1449 l 243 1256 l 0 1256 z "},"Ế":{"ha":572,"x_min":33,"x_max":776,"o":"m 53 0 l 53 1193 l 531 1193 l 531 963 l 296 963 l 296 731 l 521 731 l 521 506 l 296 506 l 296 232 l 546 232 l 546 0 l 53 0 m 490 1357 l 568 1494 l 776 1494 l 649 1357 l 490 1357 m 33 1246 l 194 1419 l 394 1419 l 556 1246 l 361 1247 l 294 1339 l 228 1247 l 33 1246 z "},"Ệ":{"ha":572,"x_min":-7,"x_max":596,"o":"m 53 0 l 53 1193 l 531 1193 l 531 963 l 296 963 l 296 731 l 521 731 l 521 506 l 296 506 l 296 232 l 546 232 l 546 0 l 53 0 m 179 -283 l 179 -81 l 422 -81 l 422 -283 l 179 -283 m -7 1263 l 156 1488 l 433 1488 l 596 1263 l 353 1263 l 294 1408 l 236 1263 l -7 1263 z "},"Ề":{"ha":572,"x_min":33,"x_max":694,"o":"m 53 0 l 53 1193 l 531 1193 l 531 963 l 296 963 l 296 731 l 521 731 l 521 506 l 296 506 l 296 232 l 546 232 l 546 0 l 53 0 m 694 1357 l 536 1357 l 408 1494 l 617 1494 l 694 1357 m 33 1246 l 194 1419 l 394 1419 l 556 1246 l 361 1247 l 294 1339 l 228 1247 l 33 1246 z "},"Ể":{"ha":572,"x_min":33,"x_max":660,"o":"m 53 0 l 53 1193 l 531 1193 l 531 963 l 296 963 l 296 731 l 521 731 l 521 506 l 296 506 l 296 232 l 546 232 l 546 0 l 53 0 m 500 1381 q 551 1436 551 1399 q 508 1476 551 1476 q 471 1469 489 1476 l 471 1544 q 549 1560 508 1560 q 631 1533 601 1560 q 660 1458 660 1506 q 546 1329 660 1363 l 500 1381 m 33 1246 l 194 1419 l 394 1419 l 556 1246 l 361 1247 l 294 1339 l 228 1247 l 33 1246 z "},"Ễ":{"ha":572,"x_min":33,"x_max":556,"o":"m 53 0 l 53 1193 l 531 1193 l 531 963 l 296 963 l 296 731 l 521 731 l 521 506 l 296 506 l 296 232 l 546 232 l 546 0 l 53 0 m 376 1453 q 338 1458 356 1453 q 289 1476 321 1464 q 247 1493 264 1488 q 214 1499 231 1499 q 157 1464 179 1499 l 82 1504 q 128 1584 104 1557 q 199 1611 153 1611 q 241 1605 221 1611 q 286 1586 261 1599 q 328 1569 313 1575 q 361 1564 343 1564 q 392 1573 379 1564 q 418 1603 406 1582 l 503 1575 q 453 1483 479 1514 q 376 1453 428 1453 m 33 1246 l 194 1419 l 394 1419 l 556 1246 l 361 1247 l 294 1339 l 228 1247 l 33 1246 z "},"Ȅ":{"ha":572,"x_min":-42,"x_max":546,"o":"m 53 0 l 53 1193 l 531 1193 l 531 963 l 296 963 l 296 731 l 521 731 l 521 506 l 296 506 l 296 232 l 546 232 l 546 0 l 53 0 m 154 1251 l -42 1543 l 117 1617 l 267 1292 l 154 1251 m 360 1251 l 190 1543 l 347 1617 l 472 1292 l 360 1251 z "},"Ë":{"ha":572,"x_min":11,"x_max":582,"o":"m 53 0 l 53 1193 l 531 1193 l 531 963 l 296 963 l 296 731 l 521 731 l 521 506 l 296 506 l 296 232 l 546 232 l 546 0 l 53 0 m 11 1261 l 11 1463 l 254 1463 l 254 1261 l 11 1261 m 340 1261 l 340 1463 l 582 1463 l 582 1261 l 340 1261 z "},"Ė":{"ha":572,"x_min":53,"x_max":546,"o":"m 53 0 l 53 1193 l 531 1193 l 531 963 l 296 963 l 296 731 l 521 731 l 521 506 l 296 506 l 296 232 l 546 232 l 546 0 l 53 0 m 181 1256 l 181 1458 l 424 1458 l 424 1256 l 181 1256 z "},"Ẹ":{"ha":572,"x_min":53,"x_max":546,"o":"m 53 0 l 53 1193 l 531 1193 l 531 963 l 296 963 l 296 731 l 521 731 l 521 506 l 296 506 l 296 232 l 546 232 l 546 0 l 53 0 m 179 -283 l 179 -81 l 422 -81 l 422 -283 l 179 -283 z "},"È":{"ha":572,"x_min":53,"x_max":546,"o":"m 53 0 l 53 1193 l 531 1193 l 531 963 l 296 963 l 296 731 l 521 731 l 521 506 l 296 506 l 296 232 l 546 232 l 546 0 l 53 0 m 463 1229 l 140 1293 l 140 1529 l 463 1381 l 463 1229 z "},"Ẻ":{"ha":572,"x_min":53,"x_max":546,"o":"m 53 0 l 53 1193 l 531 1193 l 531 963 l 296 963 l 296 731 l 521 731 l 521 506 l 296 506 l 296 232 l 546 232 l 546 0 l 53 0 m 203 1331 q 264 1366 243 1346 q 285 1418 285 1386 q 215 1482 285 1482 q 154 1472 182 1482 l 154 1594 q 279 1617 217 1617 q 412 1574 364 1617 q 460 1454 460 1531 q 275 1246 460 1303 l 203 1331 z "},"Ȇ":{"ha":572,"x_min":47,"x_max":554,"o":"m 53 0 l 53 1193 l 531 1193 l 531 963 l 296 963 l 296 731 l 521 731 l 521 506 l 296 506 l 296 232 l 546 232 l 546 0 l 53 0 m 50 1267 q 47 1294 47 1286 q 113 1454 47 1403 q 300 1506 178 1506 q 490 1453 425 1506 q 554 1290 554 1401 q 553 1267 554 1276 l 393 1267 q 368 1335 393 1311 q 301 1358 343 1358 q 235 1335 260 1358 q 210 1267 210 1311 l 50 1267 z "},"Ē":{"ha":572,"x_min":53,"x_max":546,"o":"m 53 0 l 53 1193 l 531 1193 l 531 963 l 296 963 l 296 731 l 521 731 l 521 506 l 296 506 l 296 232 l 546 232 l 546 0 l 53 0 m 78 1275 l 78 1378 l 519 1378 l 519 1275 l 78 1275 z "},"Ę":{"ha":572,"x_min":53,"x_max":546,"o":"m 53 0 l 53 1193 l 531 1193 l 531 963 l 296 963 l 296 731 l 521 731 l 521 506 l 296 506 l 296 232 l 546 232 l 546 0 l 53 0 m 313 -428 q 194 -403 249 -428 q 108 -332 140 -378 q 76 -224 76 -286 q 256 0 76 -100 l 399 0 l 374 -29 q 310 -114 331 -81 q 290 -189 290 -147 q 310 -246 290 -226 q 368 -265 331 -265 q 447 -250 401 -265 l 447 -401 q 313 -428 385 -428 z "},"Ẽ":{"ha":572,"x_min":21,"x_max":582,"o":"m 53 0 l 53 1193 l 531 1193 l 531 963 l 296 963 l 296 731 l 521 731 l 521 506 l 296 506 l 296 232 l 546 232 l 546 0 l 53 0 m 414 1269 q 342 1279 375 1269 q 264 1307 310 1289 q 221 1324 242 1317 q 185 1331 200 1331 q 122 1285 144 1331 l 21 1338 q 87 1451 51 1413 q 189 1489 122 1489 q 254 1481 225 1489 q 331 1454 283 1472 q 406 1432 381 1432 q 469 1482 444 1432 l 582 1446 q 542 1352 561 1388 q 492 1293 524 1317 q 414 1269 461 1269 z "},"F":{"ha":554,"x_min":53,"x_max":531,"o":"m 53 0 l 53 1193 l 531 1193 l 531 961 l 293 961 l 293 771 l 518 771 l 518 542 l 293 542 l 293 0 l 53 0 z "},"G":{"ha":674,"x_min":43,"x_max":635,"o":"m 299 -11 q 106 80 169 -11 q 43 356 43 171 l 43 869 q 117 1119 43 1035 q 336 1204 190 1204 q 519 1157 454 1204 q 610 1019 585 1110 q 635 788 635 929 l 401 788 l 401 894 q 390 961 401 938 q 347 985 378 985 q 279 896 279 985 l 279 318 q 293 236 279 264 q 342 208 307 208 q 390 236 376 208 q 404 318 404 264 l 404 489 l 340 489 l 340 694 l 632 694 l 632 0 l 536 0 l 496 100 q 299 -11 432 -11 z "},"Ğ":{"ha":674,"x_min":43,"x_max":635,"o":"m 299 -11 q 106 80 169 -11 q 43 356 43 171 l 43 869 q 117 1119 43 1035 q 336 1204 190 1204 q 519 1157 454 1204 q 610 1019 585 1110 q 635 788 635 929 l 401 788 l 401 894 q 390 961 401 938 q 347 985 378 985 q 279 896 279 985 l 279 318 q 293 236 279 264 q 342 208 307 208 q 390 236 376 208 q 404 318 404 264 l 404 489 l 340 489 l 340 694 l 632 694 l 632 0 l 536 0 l 496 100 q 299 -11 432 -11 m 339 1256 q 143 1308 214 1256 q 72 1467 72 1360 q 75 1496 72 1476 l 249 1494 q 269 1436 249 1456 q 340 1417 289 1417 q 411 1436 390 1417 q 432 1494 432 1456 l 606 1496 l 607 1472 q 536 1309 607 1363 q 339 1256 465 1256 z "},"Ǧ":{"ha":674,"x_min":35,"x_max":638,"o":"m 299 -11 q 106 80 169 -11 q 43 356 43 171 l 43 869 q 117 1119 43 1035 q 336 1204 190 1204 q 519 1157 454 1204 q 610 1019 585 1110 q 635 788 635 929 l 401 788 l 401 894 q 390 961 401 938 q 347 985 378 985 q 279 896 279 985 l 279 318 q 293 236 279 264 q 342 208 307 208 q 390 236 376 208 q 404 318 404 264 l 404 489 l 340 489 l 340 694 l 632 694 l 632 0 l 536 0 l 496 100 q 299 -11 432 -11 m 197 1256 l 35 1529 l 278 1529 l 336 1335 l 394 1529 l 638 1529 l 474 1256 l 197 1256 z "},"Ĝ":{"ha":674,"x_min":35,"x_max":638,"o":"m 299 -11 q 106 80 169 -11 q 43 356 43 171 l 43 869 q 117 1119 43 1035 q 336 1204 190 1204 q 519 1157 454 1204 q 610 1019 585 1110 q 635 788 635 929 l 401 788 l 401 894 q 390 961 401 938 q 347 985 378 985 q 279 896 279 985 l 279 318 q 293 236 279 264 q 342 208 307 208 q 390 236 376 208 q 404 318 404 264 l 404 489 l 340 489 l 340 694 l 632 694 l 632 0 l 536 0 l 496 100 q 299 -11 432 -11 m 35 1256 l 197 1529 l 474 1529 l 638 1256 l 394 1256 l 336 1449 l 278 1256 l 35 1256 z "},"Ģ":{"ha":674,"x_min":43,"x_max":635,"o":"m 299 -11 q 106 80 169 -11 q 43 356 43 171 l 43 869 q 117 1119 43 1035 q 336 1204 190 1204 q 519 1157 454 1204 q 610 1019 585 1110 q 635 788 635 929 l 401 788 l 401 894 q 390 961 401 938 q 347 985 378 985 q 279 896 279 985 l 279 318 q 293 236 279 264 q 342 208 307 208 q 390 236 376 208 q 404 318 404 264 l 404 489 l 340 489 l 340 694 l 632 694 l 632 0 l 536 0 l 496 100 q 299 -11 432 -11 m 249 -436 l 293 -276 l 207 -276 l 207 -74 l 460 -74 l 460 -269 l 392 -436 l 249 -436 z "},"Ġ":{"ha":674,"x_min":43,"x_max":635,"o":"m 299 -11 q 106 80 169 -11 q 43 356 43 171 l 43 869 q 117 1119 43 1035 q 336 1204 190 1204 q 519 1157 454 1204 q 610 1019 585 1110 q 635 788 635 929 l 401 788 l 401 894 q 390 961 401 938 q 347 985 378 985 q 279 896 279 985 l 279 318 q 293 236 279 264 q 342 208 307 208 q 390 236 376 208 q 404 318 404 264 l 404 489 l 340 489 l 340 694 l 632 694 l 632 0 l 536 0 l 496 100 q 299 -11 432 -11 m 215 1256 l 215 1458 l 458 1458 l 458 1256 l 215 1256 z "},"H":{"ha":693,"x_min":53,"x_max":640,"o":"m 53 0 l 53 1193 l 290 1193 l 290 767 l 403 767 l 403 1193 l 640 1193 l 640 0 l 403 0 l 403 542 l 290 542 l 290 0 l 53 0 z "},"Ħ":{"ha":671,"x_min":-19,"x_max":700,"o":"m 700 1017 l 700 910 l 640 910 l 640 0 l 403 0 l 403 542 l 290 542 l 290 0 l 53 0 l 53 910 l -19 910 l -19 1017 l 53 1017 l 53 1193 l 290 1193 l 290 1017 l 403 1017 l 403 1193 l 640 1193 l 640 1017 l 700 1017 m 403 767 l 403 910 l 290 910 l 290 767 l 403 767 z "},"Ĥ":{"ha":693,"x_min":46,"x_max":649,"o":"m 53 0 l 53 1193 l 290 1193 l 290 767 l 403 767 l 403 1193 l 640 1193 l 640 0 l 403 0 l 403 542 l 290 542 l 290 0 l 53 0 m 46 1256 l 208 1529 l 485 1529 l 649 1256 l 406 1256 l 347 1449 l 289 1256 l 46 1256 z "},"I":{"ha":315,"x_min":42,"x_max":272,"o":"m 42 0 l 42 1193 l 272 1193 l 272 0 l 42 0 z "},"Ĳ":{"ha":963,"x_min":42,"x_max":924,"o":"m 42 0 l 42 1193 l 272 1193 l 272 0 l 42 0 m 633 -11 q 485 21 551 -11 q 380 115 418 53 q 342 264 342 176 l 342 563 l 576 563 l 576 278 q 590 227 576 246 q 631 208 603 208 q 670 226 657 208 q 683 275 683 243 l 683 1193 l 924 1193 l 924 299 q 887 135 924 206 q 784 27 850 65 q 633 -11 718 -11 z "},"Í":{"ha":315,"x_min":-4,"x_max":318,"o":"m 42 0 l 42 1193 l 272 1193 l 272 0 l 42 0 m -4 1229 l -4 1381 l 318 1529 l 318 1293 l -4 1229 z "},"Ĭ":{"ha":315,"x_min":-107,"x_max":428,"o":"m 42 0 l 42 1193 l 272 1193 l 272 0 l 42 0 m 160 1256 q -36 1308 35 1256 q -107 1467 -107 1360 q -104 1496 -107 1476 l 69 1494 q 90 1436 69 1456 q 161 1417 110 1417 q 232 1436 211 1417 q 253 1494 253 1456 l 426 1496 l 428 1472 q 357 1309 428 1363 q 160 1256 286 1256 z "},"Î":{"ha":315,"x_min":-144,"x_max":458,"o":"m 42 0 l 42 1193 l 272 1193 l 272 0 l 42 0 m -144 1256 l 18 1529 l 294 1529 l 458 1256 l 215 1256 l 157 1449 l 99 1256 l -144 1256 z "},"Ȉ":{"ha":315,"x_min":-186,"x_max":328,"o":"m 42 0 l 42 1193 l 272 1193 l 272 0 l 42 0 m 10 1251 l -186 1543 l -28 1617 l 122 1292 l 10 1251 m 215 1251 l 46 1543 l 203 1617 l 328 1292 l 215 1251 z "},"Ï":{"ha":315,"x_min":-133,"x_max":438,"o":"m 42 0 l 42 1193 l 272 1193 l 272 0 l 42 0 m -133 1261 l -133 1463 l 110 1463 l 110 1261 l -133 1261 m 196 1261 l 196 1463 l 438 1463 l 438 1261 l 196 1261 z "},"İ":{"ha":315,"x_min":36,"x_max":279,"o":"m 42 0 l 42 1193 l 272 1193 l 272 0 l 42 0 m 36 1256 l 36 1458 l 279 1458 l 279 1256 l 36 1256 z "},"Ị":{"ha":315,"x_min":36,"x_max":279,"o":"m 42 0 l 42 1193 l 272 1193 l 272 0 l 42 0 m 36 -283 l 36 -81 l 279 -81 l 279 -283 l 36 -283 z "},"Ì":{"ha":315,"x_min":-4,"x_max":318,"o":"m 42 0 l 42 1193 l 272 1193 l 272 0 l 42 0 m 318 1229 l -4 1293 l -4 1529 l 318 1381 l 318 1229 z "},"Ỉ":{"ha":315,"x_min":17,"x_max":322,"o":"m 42 0 l 42 1193 l 272 1193 l 272 0 l 42 0 m 65 1331 q 126 1366 106 1346 q 147 1418 147 1386 q 78 1482 147 1482 q 17 1472 44 1482 l 17 1594 q 142 1617 79 1617 q 274 1574 226 1617 q 322 1454 322 1531 q 138 1246 322 1303 l 65 1331 z "},"Ȋ":{"ha":315,"x_min":-97,"x_max":410,"o":"m 42 0 l 42 1193 l 272 1193 l 272 0 l 42 0 m -94 1267 q -97 1294 -97 1286 q -32 1454 -97 1403 q 156 1506 33 1506 q 345 1453 281 1506 q 410 1290 410 1401 q 408 1267 410 1276 l 249 1267 q 224 1335 249 1311 q 157 1358 199 1358 q 90 1335 115 1358 q 65 1267 65 1311 l -94 1267 z "},"Ī":{"ha":315,"x_min":-67,"x_max":375,"o":"m 42 0 l 42 1193 l 272 1193 l 272 0 l 42 0 m -67 1275 l -67 1378 l 375 1378 l 375 1275 l -67 1275 z "},"Į":{"ha":315,"x_min":-50,"x_max":321,"o":"m 42 0 l 42 1193 l 272 1193 l 272 0 l 42 0 m 186 -428 q 68 -403 122 -428 q -18 -332 14 -378 q -50 -224 -50 -286 q 129 0 -50 -100 l 272 0 l 247 -29 q 184 -114 204 -81 q 164 -189 164 -147 q 184 -246 164 -226 q 242 -265 204 -265 q 321 -250 275 -265 l 321 -401 q 186 -428 258 -428 z "},"Ĩ":{"ha":315,"x_min":-124,"x_max":438,"o":"m 42 0 l 42 1193 l 272 1193 l 272 0 l 42 0 m 269 1269 q 198 1279 231 1269 q 119 1307 165 1289 q 76 1324 97 1317 q 40 1331 56 1331 q -22 1285 0 1331 l -124 1338 q -58 1451 -93 1413 q 44 1489 -22 1489 q 110 1481 81 1489 q 186 1454 139 1472 q 261 1432 236 1432 q 325 1482 300 1432 l 438 1446 q 398 1352 417 1388 q 348 1293 379 1317 q 269 1269 317 1269 z "},"J":{"ha":647,"x_min":26,"x_max":608,"o":"m 318 -11 q 169 21 236 -11 q 65 115 103 53 q 26 264 26 176 l 26 563 l 261 563 l 261 278 q 274 227 261 246 q 315 208 288 208 q 355 226 342 208 q 368 275 368 243 l 368 1193 l 608 1193 l 608 299 q 572 135 608 206 q 469 27 535 65 q 318 -11 403 -11 z "},"Ĵ":{"ha":647,"x_min":26,"x_max":790,"o":"m 318 -11 q 169 21 236 -11 q 65 115 103 53 q 26 264 26 176 l 26 563 l 261 563 l 261 278 q 274 227 261 246 q 315 208 288 208 q 355 226 342 208 q 368 275 368 243 l 368 1193 l 608 1193 l 608 299 q 572 135 608 206 q 469 27 535 65 q 318 -11 403 -11 m 188 1256 l 350 1529 l 626 1529 l 790 1256 l 547 1256 l 489 1449 l 431 1256 l 188 1256 z "},"K":{"ha":656,"x_min":53,"x_max":668,"o":"m 53 0 l 53 1193 l 289 1193 l 289 715 l 400 1193 l 640 1193 l 507 647 l 668 0 l 421 0 l 290 578 l 290 0 l 53 0 z "},"Ķ":{"ha":656,"x_min":53,"x_max":668,"o":"m 53 0 l 53 1193 l 289 1193 l 289 715 l 400 1193 l 640 1193 l 507 647 l 668 0 l 421 0 l 290 578 l 290 0 l 53 0 m 261 -436 l 306 -276 l 219 -276 l 219 -74 l 472 -74 l 472 -269 l 404 -436 l 261 -436 z "},"L":{"ha":551,"x_min":53,"x_max":538,"o":"m 53 0 l 53 1193 l 292 1193 l 292 203 l 538 203 l 538 0 l 53 0 z "},"Ǉ":{"ha":1199,"x_min":53,"x_max":1160,"o":"m 53 0 l 53 1193 l 292 1193 l 292 203 l 538 203 l 538 0 l 53 0 m 869 -11 q 721 21 788 -11 q 616 115 654 53 q 578 264 578 176 l 578 563 l 813 563 l 813 278 q 826 227 813 246 q 867 208 839 208 q 906 226 893 208 q 919 275 919 243 l 919 1193 l 1160 1193 l 1160 299 q 1123 135 1160 206 q 1020 27 1086 65 q 869 -11 954 -11 z "},"Ĺ":{"ha":551,"x_min":10,"x_max":538,"o":"m 53 0 l 53 1193 l 292 1193 l 292 203 l 538 203 l 538 0 l 53 0 m 10 1229 l 10 1381 l 332 1529 l 332 1293 l 10 1229 z "},"Ľ":{"ha":551,"x_min":53,"x_max":603,"o":"m 53 0 l 53 1193 l 292 1193 l 292 203 l 538 203 l 538 0 l 53 0 m 390 842 l 435 1003 l 349 1003 l 349 1204 l 603 1204 l 603 1008 l 533 842 l 390 842 z "},"Ļ":{"ha":551,"x_min":53,"x_max":538,"o":"m 53 0 l 53 1193 l 292 1193 l 292 203 l 538 203 l 538 0 l 53 0 m 200 -436 l 244 -276 l 158 -276 l 158 -74 l 411 -74 l 411 -269 l 343 -436 l 200 -436 z "},"Ŀ":{"ha":626,"x_min":53,"x_max":597,"o":"m 53 0 l 53 1193 l 292 1193 l 292 203 l 538 203 l 538 0 l 53 0 m 375 513 l 375 742 l 597 742 l 597 513 l 375 513 z "},"ǈ":{"ha":917,"x_min":53,"x_max":869,"o":"m 53 0 l 53 1193 l 292 1193 l 292 203 l 538 203 l 538 0 l 53 0 m 626 1085 l 626 1254 l 869 1254 l 869 1085 l 626 1085 m 678 -119 q 575 -101 599 -119 l 575 61 q 597 58 582 58 q 621 70 615 58 q 626 106 626 82 l 626 1017 l 869 1017 l 869 113 q 824 -60 869 0 q 678 -119 778 -119 z "},"Ł":{"ha":579,"x_min":-7,"x_max":538,"o":"m 292 203 l 538 203 l 538 0 l 53 0 l 53 481 l -7 454 l -7 686 l 53 713 l 53 1193 l 292 1193 l 292 815 l 432 876 l 432 644 l 292 583 l 292 203 z "},"M":{"ha":1036,"x_min":53,"x_max":983,"o":"m 53 0 l 53 1193 l 417 1193 l 517 465 l 617 1193 l 983 1193 l 983 0 l 765 0 l 765 860 l 628 0 l 414 0 l 268 860 l 268 0 l 53 0 z "},"N":{"ha":692,"x_min":53,"x_max":639,"o":"m 53 0 l 53 1193 l 299 1193 l 408 622 l 408 1193 l 639 1193 l 639 0 l 406 0 l 286 597 l 286 0 l 53 0 z "},"Ǌ":{"ha":1339,"x_min":53,"x_max":1300,"o":"m 53 0 l 53 1193 l 299 1193 l 408 622 l 408 1193 l 639 1193 l 639 0 l 406 0 l 286 597 l 286 0 l 53 0 m 1010 -11 q 861 21 928 -11 q 756 115 794 53 q 718 264 718 176 l 718 563 l 953 563 l 953 278 q 966 227 953 246 q 1007 208 979 208 q 1047 226 1033 208 q 1060 275 1060 243 l 1060 1193 l 1300 1193 l 1300 299 q 1263 135 1300 206 q 1160 27 1226 65 q 1010 -11 1094 -11 z "},"Ń":{"ha":692,"x_min":53,"x_max":639,"o":"m 53 0 l 53 1193 l 299 1193 l 408 622 l 408 1193 l 639 1193 l 639 0 l 406 0 l 286 597 l 286 0 l 53 0 m 197 1229 l 197 1381 l 519 1529 l 519 1293 l 197 1229 z "},"Ň":{"ha":692,"x_min":53,"x_max":661,"o":"m 53 0 l 53 1193 l 299 1193 l 408 622 l 408 1193 l 639 1193 l 639 0 l 406 0 l 286 597 l 286 0 l 53 0 m 221 1256 l 58 1529 l 301 1529 l 360 1335 l 418 1529 l 661 1529 l 497 1256 l 221 1256 z "},"Ņ":{"ha":692,"x_min":53,"x_max":639,"o":"m 53 0 l 53 1193 l 299 1193 l 408 622 l 408 1193 l 639 1193 l 639 0 l 406 0 l 286 597 l 286 0 l 53 0 m 249 -436 l 293 -276 l 207 -276 l 207 -74 l 460 -74 l 460 -269 l 392 -436 l 249 -436 z "},"Ŋ":{"ha":682,"x_min":43,"x_max":639,"o":"m 639 1193 l 639 -12 q 555 -252 639 -174 q 338 -331 471 -331 q 190 -310 267 -331 q 43 -250 114 -289 l 99 -110 q 283 -160 217 -160 q 392 -28 392 -160 l 392 69 l 286 597 l 286 0 l 53 0 l 53 1193 l 299 1193 l 408 622 l 408 1193 l 639 1193 z "},"ǋ":{"ha":1057,"x_min":53,"x_max":1010,"o":"m 53 0 l 53 1193 l 299 1193 l 408 622 l 408 1193 l 639 1193 l 639 0 l 406 0 l 286 597 l 286 0 l 53 0 m 767 1085 l 767 1254 l 1010 1254 l 1010 1085 l 767 1085 m 818 -119 q 715 -101 739 -119 l 715 61 q 738 58 722 58 q 761 70 756 58 q 767 106 767 82 l 767 1017 l 1010 1017 l 1010 113 q 964 -60 1010 0 q 818 -119 918 -119 z "},"Ñ":{"ha":692,"x_min":53,"x_max":640,"o":"m 53 0 l 53 1193 l 299 1193 l 408 622 l 408 1193 l 639 1193 l 639 0 l 406 0 l 286 597 l 286 0 l 53 0 m 472 1269 q 401 1279 433 1269 q 322 1307 368 1289 q 279 1324 300 1317 q 243 1331 258 1331 q 181 1285 203 1331 l 79 1338 q 145 1451 110 1413 q 247 1489 181 1489 q 313 1481 283 1489 q 389 1454 342 1472 q 464 1432 439 1432 q 528 1482 503 1432 l 640 1446 q 601 1352 619 1388 q 551 1293 582 1317 q 472 1269 519 1269 z "},"O":{"ha":675,"x_min":43,"x_max":632,"o":"m 338 -11 q 118 77 193 -11 q 43 325 43 165 l 43 893 q 118 1126 43 1047 q 338 1204 193 1204 q 557 1126 482 1204 q 632 893 632 1047 l 632 325 q 557 76 632 164 q 338 -11 482 -11 m 338 208 q 381 236 369 208 q 392 314 392 264 l 392 897 q 381 960 392 936 q 339 985 371 985 q 279 894 279 985 l 279 313 q 292 235 279 261 q 338 208 304 208 z "},"Ó":{"ha":675,"x_min":43,"x_max":632,"o":"m 338 -11 q 118 77 193 -11 q 43 325 43 165 l 43 893 q 118 1126 43 1047 q 338 1204 193 1204 q 557 1126 482 1204 q 632 893 632 1047 l 632 325 q 557 76 632 164 q 338 -11 482 -11 m 338 208 q 381 236 369 208 q 392 314 392 264 l 392 897 q 381 960 392 936 q 339 985 371 985 q 279 894 279 985 l 279 313 q 292 235 279 261 q 338 208 304 208 m 176 1229 l 176 1381 l 499 1529 l 499 1293 l 176 1229 z "},"Ŏ":{"ha":675,"x_min":43,"x_max":632,"o":"m 338 -11 q 118 77 193 -11 q 43 325 43 165 l 43 893 q 118 1126 43 1047 q 338 1204 193 1204 q 557 1126 482 1204 q 632 893 632 1047 l 632 325 q 557 76 632 164 q 338 -11 482 -11 m 338 208 q 381 236 369 208 q 392 314 392 264 l 392 897 q 381 960 392 936 q 339 985 371 985 q 279 894 279 985 l 279 313 q 292 235 279 261 q 338 208 304 208 m 340 1256 q 144 1308 215 1256 q 74 1467 74 1360 q 76 1496 74 1476 l 250 1494 q 270 1436 250 1456 q 342 1417 290 1417 q 413 1436 392 1417 q 433 1494 433 1456 l 607 1496 l 608 1472 q 538 1309 608 1363 q 340 1256 467 1256 z "},"Ô":{"ha":675,"x_min":38,"x_max":640,"o":"m 338 -11 q 118 77 193 -11 q 43 325 43 165 l 43 893 q 118 1126 43 1047 q 338 1204 193 1204 q 557 1126 482 1204 q 632 893 632 1047 l 632 325 q 557 76 632 164 q 338 -11 482 -11 m 338 208 q 381 236 369 208 q 392 314 392 264 l 392 897 q 381 960 392 936 q 339 985 371 985 q 279 894 279 985 l 279 313 q 292 235 279 261 q 338 208 304 208 m 38 1256 l 200 1529 l 476 1529 l 640 1256 l 397 1256 l 339 1449 l 281 1256 l 38 1256 z "},"Ố":{"ha":675,"x_min":43,"x_max":819,"o":"m 338 -11 q 118 77 193 -11 q 43 325 43 165 l 43 893 q 118 1126 43 1047 q 338 1204 193 1204 q 557 1126 482 1204 q 632 893 632 1047 l 632 325 q 557 76 632 164 q 338 -11 482 -11 m 338 208 q 381 236 369 208 q 392 314 392 264 l 392 897 q 381 960 392 936 q 339 985 371 985 q 279 894 279 985 l 279 313 q 292 235 279 261 q 338 208 304 208 m 533 1357 l 611 1494 l 819 1494 l 692 1357 l 533 1357 m 76 1246 l 238 1419 l 438 1419 l 599 1246 l 404 1247 l 338 1339 l 271 1247 l 76 1246 z "},"Ộ":{"ha":675,"x_min":36,"x_max":639,"o":"m 338 -11 q 118 77 193 -11 q 43 325 43 165 l 43 893 q 118 1126 43 1047 q 338 1204 193 1204 q 557 1126 482 1204 q 632 893 632 1047 l 632 325 q 557 76 632 164 q 338 -11 482 -11 m 338 208 q 381 236 369 208 q 392 314 392 264 l 392 897 q 381 960 392 936 q 339 985 371 985 q 279 894 279 985 l 279 313 q 292 235 279 261 q 338 208 304 208 m 217 -283 l 217 -81 l 460 -81 l 460 -283 l 217 -283 m 36 1263 l 199 1488 l 476 1488 l 639 1263 l 396 1263 l 338 1408 l 279 1263 l 36 1263 z "},"Ồ":{"ha":675,"x_min":43,"x_max":738,"o":"m 338 -11 q 118 77 193 -11 q 43 325 43 165 l 43 893 q 118 1126 43 1047 q 338 1204 193 1204 q 557 1126 482 1204 q 632 893 632 1047 l 632 325 q 557 76 632 164 q 338 -11 482 -11 m 338 208 q 381 236 369 208 q 392 314 392 264 l 392 897 q 381 960 392 936 q 339 985 371 985 q 279 894 279 985 l 279 313 q 292 235 279 261 q 338 208 304 208 m 738 1357 l 579 1357 l 451 1494 l 660 1494 l 738 1357 m 76 1246 l 238 1419 l 438 1419 l 599 1246 l 404 1247 l 338 1339 l 271 1247 l 76 1246 z "},"Ổ":{"ha":675,"x_min":43,"x_max":703,"o":"m 338 -11 q 118 77 193 -11 q 43 325 43 165 l 43 893 q 118 1126 43 1047 q 338 1204 193 1204 q 557 1126 482 1204 q 632 893 632 1047 l 632 325 q 557 76 632 164 q 338 -11 482 -11 m 338 208 q 381 236 369 208 q 392 314 392 264 l 392 897 q 381 960 392 936 q 339 985 371 985 q 279 894 279 985 l 279 313 q 292 235 279 261 q 338 208 304 208 m 543 1381 q 594 1436 594 1399 q 551 1476 594 1476 q 514 1469 532 1476 l 514 1544 q 592 1560 551 1560 q 674 1533 644 1560 q 703 1458 703 1506 q 589 1329 703 1363 l 543 1381 m 76 1246 l 238 1419 l 438 1419 l 599 1246 l 404 1247 l 338 1339 l 271 1247 l 76 1246 z "},"Ỗ":{"ha":675,"x_min":43,"x_max":632,"o":"m 338 -11 q 118 77 193 -11 q 43 325 43 165 l 43 893 q 118 1126 43 1047 q 338 1204 193 1204 q 557 1126 482 1204 q 632 893 632 1047 l 632 325 q 557 76 632 164 q 338 -11 482 -11 m 338 208 q 381 236 369 208 q 392 314 392 264 l 392 897 q 381 960 392 936 q 339 985 371 985 q 279 894 279 985 l 279 313 q 292 235 279 261 q 338 208 304 208 m 419 1453 q 381 1458 399 1453 q 332 1476 364 1464 q 290 1493 307 1488 q 257 1499 274 1499 q 200 1464 222 1499 l 125 1504 q 172 1584 147 1557 q 242 1611 196 1611 q 284 1605 264 1611 q 329 1586 304 1599 q 371 1569 356 1575 q 404 1564 386 1564 q 435 1573 422 1564 q 461 1603 449 1582 l 546 1575 q 497 1483 522 1514 q 419 1453 471 1453 m 76 1246 l 238 1419 l 438 1419 l 599 1246 l 404 1247 l 338 1339 l 271 1247 l 76 1246 z "},"Ȍ":{"ha":675,"x_min":-4,"x_max":632,"o":"m 338 -11 q 118 77 193 -11 q 43 325 43 165 l 43 893 q 118 1126 43 1047 q 338 1204 193 1204 q 557 1126 482 1204 q 632 893 632 1047 l 632 325 q 557 76 632 164 q 338 -11 482 -11 m 338 208 q 381 236 369 208 q 392 314 392 264 l 392 897 q 381 960 392 936 q 339 985 371 985 q 279 894 279 985 l 279 313 q 292 235 279 261 q 338 208 304 208 m 192 1251 l -4 1543 l 154 1617 l 304 1292 l 192 1251 m 397 1251 l 228 1543 l 385 1617 l 510 1292 l 397 1251 z "},"Ö":{"ha":675,"x_min":43,"x_max":632,"o":"m 338 -11 q 118 77 193 -11 q 43 325 43 165 l 43 893 q 118 1126 43 1047 q 338 1204 193 1204 q 557 1126 482 1204 q 632 893 632 1047 l 632 325 q 557 76 632 164 q 338 -11 482 -11 m 338 208 q 381 236 369 208 q 392 314 392 264 l 392 897 q 381 960 392 936 q 339 985 371 985 q 279 894 279 985 l 279 313 q 292 235 279 261 q 338 208 304 208 m 47 1261 l 47 1463 l 290 1463 l 290 1261 l 47 1261 m 376 1261 l 376 1463 l 618 1463 l 618 1261 l 376 1261 z "},"Ȫ":{"ha":675,"x_min":43,"x_max":632,"o":"m 338 -11 q 118 77 193 -11 q 43 325 43 165 l 43 893 q 118 1126 43 1047 q 338 1204 193 1204 q 557 1126 482 1204 q 632 893 632 1047 l 632 325 q 557 76 632 164 q 338 -11 482 -11 m 338 208 q 381 236 369 208 q 392 314 392 264 l 392 897 q 381 960 392 936 q 339 985 371 985 q 279 894 279 985 l 279 313 q 292 235 279 261 q 338 208 304 208 m 51 1261 l 51 1429 l 294 1429 l 294 1261 l 51 1261 m 381 1261 l 381 1429 l 624 1429 l 624 1261 l 381 1261 m 117 1503 l 117 1606 l 558 1606 l 558 1503 l 117 1503 z "},"Ȱ":{"ha":675,"x_min":43,"x_max":632,"o":"m 338 -11 q 118 77 193 -11 q 43 325 43 165 l 43 893 q 118 1126 43 1047 q 338 1204 193 1204 q 557 1126 482 1204 q 632 893 632 1047 l 632 325 q 557 76 632 164 q 338 -11 482 -11 m 338 208 q 381 236 369 208 q 392 314 392 264 l 392 897 q 381 960 392 936 q 339 985 371 985 q 279 894 279 985 l 279 313 q 292 235 279 261 q 338 208 304 208 m 217 1256 l 217 1431 l 458 1431 l 458 1256 l 217 1256 m 117 1490 l 117 1593 l 558 1593 l 558 1490 l 117 1490 z "},"Ọ":{"ha":675,"x_min":43,"x_max":632,"o":"m 338 -11 q 118 77 193 -11 q 43 325 43 165 l 43 893 q 118 1126 43 1047 q 338 1204 193 1204 q 557 1126 482 1204 q 632 893 632 1047 l 632 325 q 557 76 632 164 q 338 -11 482 -11 m 338 208 q 381 236 369 208 q 392 314 392 264 l 392 897 q 381 960 392 936 q 339 985 371 985 q 279 894 279 985 l 279 313 q 292 235 279 261 q 338 208 304 208 m 217 -283 l 217 -81 l 460 -81 l 460 -283 l 217 -283 z "},"Ò":{"ha":675,"x_min":43,"x_max":632,"o":"m 338 -11 q 118 77 193 -11 q 43 325 43 165 l 43 893 q 118 1126 43 1047 q 338 1204 193 1204 q 557 1126 482 1204 q 632 893 632 1047 l 632 325 q 557 76 632 164 q 338 -11 482 -11 m 338 208 q 381 236 369 208 q 392 314 392 264 l 392 897 q 381 960 392 936 q 339 985 371 985 q 279 894 279 985 l 279 313 q 292 235 279 261 q 338 208 304 208 m 500 1229 l 178 1293 l 178 1529 l 500 1381 l 500 1229 z "},"Ỏ":{"ha":675,"x_min":43,"x_max":632,"o":"m 338 -11 q 118 77 193 -11 q 43 325 43 165 l 43 893 q 118 1126 43 1047 q 338 1204 193 1204 q 557 1126 482 1204 q 632 893 632 1047 l 632 325 q 557 76 632 164 q 338 -11 482 -11 m 338 208 q 381 236 369 208 q 392 314 392 264 l 392 897 q 381 960 392 936 q 339 985 371 985 q 279 894 279 985 l 279 313 q 292 235 279 261 q 338 208 304 208 m 246 1331 q 307 1366 286 1346 q 328 1418 328 1386 q 258 1482 328 1482 q 197 1472 225 1482 l 197 1594 q 322 1617 260 1617 q 455 1574 407 1617 q 503 1454 503 1531 q 318 1246 503 1303 l 246 1331 z "},"Ơ":{"ha":681,"x_min":43,"x_max":657,"o":"m 657 1294 q 576 1103 657 1163 q 632 893 632 1024 l 632 325 q 557 76 632 164 q 338 -11 482 -11 q 118 77 193 -11 q 43 325 43 165 l 43 893 q 119 1125 43 1046 q 339 1204 194 1204 l 390 1204 q 468 1289 468 1204 l 468 1304 l 657 1304 l 657 1294 m 392 897 q 381 960 392 936 q 339 985 371 985 q 279 894 279 985 l 279 313 q 292 235 279 261 q 338 208 304 208 q 381 236 369 208 q 392 314 392 264 l 392 897 z "},"Ớ":{"ha":681,"x_min":43,"x_max":657,"o":"m 657 1294 q 576 1103 657 1163 q 632 893 632 1024 l 632 325 q 557 76 632 164 q 338 -11 482 -11 q 118 77 193 -11 q 43 325 43 165 l 43 893 q 119 1125 43 1046 q 339 1204 194 1204 l 390 1204 q 468 1289 468 1204 l 468 1304 l 657 1304 l 657 1294 m 392 897 q 381 960 392 936 q 339 985 371 985 q 279 894 279 985 l 279 313 q 292 235 279 261 q 338 208 304 208 q 381 236 369 208 q 392 314 392 264 l 392 897 m 178 1310 l 178 1442 l 500 1556 l 500 1361 l 178 1310 z "},"Ợ":{"ha":681,"x_min":43,"x_max":657,"o":"m 657 1294 q 576 1103 657 1163 q 632 893 632 1024 l 632 325 q 557 76 632 164 q 338 -11 482 -11 q 118 77 193 -11 q 43 325 43 165 l 43 893 q 119 1125 43 1046 q 339 1204 194 1204 l 390 1204 q 468 1289 468 1204 l 468 1304 l 657 1304 l 657 1294 m 392 897 q 381 960 392 936 q 339 985 371 985 q 279 894 279 985 l 279 313 q 292 235 279 261 q 338 208 304 208 q 381 236 369 208 q 392 314 392 264 l 392 897 m 217 -283 l 217 -81 l 460 -81 l 460 -283 l 217 -283 z "},"Ờ":{"ha":681,"x_min":43,"x_max":657,"o":"m 657 1294 q 576 1103 657 1163 q 632 893 632 1024 l 632 325 q 557 76 632 164 q 338 -11 482 -11 q 118 77 193 -11 q 43 325 43 165 l 43 893 q 119 1125 43 1046 q 339 1204 194 1204 l 390 1204 q 468 1289 468 1204 l 468 1304 l 657 1304 l 657 1294 m 392 897 q 381 960 392 936 q 339 985 371 985 q 279 894 279 985 l 279 313 q 292 235 279 261 q 338 208 304 208 q 381 236 369 208 q 392 314 392 264 l 392 897 m 500 1331 l 178 1382 l 178 1576 l 500 1463 l 500 1331 z "},"Ở":{"ha":681,"x_min":43,"x_max":657,"o":"m 657 1294 q 576 1103 657 1163 q 632 893 632 1024 l 632 325 q 557 76 632 164 q 338 -11 482 -11 q 118 77 193 -11 q 43 325 43 165 l 43 893 q 119 1125 43 1046 q 339 1204 194 1204 l 390 1204 q 468 1289 468 1204 l 468 1304 l 657 1304 l 657 1294 m 392 897 q 381 960 392 936 q 339 985 371 985 q 279 894 279 985 l 279 313 q 292 235 279 261 q 338 208 304 208 q 381 236 369 208 q 392 314 392 264 l 392 897 m 247 1388 q 308 1423 288 1403 q 329 1475 329 1443 q 260 1539 329 1539 q 199 1529 226 1539 l 199 1651 q 324 1674 261 1674 q 456 1631 408 1674 q 504 1511 504 1588 q 319 1303 504 1360 l 247 1388 z "},"Ỡ":{"ha":681,"x_min":43,"x_max":657,"o":"m 657 1294 q 576 1103 657 1163 q 632 893 632 1024 l 632 325 q 557 76 632 164 q 338 -11 482 -11 q 118 77 193 -11 q 43 325 43 165 l 43 893 q 119 1125 43 1046 q 339 1204 194 1204 l 390 1204 q 468 1289 468 1204 l 468 1304 l 657 1304 l 657 1294 m 392 897 q 381 960 392 936 q 339 985 371 985 q 279 894 279 985 l 279 313 q 292 235 279 261 q 338 208 304 208 q 381 236 369 208 q 392 314 392 264 l 392 897 m 451 1361 q 380 1371 413 1361 q 301 1399 347 1381 q 258 1415 279 1408 q 222 1422 238 1422 q 160 1376 182 1422 l 58 1429 q 124 1532 89 1497 q 226 1567 160 1567 q 292 1558 263 1567 q 368 1532 321 1550 q 443 1510 418 1510 q 478 1522 463 1510 q 507 1561 493 1533 l 619 1525 q 580 1438 599 1471 q 530 1383 561 1404 q 451 1361 499 1361 z "},"Ő":{"ha":675,"x_min":43,"x_max":689,"o":"m 338 -11 q 118 77 193 -11 q 43 325 43 165 l 43 893 q 118 1126 43 1047 q 338 1204 193 1204 q 557 1126 482 1204 q 632 893 632 1047 l 632 325 q 557 76 632 164 q 338 -11 482 -11 m 338 208 q 381 236 369 208 q 392 314 392 264 l 392 897 q 381 960 392 936 q 339 985 371 985 q 279 894 279 985 l 279 313 q 292 235 279 261 q 338 208 304 208 m 289 1265 l 176 1306 l 300 1629 l 457 1557 l 289 1265 m 493 1265 l 381 1306 l 531 1629 l 689 1557 l 493 1265 z "},"Ȏ":{"ha":675,"x_min":43,"x_max":632,"o":"m 338 -11 q 118 77 193 -11 q 43 325 43 165 l 43 893 q 118 1126 43 1047 q 338 1204 193 1204 q 557 1126 482 1204 q 632 893 632 1047 l 632 325 q 557 76 632 164 q 338 -11 482 -11 m 338 208 q 381 236 369 208 q 392 314 392 264 l 392 897 q 381 960 392 936 q 339 985 371 985 q 279 894 279 985 l 279 313 q 292 235 279 261 q 338 208 304 208 m 88 1267 q 85 1294 85 1286 q 150 1454 85 1403 q 338 1506 215 1506 q 527 1453 463 1506 q 592 1290 592 1401 q 590 1267 592 1276 l 431 1267 q 406 1335 431 1311 q 339 1358 381 1358 q 272 1335 297 1358 q 247 1267 247 1311 l 88 1267 z "},"Ō":{"ha":675,"x_min":43,"x_max":632,"o":"m 338 -11 q 118 77 193 -11 q 43 325 43 165 l 43 893 q 118 1126 43 1047 q 338 1204 193 1204 q 557 1126 482 1204 q 632 893 632 1047 l 632 325 q 557 76 632 164 q 338 -11 482 -11 m 338 208 q 381 236 369 208 q 392 314 392 264 l 392 897 q 381 960 392 936 q 339 985 371 985 q 279 894 279 985 l 279 313 q 292 235 279 261 q 338 208 304 208 m 115 1275 l 115 1378 l 557 1378 l 557 1275 l 115 1275 z "},"Ǫ":{"ha":675,"x_min":43,"x_max":632,"o":"m 632 325 q 533 53 632 139 q 510 24 517 33 q 447 -60 468 -25 q 426 -135 426 -94 q 447 -192 426 -172 q 504 -211 467 -211 q 583 -196 538 -211 l 583 -347 q 449 -374 521 -374 q 331 -349 385 -374 q 244 -278 276 -324 q 213 -169 213 -232 q 299 -10 213 -85 q 108 89 172 3 q 43 325 43 175 l 43 893 q 118 1126 43 1047 q 338 1204 193 1204 q 557 1126 482 1204 q 632 893 632 1047 l 632 325 m 279 313 q 292 235 279 261 q 338 208 304 208 q 381 236 369 208 q 392 314 392 264 l 392 897 q 381 960 392 936 q 339 985 371 985 q 279 894 279 985 l 279 313 z "},"Ø":{"ha":669,"x_min":40,"x_max":629,"o":"m 524 1153 q 629 893 629 1075 l 629 325 q 554 76 629 164 q 335 -11 479 -11 q 200 14 257 -11 l 163 -117 l 88 -89 l 131 61 q 40 325 40 147 l 40 893 q 115 1126 40 1047 q 335 1204 190 1204 q 449 1189 396 1204 l 496 1360 l 576 1336 l 524 1153 m 389 897 q 378 960 389 936 q 336 985 368 985 q 276 894 276 985 l 276 313 q 288 234 276 260 q 335 208 300 208 q 378 236 367 208 q 389 314 389 264 l 389 897 z "},"Ǿ":{"ha":669,"x_min":40,"x_max":629,"o":"m 524 1153 q 629 893 629 1075 l 629 325 q 554 76 629 164 q 335 -11 479 -11 q 200 14 257 -11 l 163 -117 l 88 -89 l 131 61 q 40 325 40 147 l 40 893 q 115 1126 40 1047 q 335 1204 190 1204 q 449 1189 396 1204 l 496 1360 l 576 1336 l 524 1153 m 389 897 q 378 960 389 936 q 336 985 368 985 q 276 894 276 985 l 276 313 q 288 234 276 260 q 335 208 300 208 q 378 236 367 208 q 389 314 389 264 l 389 897 m 172 1322 l 172 1474 l 494 1622 l 494 1386 l 172 1322 z "},"Õ":{"ha":675,"x_min":43,"x_max":632,"o":"m 338 -11 q 118 77 193 -11 q 43 325 43 165 l 43 893 q 118 1126 43 1047 q 338 1204 193 1204 q 557 1126 482 1204 q 632 893 632 1047 l 632 325 q 557 76 632 164 q 338 -11 482 -11 m 338 208 q 381 236 369 208 q 392 314 392 264 l 392 897 q 381 960 392 936 q 339 985 371 985 q 279 894 279 985 l 279 313 q 292 235 279 261 q 338 208 304 208 m 451 1269 q 380 1279 413 1269 q 301 1307 347 1289 q 258 1324 279 1317 q 222 1331 238 1331 q 160 1285 182 1331 l 58 1338 q 124 1451 89 1413 q 226 1489 160 1489 q 292 1481 263 1489 q 368 1454 321 1472 q 443 1432 418 1432 q 507 1482 482 1432 l 619 1446 q 580 1352 599 1388 q 530 1293 561 1317 q 451 1269 499 1269 z "},"Ȭ":{"ha":675,"x_min":43,"x_max":632,"o":"m 338 -11 q 118 77 193 -11 q 43 325 43 165 l 43 893 q 118 1126 43 1047 q 338 1204 193 1204 q 557 1126 482 1204 q 632 893 632 1047 l 632 325 q 557 76 632 164 q 338 -11 482 -11 m 338 208 q 381 236 369 208 q 392 314 392 264 l 392 897 q 381 960 392 936 q 339 985 371 985 q 279 894 279 985 l 279 313 q 292 235 279 261 q 338 208 304 208 m 450 1249 q 378 1258 411 1249 q 300 1286 346 1268 q 257 1303 278 1296 q 221 1310 236 1310 q 158 1264 181 1310 l 57 1317 q 123 1419 88 1385 q 225 1454 158 1454 q 290 1446 261 1454 q 367 1419 319 1438 q 442 1397 417 1397 q 476 1409 461 1397 q 506 1449 492 1421 l 618 1413 q 578 1325 597 1358 q 528 1270 560 1292 q 450 1249 497 1249 m 117 1510 l 117 1613 l 558 1613 l 558 1510 l 117 1510 z "},"Œ":{"ha":901,"x_min":33,"x_max":875,"o":"m 411 0 q 33 292 33 0 l 33 919 q 130 1131 33 1068 q 406 1193 226 1193 l 860 1193 l 860 983 l 632 983 l 632 735 l 850 735 l 850 532 l 632 532 l 632 211 l 875 211 l 875 0 l 411 0 m 389 211 l 389 983 l 351 983 q 291 959 313 983 q 269 892 269 935 l 269 325 q 289 243 269 275 q 347 211 308 211 l 389 211 z "},"P":{"ha":656,"x_min":53,"x_max":633,"o":"m 53 1193 l 368 1193 q 572 1101 511 1193 q 633 831 633 1008 q 579 563 633 653 q 385 472 525 472 l 288 472 l 288 0 l 53 0 l 53 1193 m 301 688 q 365 703 344 688 q 391 749 385 719 q 397 835 397 779 q 381 943 397 910 q 314 976 364 976 l 288 976 l 288 688 l 301 688 z "},"Þ":{"ha":642,"x_min":42,"x_max":622,"o":"m 42 1193 l 276 1193 l 276 1028 l 357 1028 q 563 933 504 1028 q 622 660 622 838 q 570 389 622 483 q 374 294 518 294 l 276 294 l 276 0 l 42 0 l 42 1193 m 290 489 q 356 510 335 489 q 381 563 376 531 q 386 656 386 596 q 381 752 386 717 q 358 810 376 788 q 303 832 340 832 l 276 832 l 276 489 l 290 489 z "},"Q":{"ha":686,"x_min":36,"x_max":661,"o":"m 390 -1 q 331 -11 338 -11 q 111 72 186 -11 q 36 314 36 154 l 36 890 q 112 1124 36 1044 q 331 1204 188 1204 q 549 1124 474 1204 q 625 890 625 1044 l 625 314 q 558 81 625 167 l 661 15 l 581 -126 l 390 -1 m 331 208 q 375 242 365 208 q 385 328 385 275 l 385 886 q 373 958 385 932 q 329 985 361 985 q 272 888 272 985 l 272 324 q 283 241 272 274 q 331 208 294 208 z "},"R":{"ha":663,"x_min":53,"x_max":636,"o":"m 53 1193 l 419 1193 q 555 1153 507 1193 q 619 1042 603 1114 q 636 860 636 971 q 610 701 636 758 q 518 622 583 644 q 597 568 572 611 q 621 451 621 525 l 618 0 l 385 0 l 385 467 q 365 531 385 517 q 294 544 346 544 l 294 0 l 53 0 l 53 1193 m 353 751 q 403 860 403 751 q 399 931 403 907 q 383 963 394 954 q 351 972 372 972 l 296 972 l 296 751 l 353 751 z "},"Ŕ":{"ha":663,"x_min":53,"x_max":636,"o":"m 53 1193 l 419 1193 q 555 1153 507 1193 q 619 1042 603 1114 q 636 860 636 971 q 610 701 636 758 q 518 622 583 644 q 597 568 572 611 q 621 451 621 525 l 618 0 l 385 0 l 385 467 q 365 531 385 517 q 294 544 346 544 l 294 0 l 53 0 l 53 1193 m 353 751 q 403 860 403 751 q 399 931 403 907 q 383 963 394 954 q 351 972 372 972 l 296 972 l 296 751 l 353 751 m 163 1229 l 163 1381 l 485 1529 l 485 1293 l 163 1229 z "},"Ř":{"ha":663,"x_min":24,"x_max":636,"o":"m 53 1193 l 419 1193 q 555 1153 507 1193 q 619 1042 603 1114 q 636 860 636 971 q 610 701 636 758 q 518 622 583 644 q 597 568 572 611 q 621 451 621 525 l 618 0 l 385 0 l 385 467 q 365 531 385 517 q 294 544 346 544 l 294 0 l 53 0 l 53 1193 m 353 751 q 403 860 403 751 q 399 931 403 907 q 383 963 394 954 q 351 972 372 972 l 296 972 l 296 751 l 353 751 m 186 1256 l 24 1529 l 267 1529 l 325 1335 l 383 1529 l 626 1529 l 463 1256 l 186 1256 z "},"Ŗ":{"ha":663,"x_min":53,"x_max":636,"o":"m 53 1193 l 419 1193 q 555 1153 507 1193 q 619 1042 603 1114 q 636 860 636 971 q 610 701 636 758 q 518 622 583 644 q 597 568 572 611 q 621 451 621 525 l 618 0 l 385 0 l 385 467 q 365 531 385 517 q 294 544 346 544 l 294 0 l 53 0 l 53 1193 m 353 751 q 403 860 403 751 q 399 931 403 907 q 383 963 394 954 q 351 972 372 972 l 296 972 l 296 751 l 353 751 m 256 -436 l 300 -276 l 214 -276 l 214 -74 l 467 -74 l 467 -269 l 399 -436 l 256 -436 z "},"Ȑ":{"ha":663,"x_min":-18,"x_max":636,"o":"m 53 1193 l 419 1193 q 555 1153 507 1193 q 619 1042 603 1114 q 636 860 636 971 q 610 701 636 758 q 518 622 583 644 q 597 568 572 611 q 621 451 621 525 l 618 0 l 385 0 l 385 467 q 365 531 385 517 q 294 544 346 544 l 294 0 l 53 0 l 53 1193 m 353 751 q 403 860 403 751 q 399 931 403 907 q 383 963 394 954 q 351 972 372 972 l 296 972 l 296 751 l 353 751 m 178 1251 l -18 1543 l 140 1617 l 290 1292 l 178 1251 m 383 1251 l 214 1543 l 371 1617 l 496 1292 l 383 1251 z "},"Ȓ":{"ha":663,"x_min":53,"x_max":636,"o":"m 53 1193 l 419 1193 q 555 1153 507 1193 q 619 1042 603 1114 q 636 860 636 971 q 610 701 636 758 q 518 622 583 644 q 597 568 572 611 q 621 451 621 525 l 618 0 l 385 0 l 385 467 q 365 531 385 517 q 294 544 346 544 l 294 0 l 53 0 l 53 1193 m 353 751 q 403 860 403 751 q 399 931 403 907 q 383 963 394 954 q 351 972 372 972 l 296 972 l 296 751 l 353 751 m 74 1267 q 71 1294 71 1286 q 136 1454 71 1403 q 324 1506 201 1506 q 513 1453 449 1506 q 578 1290 578 1401 q 576 1267 578 1276 l 417 1267 q 392 1335 417 1311 q 325 1358 367 1358 q 258 1335 283 1358 q 233 1267 233 1311 l 74 1267 z "},"S":{"ha":640,"x_min":29,"x_max":614,"o":"m 336 -11 q 101 69 174 -11 q 29 329 29 150 l 29 446 l 264 446 l 264 297 q 321 208 264 208 q 365 227 353 208 q 378 290 378 246 q 364 387 378 349 q 328 451 350 425 q 251 531 307 476 l 149 633 q 29 892 29 750 q 99 1124 29 1044 q 304 1204 169 1204 q 536 1119 465 1204 q 607 851 607 1033 l 364 851 l 363 933 q 349 971 363 957 q 313 985 336 985 q 271 969 285 985 q 257 928 257 954 q 324 807 257 869 l 463 674 q 543 584 511 626 q 594 484 575 542 q 614 347 614 426 q 549 80 614 171 q 336 -11 485 -11 z "},"Ś":{"ha":640,"x_min":29,"x_max":614,"o":"m 336 -11 q 101 69 174 -11 q 29 329 29 150 l 29 446 l 264 446 l 264 297 q 321 208 264 208 q 365 227 353 208 q 378 290 378 246 q 364 387 378 349 q 328 451 350 425 q 251 531 307 476 l 149 633 q 29 892 29 750 q 99 1124 29 1044 q 304 1204 169 1204 q 536 1119 465 1204 q 607 851 607 1033 l 364 851 l 363 933 q 349 971 363 957 q 313 985 336 985 q 271 969 285 985 q 257 928 257 954 q 324 807 257 869 l 463 674 q 543 584 511 626 q 594 484 575 542 q 614 347 614 426 q 549 80 614 171 q 336 -11 485 -11 m 156 1229 l 156 1381 l 478 1529 l 478 1293 l 156 1229 z "},"Š":{"ha":640,"x_min":17,"x_max":619,"o":"m 336 -11 q 101 69 174 -11 q 29 329 29 150 l 29 446 l 264 446 l 264 297 q 321 208 264 208 q 365 227 353 208 q 378 290 378 246 q 364 387 378 349 q 328 451 350 425 q 251 531 307 476 l 149 633 q 29 892 29 750 q 99 1124 29 1044 q 304 1204 169 1204 q 536 1119 465 1204 q 607 851 607 1033 l 364 851 l 363 933 q 349 971 363 957 q 313 985 336 985 q 271 969 285 985 q 257 928 257 954 q 324 807 257 869 l 463 674 q 543 584 511 626 q 594 484 575 542 q 614 347 614 426 q 549 80 614 171 q 336 -11 485 -11 m 179 1256 l 17 1529 l 260 1529 l 318 1335 l 376 1529 l 619 1529 l 456 1256 l 179 1256 z "},"Ş":{"ha":640,"x_min":29,"x_max":614,"o":"m 614 347 q 558 93 614 183 q 378 -10 503 3 q 473 -133 439 -67 q 507 -262 507 -200 q 456 -382 507 -336 q 304 -428 406 -428 q 169 -401 235 -428 l 169 -250 q 250 -265 213 -265 q 329 -185 329 -265 q 312 -102 329 -149 q 263 -7 294 -56 q 85 90 140 10 q 29 329 29 171 l 29 446 l 264 446 l 264 297 q 321 208 264 208 q 365 227 353 208 q 378 290 378 246 q 364 387 378 349 q 328 451 350 425 q 251 531 307 476 l 149 633 q 29 892 29 750 q 99 1124 29 1044 q 304 1204 169 1204 q 536 1119 465 1204 q 607 851 607 1033 l 364 851 l 363 933 q 349 971 363 957 q 313 985 336 985 q 271 969 285 985 q 257 928 257 954 q 324 807 257 869 l 463 674 q 543 584 511 626 q 594 484 575 542 q 614 347 614 426 z "},"Ŝ":{"ha":640,"x_min":17,"x_max":619,"o":"m 336 -11 q 101 69 174 -11 q 29 329 29 150 l 29 446 l 264 446 l 264 297 q 321 208 264 208 q 365 227 353 208 q 378 290 378 246 q 364 387 378 349 q 328 451 350 425 q 251 531 307 476 l 149 633 q 29 892 29 750 q 99 1124 29 1044 q 304 1204 169 1204 q 536 1119 465 1204 q 607 851 607 1033 l 364 851 l 363 933 q 349 971 363 957 q 313 985 336 985 q 271 969 285 985 q 257 928 257 954 q 324 807 257 869 l 463 674 q 543 584 511 626 q 594 484 575 542 q 614 347 614 426 q 549 80 614 171 q 336 -11 485 -11 m 17 1256 l 179 1529 l 456 1529 l 619 1256 l 376 1256 l 318 1449 l 260 1256 l 17 1256 z "},"Ș":{"ha":640,"x_min":29,"x_max":614,"o":"m 336 -11 q 101 69 174 -11 q 29 329 29 150 l 29 446 l 264 446 l 264 297 q 321 208 264 208 q 365 227 353 208 q 378 290 378 246 q 364 387 378 349 q 328 451 350 425 q 251 531 307 476 l 149 633 q 29 892 29 750 q 99 1124 29 1044 q 304 1204 169 1204 q 536 1119 465 1204 q 607 851 607 1033 l 364 851 l 363 933 q 349 971 363 957 q 313 985 336 985 q 271 969 285 985 q 257 928 257 954 q 324 807 257 869 l 463 674 q 543 584 511 626 q 594 484 575 542 q 614 347 614 426 q 549 80 614 171 q 336 -11 485 -11 m 229 -436 l 274 -276 l 188 -276 l 188 -74 l 440 -74 l 440 -269 l 372 -436 l 229 -436 z "},"ẞ":{"ha":692,"x_min":39,"x_max":657,"o":"m 546 700 q 633 593 610 672 q 657 365 657 514 q 633 157 657 236 q 553 39 610 78 q 394 0 496 0 l 324 0 l 324 190 q 421 271 421 190 l 421 458 q 399 536 421 514 q 321 558 376 558 l 321 707 l 418 985 q 349 997 386 997 q 276 921 276 997 l 276 0 l 39 0 l 39 951 q 115 1142 39 1078 q 333 1206 190 1206 q 503 1181 428 1206 q 633 1117 579 1156 l 633 953 l 546 700 z "},"Ə":{"ha":678,"x_min":43,"x_max":632,"o":"m 339 -11 q 126 61 207 -11 q 46 269 46 133 l 46 604 l 396 604 l 396 894 q 382 963 396 942 q 339 985 368 985 q 283 894 283 985 l 283 738 l 43 738 l 43 906 q 344 1204 43 1204 q 554 1123 476 1204 q 632 897 632 1042 l 632 347 q 561 79 632 169 q 339 -11 490 -11 m 339 208 q 383 231 371 208 q 396 297 396 254 l 396 421 l 283 421 l 283 300 q 297 228 283 249 q 339 208 310 208 z "},"T":{"ha":550,"x_min":14,"x_max":536,"o":"m 156 0 l 156 964 l 14 964 l 14 1193 l 536 1193 l 536 964 l 394 964 l 394 0 l 156 0 z "},"Ŧ":{"ha":550,"x_min":14,"x_max":536,"o":"m 536 964 l 394 964 l 394 640 l 493 640 l 493 538 l 394 538 l 394 0 l 156 0 l 156 538 l 51 538 l 51 640 l 156 640 l 156 964 l 14 964 l 14 1193 l 536 1193 l 536 964 z "},"Ť":{"ha":550,"x_min":-26,"x_max":576,"o":"m 156 0 l 156 964 l 14 964 l 14 1193 l 536 1193 l 536 964 l 394 964 l 394 0 l 156 0 m 136 1256 l -26 1529 l 217 1529 l 275 1335 l 333 1529 l 576 1529 l 413 1256 l 136 1256 z "},"Ţ":{"ha":550,"x_min":14,"x_max":536,"o":"m 156 0 l 156 964 l 14 964 l 14 1193 l 536 1193 l 536 964 l 394 964 l 394 0 l 156 0 m 257 -428 q 122 -401 188 -428 l 122 -250 q 203 -265 165 -265 q 282 -185 282 -265 q 263 -99 282 -147 q 211 0 244 -50 l 321 0 q 423 -128 386 -58 q 460 -262 460 -199 q 409 -382 460 -336 q 257 -428 358 -428 z "},"Ț":{"ha":550,"x_min":14,"x_max":536,"o":"m 156 0 l 156 964 l 14 964 l 14 1193 l 536 1193 l 536 964 l 394 964 l 394 0 l 156 0 m 182 -436 l 226 -276 l 140 -276 l 140 -74 l 393 -74 l 393 -269 l 325 -436 l 182 -436 z "},"U":{"ha":658,"x_min":39,"x_max":619,"o":"m 329 -11 q 110 72 182 -11 q 39 319 39 156 l 39 1193 l 271 1193 l 271 329 q 282 240 271 272 q 329 208 293 208 q 376 240 365 208 q 388 329 388 271 l 388 1193 l 619 1193 l 619 319 q 548 72 619 156 q 329 -11 476 -11 z "},"Ú":{"ha":658,"x_min":39,"x_max":619,"o":"m 329 -11 q 110 72 182 -11 q 39 319 39 156 l 39 1193 l 271 1193 l 271 329 q 282 240 271 272 q 329 208 293 208 q 376 240 365 208 q 388 329 388 271 l 388 1193 l 619 1193 l 619 319 q 548 72 619 156 q 329 -11 476 -11 m 167 1229 l 167 1381 l 489 1529 l 489 1293 l 167 1229 z "},"Ŭ":{"ha":658,"x_min":39,"x_max":619,"o":"m 329 -11 q 110 72 182 -11 q 39 319 39 156 l 39 1193 l 271 1193 l 271 329 q 282 240 271 272 q 329 208 293 208 q 376 240 365 208 q 388 329 388 271 l 388 1193 l 619 1193 l 619 319 q 548 72 619 156 q 329 -11 476 -11 m 332 1256 q 136 1308 207 1256 q 65 1467 65 1360 q 68 1496 65 1476 l 242 1494 q 262 1436 242 1456 q 333 1417 282 1417 q 404 1436 383 1417 q 425 1494 425 1456 l 599 1496 l 600 1472 q 529 1309 600 1363 q 332 1256 458 1256 z "},"Û":{"ha":658,"x_min":28,"x_max":631,"o":"m 329 -11 q 110 72 182 -11 q 39 319 39 156 l 39 1193 l 271 1193 l 271 329 q 282 240 271 272 q 329 208 293 208 q 376 240 365 208 q 388 329 388 271 l 388 1193 l 619 1193 l 619 319 q 548 72 619 156 q 329 -11 476 -11 m 28 1256 l 190 1529 l 467 1529 l 631 1256 l 388 1256 l 329 1449 l 271 1256 l 28 1256 z "},"Ȕ":{"ha":658,"x_min":-14,"x_max":619,"o":"m 329 -11 q 110 72 182 -11 q 39 319 39 156 l 39 1193 l 271 1193 l 271 329 q 282 240 271 272 q 329 208 293 208 q 376 240 365 208 q 388 329 388 271 l 388 1193 l 619 1193 l 619 319 q 548 72 619 156 q 329 -11 476 -11 m 182 1251 l -14 1543 l 144 1617 l 294 1292 l 182 1251 m 388 1251 l 218 1543 l 375 1617 l 500 1292 l 388 1251 z "},"Ü":{"ha":658,"x_min":39,"x_max":619,"o":"m 329 -11 q 110 72 182 -11 q 39 319 39 156 l 39 1193 l 271 1193 l 271 329 q 282 240 271 272 q 329 208 293 208 q 376 240 365 208 q 388 329 388 271 l 388 1193 l 619 1193 l 619 319 q 548 72 619 156 q 329 -11 476 -11 m 39 1261 l 39 1463 l 282 1463 l 282 1261 l 39 1261 m 368 1261 l 368 1463 l 610 1463 l 610 1261 l 368 1261 z "},"Ụ":{"ha":658,"x_min":39,"x_max":619,"o":"m 329 -11 q 110 72 182 -11 q 39 319 39 156 l 39 1193 l 271 1193 l 271 329 q 282 240 271 272 q 329 208 293 208 q 376 240 365 208 q 388 329 388 271 l 388 1193 l 619 1193 l 619 319 q 548 72 619 156 q 329 -11 476 -11 m 208 -283 l 208 -81 l 451 -81 l 451 -283 l 208 -283 z "},"Ù":{"ha":658,"x_min":39,"x_max":619,"o":"m 329 -11 q 110 72 182 -11 q 39 319 39 156 l 39 1193 l 271 1193 l 271 329 q 282 240 271 272 q 329 208 293 208 q 376 240 365 208 q 388 329 388 271 l 388 1193 l 619 1193 l 619 319 q 548 72 619 156 q 329 -11 476 -11 m 490 1229 l 168 1293 l 168 1529 l 490 1381 l 490 1229 z "},"Ủ":{"ha":658,"x_min":39,"x_max":619,"o":"m 329 -11 q 110 72 182 -11 q 39 319 39 156 l 39 1193 l 271 1193 l 271 329 q 282 240 271 272 q 329 208 293 208 q 376 240 365 208 q 388 329 388 271 l 388 1193 l 619 1193 l 619 319 q 548 72 619 156 q 329 -11 476 -11 m 238 1331 q 299 1366 278 1346 q 319 1418 319 1386 q 250 1482 319 1482 q 189 1472 217 1482 l 189 1594 q 314 1617 251 1617 q 447 1574 399 1617 q 494 1454 494 1531 q 310 1246 494 1303 l 238 1331 z "},"Ư":{"ha":790,"x_min":39,"x_max":775,"o":"m 775 1294 l 775 1283 q 733 1132 775 1188 q 619 1060 692 1076 l 619 319 q 548 72 619 156 q 329 -11 476 -11 q 110 72 182 -11 q 39 319 39 156 l 39 1193 l 271 1193 l 271 329 q 282 240 271 272 q 329 208 293 208 q 376 240 365 208 q 388 329 388 271 l 388 1193 l 508 1193 q 586 1278 586 1193 l 586 1293 l 775 1294 z "},"Ứ":{"ha":790,"x_min":39,"x_max":775,"o":"m 775 1294 l 775 1283 q 733 1132 775 1188 q 619 1060 692 1076 l 619 319 q 548 72 619 156 q 329 -11 476 -11 q 110 72 182 -11 q 39 319 39 156 l 39 1193 l 271 1193 l 271 329 q 282 240 271 272 q 329 208 293 208 q 376 240 365 208 q 388 329 388 271 l 388 1193 l 508 1193 q 586 1278 586 1193 l 586 1293 l 775 1294 m 168 1276 l 168 1408 l 490 1522 l 490 1328 l 168 1276 z "},"Ự":{"ha":790,"x_min":39,"x_max":775,"o":"m 775 1294 l 775 1283 q 733 1132 775 1188 q 619 1060 692 1076 l 619 319 q 548 72 619 156 q 329 -11 476 -11 q 110 72 182 -11 q 39 319 39 156 l 39 1193 l 271 1193 l 271 329 q 282 240 271 272 q 329 208 293 208 q 376 240 365 208 q 388 329 388 271 l 388 1193 l 508 1193 q 586 1278 586 1193 l 586 1293 l 775 1294 m 208 -283 l 208 -81 l 451 -81 l 451 -283 l 208 -283 z "},"Ừ":{"ha":790,"x_min":39,"x_max":775,"o":"m 775 1294 l 775 1283 q 733 1132 775 1188 q 619 1060 692 1076 l 619 319 q 548 72 619 156 q 329 -11 476 -11 q 110 72 182 -11 q 39 319 39 156 l 39 1193 l 271 1193 l 271 329 q 282 240 271 272 q 329 208 293 208 q 376 240 365 208 q 388 329 388 271 l 388 1193 l 508 1193 q 586 1278 586 1193 l 586 1293 l 775 1294 m 490 1276 l 168 1328 l 168 1522 l 490 1408 l 490 1276 z "},"Ử":{"ha":790,"x_min":39,"x_max":775,"o":"m 775 1294 l 775 1283 q 733 1132 775 1188 q 619 1060 692 1076 l 619 319 q 548 72 619 156 q 329 -11 476 -11 q 110 72 182 -11 q 39 319 39 156 l 39 1193 l 271 1193 l 271 329 q 282 240 271 272 q 329 208 293 208 q 376 240 365 208 q 388 329 388 271 l 388 1193 l 508 1193 q 586 1278 586 1193 l 586 1293 l 775 1294 m 238 1389 q 299 1424 278 1404 q 319 1476 319 1444 q 250 1540 319 1540 q 189 1531 217 1540 l 189 1653 q 314 1675 251 1675 q 447 1632 399 1675 q 494 1513 494 1589 q 310 1304 494 1361 l 238 1389 z "},"Ữ":{"ha":790,"x_min":39,"x_max":775,"o":"m 775 1294 l 775 1283 q 733 1132 775 1188 q 619 1060 692 1076 l 619 319 q 548 72 619 156 q 329 -11 476 -11 q 110 72 182 -11 q 39 319 39 156 l 39 1193 l 271 1193 l 271 329 q 282 240 271 272 q 329 208 293 208 q 376 240 365 208 q 388 329 388 271 l 388 1193 l 508 1193 q 586 1278 586 1193 l 586 1293 l 775 1294 m 442 1307 q 370 1317 403 1307 q 292 1344 338 1326 q 249 1361 269 1354 q 213 1368 228 1368 q 150 1322 172 1368 l 49 1375 q 115 1478 79 1443 q 217 1513 150 1513 q 282 1504 253 1513 q 358 1478 311 1496 q 433 1456 408 1456 q 468 1467 453 1456 q 497 1507 483 1479 l 610 1471 q 570 1383 589 1417 q 520 1328 551 1350 q 442 1307 489 1307 z "},"Ű":{"ha":658,"x_min":39,"x_max":681,"o":"m 329 -11 q 110 72 182 -11 q 39 319 39 156 l 39 1193 l 271 1193 l 271 329 q 282 240 271 272 q 329 208 293 208 q 376 240 365 208 q 388 329 388 271 l 388 1193 l 619 1193 l 619 319 q 548 72 619 156 q 329 -11 476 -11 m 281 1265 l 168 1306 l 292 1629 l 449 1557 l 281 1265 m 485 1265 l 372 1306 l 522 1629 l 681 1557 l 485 1265 z "},"Ȗ":{"ha":658,"x_min":39,"x_max":619,"o":"m 329 -11 q 110 72 182 -11 q 39 319 39 156 l 39 1193 l 271 1193 l 271 329 q 282 240 271 272 q 329 208 293 208 q 376 240 365 208 q 388 329 388 271 l 388 1193 l 619 1193 l 619 319 q 548 72 619 156 q 329 -11 476 -11 m 78 1267 q 75 1294 75 1286 q 140 1454 75 1403 q 328 1506 206 1506 q 517 1453 453 1506 q 582 1290 582 1401 q 581 1267 582 1276 l 421 1267 q 396 1335 421 1311 q 329 1358 371 1358 q 263 1335 288 1358 q 238 1267 238 1311 l 78 1267 z "},"Ū":{"ha":658,"x_min":39,"x_max":619,"o":"m 329 -11 q 110 72 182 -11 q 39 319 39 156 l 39 1193 l 271 1193 l 271 329 q 282 240 271 272 q 329 208 293 208 q 376 240 365 208 q 388 329 388 271 l 388 1193 l 619 1193 l 619 319 q 548 72 619 156 q 329 -11 476 -11 m 106 1275 l 106 1378 l 547 1378 l 547 1275 l 106 1275 z "},"Ų":{"ha":658,"x_min":39,"x_max":619,"o":"m 619 1193 l 619 319 q 570 101 619 182 q 418 -3 521 21 l 397 -28 q 333 -112 354 -76 q 311 -189 311 -147 q 331 -246 311 -226 q 389 -265 351 -265 q 468 -250 422 -265 l 468 -401 q 333 -428 406 -428 q 215 -403 269 -428 q 129 -332 161 -378 q 97 -224 97 -286 q 265 -7 97 -104 q 39 319 39 28 l 39 1193 l 271 1193 l 271 329 q 282 240 271 272 q 329 208 293 208 q 376 240 365 208 q 388 329 388 271 l 388 1193 l 619 1193 z "},"Ů":{"ha":658,"x_min":39,"x_max":619,"o":"m 329 -11 q 110 72 182 -11 q 39 319 39 156 l 39 1193 l 271 1193 l 271 329 q 282 240 271 272 q 329 208 293 208 q 376 240 365 208 q 388 329 388 271 l 388 1193 l 619 1193 l 619 319 q 548 72 619 156 q 329 -11 476 -11 m 329 1247 q 154 1309 219 1247 q 89 1478 89 1371 q 154 1646 89 1585 q 329 1707 219 1707 q 504 1646 439 1707 q 569 1478 569 1585 q 504 1309 569 1371 q 329 1247 439 1247 m 329 1371 q 400 1401 374 1371 q 426 1478 426 1432 q 400 1553 426 1524 q 329 1583 374 1583 q 260 1553 286 1583 q 233 1478 233 1522 q 260 1401 233 1432 q 329 1371 286 1371 z "},"Ũ":{"ha":658,"x_min":39,"x_max":619,"o":"m 329 -11 q 110 72 182 -11 q 39 319 39 156 l 39 1193 l 271 1193 l 271 329 q 282 240 271 272 q 329 208 293 208 q 376 240 365 208 q 388 329 388 271 l 388 1193 l 619 1193 l 619 319 q 548 72 619 156 q 329 -11 476 -11 m 442 1269 q 370 1279 403 1269 q 292 1307 338 1289 q 249 1324 269 1317 q 213 1331 228 1331 q 150 1285 172 1331 l 49 1338 q 115 1451 79 1413 q 217 1489 150 1489 q 282 1481 253 1489 q 358 1454 311 1472 q 433 1432 408 1432 q 497 1482 472 1432 l 610 1446 q 570 1352 589 1388 q 520 1293 551 1317 q 442 1269 489 1269 z "},"V":{"ha":651,"x_min":15,"x_max":636,"o":"m 163 0 l 15 1194 l 243 1194 l 331 382 l 408 1194 l 636 1194 l 489 0 l 163 0 z "},"W":{"ha":989,"x_min":18,"x_max":971,"o":"m 146 0 l 18 1193 l 251 1193 l 318 440 l 385 1193 l 607 1193 l 671 440 l 735 1193 l 971 1193 l 840 0 l 554 0 l 494 575 l 438 0 l 146 0 z "},"Ẃ":{"ha":989,"x_min":18,"x_max":971,"o":"m 146 0 l 18 1193 l 251 1193 l 318 440 l 385 1193 l 607 1193 l 671 440 l 735 1193 l 971 1193 l 840 0 l 554 0 l 494 575 l 438 0 l 146 0 m 342 1229 l 342 1381 l 664 1529 l 664 1293 l 342 1229 z "},"Ŵ":{"ha":989,"x_min":18,"x_max":971,"o":"m 146 0 l 18 1193 l 251 1193 l 318 440 l 385 1193 l 607 1193 l 671 440 l 735 1193 l 971 1193 l 840 0 l 554 0 l 494 575 l 438 0 l 146 0 m 203 1256 l 365 1529 l 642 1529 l 806 1256 l 563 1256 l 504 1449 l 446 1256 l 203 1256 z "},"Ẅ":{"ha":989,"x_min":18,"x_max":971,"o":"m 146 0 l 18 1193 l 251 1193 l 318 440 l 385 1193 l 607 1193 l 671 440 l 735 1193 l 971 1193 l 840 0 l 554 0 l 494 575 l 438 0 l 146 0 m 214 1261 l 214 1463 l 457 1463 l 457 1261 l 214 1261 m 543 1261 l 543 1463 l 785 1463 l 785 1261 l 543 1261 z "},"Ẁ":{"ha":989,"x_min":18,"x_max":971,"o":"m 146 0 l 18 1193 l 251 1193 l 318 440 l 385 1193 l 607 1193 l 671 440 l 735 1193 l 971 1193 l 840 0 l 554 0 l 494 575 l 438 0 l 146 0 m 665 1229 l 343 1293 l 343 1529 l 665 1381 l 665 1229 z "},"X":{"ha":672,"x_min":18,"x_max":654,"o":"m 18 0 l 146 633 l 44 1194 l 278 1194 l 340 783 l 394 1194 l 629 1194 l 526 633 l 654 0 l 413 0 l 338 467 l 261 0 l 18 0 z "},"Y":{"ha":619,"x_min":7,"x_max":613,"o":"m 197 0 l 197 393 l 7 1193 l 243 1193 l 310 789 l 376 1193 l 613 1193 l 422 393 l 422 0 l 197 0 z "},"Ý":{"ha":619,"x_min":7,"x_max":613,"o":"m 197 0 l 197 393 l 7 1193 l 243 1193 l 310 789 l 376 1193 l 613 1193 l 422 393 l 422 0 l 197 0 m 147 1229 l 147 1381 l 469 1529 l 469 1293 l 147 1229 z "},"Ŷ":{"ha":619,"x_min":7,"x_max":613,"o":"m 197 0 l 197 393 l 7 1193 l 243 1193 l 310 789 l 376 1193 l 613 1193 l 422 393 l 422 0 l 197 0 m 8 1256 l 171 1529 l 447 1529 l 611 1256 l 368 1256 l 310 1449 l 251 1256 l 8 1256 z "},"Ÿ":{"ha":619,"x_min":7,"x_max":613,"o":"m 197 0 l 197 393 l 7 1193 l 243 1193 l 310 789 l 376 1193 l 613 1193 l 422 393 l 422 0 l 197 0 m 18 1261 l 18 1463 l 261 1463 l 261 1261 l 18 1261 m 347 1261 l 347 1463 l 589 1463 l 589 1261 l 347 1261 z "},"Ỵ":{"ha":619,"x_min":7,"x_max":613,"o":"m 197 0 l 197 393 l 7 1193 l 243 1193 l 310 789 l 376 1193 l 613 1193 l 422 393 l 422 0 l 197 0 m 189 -283 l 189 -81 l 432 -81 l 432 -283 l 189 -283 z "},"Ỳ":{"ha":619,"x_min":7,"x_max":613,"o":"m 197 0 l 197 393 l 7 1193 l 243 1193 l 310 789 l 376 1193 l 613 1193 l 422 393 l 422 0 l 197 0 m 471 1229 l 149 1293 l 149 1529 l 471 1381 l 471 1229 z "},"Ỷ":{"ha":619,"x_min":7,"x_max":613,"o":"m 197 0 l 197 393 l 7 1193 l 243 1193 l 310 789 l 376 1193 l 613 1193 l 422 393 l 422 0 l 197 0 m 218 1331 q 279 1366 258 1346 q 300 1418 300 1386 q 231 1482 300 1482 q 169 1472 197 1482 l 169 1594 q 294 1617 232 1617 q 427 1574 379 1617 q 475 1454 475 1531 q 290 1246 475 1303 l 218 1331 z "},"Ȳ":{"ha":619,"x_min":7,"x_max":613,"o":"m 197 0 l 197 393 l 7 1193 l 243 1193 l 310 789 l 376 1193 l 613 1193 l 422 393 l 422 0 l 197 0 m 86 1275 l 86 1378 l 528 1378 l 528 1275 l 86 1275 z "},"Ỹ":{"ha":619,"x_min":7,"x_max":613,"o":"m 197 0 l 197 393 l 7 1193 l 243 1193 l 310 789 l 376 1193 l 613 1193 l 422 393 l 422 0 l 197 0 m 422 1269 q 351 1279 383 1269 q 272 1307 318 1289 q 229 1324 250 1317 q 193 1331 208 1331 q 131 1285 153 1331 l 29 1338 q 95 1451 60 1413 q 197 1489 131 1489 q 263 1481 233 1489 q 339 1454 292 1472 q 414 1432 389 1432 q 478 1482 453 1432 l 590 1446 q 551 1352 569 1388 q 501 1293 532 1317 q 422 1269 469 1269 z "},"Z":{"ha":569,"x_min":22,"x_max":547,"o":"m 22 0 l 22 217 l 294 974 l 49 974 l 49 1193 l 547 1193 l 547 985 l 268 219 l 535 219 l 535 0 l 22 0 z "},"Ź":{"ha":569,"x_min":22,"x_max":547,"o":"m 22 0 l 22 217 l 294 974 l 49 974 l 49 1193 l 547 1193 l 547 985 l 268 219 l 535 219 l 535 0 l 22 0 m 135 1229 l 135 1381 l 457 1529 l 457 1293 l 135 1229 z "},"Ž":{"ha":569,"x_min":-4,"x_max":599,"o":"m 22 0 l 22 217 l 294 974 l 49 974 l 49 1193 l 547 1193 l 547 985 l 268 219 l 535 219 l 535 0 l 22 0 m 158 1256 l -4 1529 l 239 1529 l 297 1335 l 356 1529 l 599 1529 l 435 1256 l 158 1256 z "},"Ż":{"ha":569,"x_min":22,"x_max":547,"o":"m 22 0 l 22 217 l 294 974 l 49 974 l 49 1193 l 547 1193 l 547 985 l 268 219 l 535 219 l 535 0 l 22 0 m 176 1256 l 176 1458 l 419 1458 l 419 1256 l 176 1256 z "},"Ǎ":{"ha":674,"x_min":21,"x_max":654,"o":"m 21 0 l 136 1193 l 540 1193 l 654 0 l 428 0 l 411 193 l 267 193 l 253 0 l 21 0 m 285 383 l 393 383 l 340 990 l 329 990 l 285 383 m 197 1256 l 35 1529 l 278 1529 l 336 1335 l 394 1529 l 638 1529 l 474 1256 l 197 1256 z "},"Ǐ":{"ha":315,"x_min":-144,"x_max":458,"o":"m 42 0 l 42 1193 l 272 1193 l 272 0 l 42 0 m 18 1256 l -144 1529 l 99 1529 l 157 1335 l 215 1529 l 458 1529 l 294 1256 l 18 1256 z "},"Ǒ":{"ha":675,"x_min":38,"x_max":640,"o":"m 338 -11 q 118 77 193 -11 q 43 325 43 165 l 43 893 q 118 1126 43 1047 q 338 1204 193 1204 q 557 1126 482 1204 q 632 893 632 1047 l 632 325 q 557 76 632 164 q 338 -11 482 -11 m 338 208 q 381 236 369 208 q 392 314 392 264 l 392 897 q 381 960 392 936 q 339 985 371 985 q 279 894 279 985 l 279 313 q 292 235 279 261 q 338 208 304 208 m 200 1256 l 38 1529 l 281 1529 l 339 1335 l 397 1529 l 640 1529 l 476 1256 l 200 1256 z "},"Ǔ":{"ha":658,"x_min":28,"x_max":631,"o":"m 329 -11 q 110 72 182 -11 q 39 319 39 156 l 39 1193 l 271 1193 l 271 329 q 282 240 271 272 q 329 208 293 208 q 376 240 365 208 q 388 329 388 271 l 388 1193 l 619 1193 l 619 319 q 548 72 619 156 q 329 -11 476 -11 m 190 1256 l 28 1529 l 271 1529 l 329 1335 l 388 1529 l 631 1529 l 467 1256 l 190 1256 z "},"Ǩ":{"ha":656,"x_min":46,"x_max":668,"o":"m 53 0 l 53 1193 l 289 1193 l 289 715 l 400 1193 l 640 1193 l 507 647 l 668 0 l 421 0 l 290 578 l 290 0 l 53 0 m 208 1256 l 46 1529 l 289 1529 l 347 1335 l 406 1529 l 649 1529 l 485 1256 l 208 1256 z "},"Ǳ":{"ha":1254,"x_min":53,"x_max":1232,"o":"m 53 1193 l 382 1193 q 574 1122 510 1193 q 639 913 638 1051 l 642 354 q 581 89 643 178 q 374 0 518 0 l 53 0 l 53 1193 m 335 211 q 400 275 400 211 l 400 890 q 394 951 400 931 q 371 978 388 971 q 319 985 354 985 l 293 985 l 293 211 l 335 211 m 707 0 l 707 217 l 979 974 l 733 974 l 733 1193 l 1232 1193 l 1232 985 l 953 219 l 1219 219 l 1219 0 l 707 0 z "},"ǲ":{"ha":1221,"x_min":53,"x_max":1211,"o":"m 53 1193 l 382 1193 q 574 1122 510 1193 q 639 913 638 1051 l 642 354 q 581 89 643 178 q 374 0 518 0 l 53 0 l 53 1193 m 335 211 q 400 275 400 211 l 400 890 q 394 951 400 931 q 371 978 388 971 q 319 985 354 985 l 293 985 l 293 211 l 335 211 m 704 0 l 704 149 l 957 825 l 715 825 l 715 1017 l 1208 1017 l 1208 851 l 969 182 l 1211 182 l 1211 0 l 704 0 z "},"Ǵ":{"ha":674,"x_min":43,"x_max":635,"o":"m 299 -11 q 106 80 169 -11 q 43 356 43 171 l 43 869 q 117 1119 43 1035 q 336 1204 190 1204 q 519 1157 454 1204 q 610 1019 585 1110 q 635 788 635 929 l 401 788 l 401 894 q 390 961 401 938 q 347 985 378 985 q 279 896 279 985 l 279 318 q 293 236 279 264 q 342 208 307 208 q 390 236 376 208 q 404 318 404 264 l 404 489 l 340 489 l 340 694 l 632 694 l 632 0 l 536 0 l 496 100 q 299 -11 432 -11 m 174 1229 l 174 1381 l 496 1529 l 496 1293 l 174 1229 z "},"Ǹ":{"ha":692,"x_min":53,"x_max":639,"o":"m 53 0 l 53 1193 l 299 1193 l 408 622 l 408 1193 l 639 1193 l 639 0 l 406 0 l 286 597 l 286 0 l 53 0 m 521 1229 l 199 1293 l 199 1529 l 521 1381 l 521 1229 z "},"Ȟ":{"ha":693,"x_min":46,"x_max":649,"o":"m 53 0 l 53 1193 l 290 1193 l 290 767 l 403 767 l 403 1193 l 640 1193 l 640 0 l 403 0 l 403 542 l 290 542 l 290 0 l 53 0 m 208 1256 l 46 1529 l 289 1529 l 347 1335 l 406 1529 l 649 1529 l 485 1256 l 208 1256 z "},"Ȧ":{"ha":674,"x_min":21,"x_max":654,"o":"m 21 0 l 136 1193 l 540 1193 l 654 0 l 428 0 l 411 193 l 267 193 l 253 0 l 21 0 m 285 383 l 393 383 l 340 990 l 329 990 l 285 383 m 215 1256 l 215 1458 l 458 1458 l 458 1256 l 215 1256 z "},"Ȩ":{"ha":572,"x_min":53,"x_max":546,"o":"m 53 0 l 53 1193 l 531 1193 l 531 963 l 296 963 l 296 731 l 521 731 l 521 506 l 296 506 l 296 232 l 546 232 l 546 0 l 53 0 m 314 -428 q 179 -401 244 -428 l 179 -250 q 260 -265 222 -265 q 339 -185 339 -265 q 320 -99 339 -147 q 268 0 301 -50 l 378 0 q 480 -128 443 -58 q 517 -262 517 -199 q 466 -382 517 -336 q 314 -428 415 -428 z "},"Ȯ":{"ha":675,"x_min":43,"x_max":632,"o":"m 338 -11 q 118 77 193 -11 q 43 325 43 165 l 43 893 q 118 1126 43 1047 q 338 1204 193 1204 q 557 1126 482 1204 q 632 893 632 1047 l 632 325 q 557 76 632 164 q 338 -11 482 -11 m 338 208 q 381 236 369 208 q 392 314 392 264 l 392 897 q 381 960 392 936 q 339 985 371 985 q 279 894 279 985 l 279 313 q 292 235 279 261 q 338 208 304 208 m 218 1256 l 218 1458 l 461 1458 l 461 1256 l 218 1256 z "},"Ḃ":{"ha":665,"x_min":53,"x_max":639,"o":"m 53 1193 l 376 1193 q 566 1129 507 1193 q 625 921 625 1065 l 625 868 q 503 664 625 697 q 608 574 578 644 q 639 386 639 503 q 582 98 639 196 q 376 0 525 0 l 53 0 l 53 1193 m 335 744 q 376 767 365 744 q 388 832 388 790 l 388 951 q 336 1010 388 1010 l 286 1010 l 286 744 l 335 744 m 310 210 q 403 299 403 210 l 403 447 q 387 529 403 501 q 331 557 371 557 l 286 557 l 286 211 l 310 210 m 185 1256 l 185 1458 l 428 1458 l 428 1256 l 185 1256 z "},"Ḋ":{"ha":685,"x_min":53,"x_max":642,"o":"m 53 1193 l 382 1193 q 574 1122 510 1193 q 639 913 638 1051 l 642 354 q 581 89 643 178 q 374 0 518 0 l 53 0 l 53 1193 m 335 211 q 400 275 400 211 l 400 890 q 394 951 400 931 q 371 978 388 971 q 319 985 354 985 l 293 985 l 293 211 l 335 211 m 221 1256 l 221 1458 l 464 1458 l 464 1256 l 221 1256 z "},"Ḟ":{"ha":554,"x_min":53,"x_max":531,"o":"m 53 0 l 53 1193 l 531 1193 l 531 961 l 293 961 l 293 771 l 518 771 l 518 542 l 293 542 l 293 0 l 53 0 m 186 1256 l 186 1458 l 429 1458 l 429 1256 l 186 1256 z "},"Ṁ":{"ha":1036,"x_min":53,"x_max":983,"o":"m 53 0 l 53 1193 l 417 1193 l 517 465 l 617 1193 l 983 1193 l 983 0 l 765 0 l 765 860 l 628 0 l 414 0 l 268 860 l 268 0 l 53 0 m 396 1256 l 396 1458 l 639 1458 l 639 1256 l 396 1256 z "},"Ṗ":{"ha":656,"x_min":53,"x_max":633,"o":"m 53 1193 l 368 1193 q 572 1101 511 1193 q 633 831 633 1008 q 579 563 633 653 q 385 472 525 472 l 288 472 l 288 0 l 53 0 l 53 1193 m 301 688 q 365 703 344 688 q 391 749 385 719 q 397 835 397 779 q 381 943 397 910 q 314 976 364 976 l 288 976 l 288 688 l 301 688 m 207 1256 l 207 1458 l 450 1458 l 450 1256 l 207 1256 z "},"Ṡ":{"ha":640,"x_min":29,"x_max":614,"o":"m 336 -11 q 101 69 174 -11 q 29 329 29 150 l 29 446 l 264 446 l 264 297 q 321 208 264 208 q 365 227 353 208 q 378 290 378 246 q 364 387 378 349 q 328 451 350 425 q 251 531 307 476 l 149 633 q 29 892 29 750 q 99 1124 29 1044 q 304 1204 169 1204 q 536 1119 465 1204 q 607 851 607 1033 l 364 851 l 363 933 q 349 971 363 957 q 313 985 336 985 q 271 969 285 985 q 257 928 257 954 q 324 807 257 869 l 463 674 q 543 584 511 626 q 594 484 575 542 q 614 347 614 426 q 549 80 614 171 q 336 -11 485 -11 m 197 1256 l 197 1458 l 440 1458 l 440 1256 l 197 1256 z "},"Ṫ":{"ha":550,"x_min":14,"x_max":536,"o":"m 156 0 l 156 964 l 14 964 l 14 1193 l 536 1193 l 536 964 l 394 964 l 394 0 l 156 0 m 154 1256 l 154 1458 l 397 1458 l 397 1256 l 154 1256 z "},"a":{"ha":671,"x_min":28,"x_max":626,"o":"m 233 -11 q 72 67 115 -11 q 28 292 28 146 q 59 475 28 411 q 146 569 90 539 q 315 635 201 599 l 382 657 l 382 660 l 382 761 q 366 823 382 801 q 328 844 350 844 q 294 826 308 844 q 279 778 279 808 l 279 717 l 43 717 l 43 750 q 113 964 43 900 q 342 1028 183 1028 q 547 962 468 1028 q 626 775 626 896 l 626 0 l 385 0 l 385 121 q 327 24 367 58 q 233 -11 288 -11 m 329 178 q 369 201 357 178 q 381 257 381 224 l 381 540 q 301 488 326 519 q 275 399 275 456 l 275 268 q 329 178 275 178 z "},"á":{"ha":671,"x_min":28,"x_max":626,"o":"m 233 -11 q 72 67 115 -11 q 28 292 28 146 q 59 475 28 411 q 146 569 90 539 q 315 635 201 599 l 382 657 l 382 660 l 382 761 q 366 823 382 801 q 328 844 350 844 q 294 826 308 844 q 279 778 279 808 l 279 717 l 43 717 l 43 750 q 113 964 43 900 q 342 1028 183 1028 q 547 962 468 1028 q 626 775 626 896 l 626 0 l 385 0 l 385 121 q 327 24 367 58 q 233 -11 288 -11 m 329 178 q 369 201 357 178 q 381 257 381 224 l 381 540 q 301 488 326 519 q 275 399 275 456 l 275 268 q 329 178 275 178 m 179 1064 l 179 1215 l 501 1364 l 501 1128 l 179 1064 z "},"ă":{"ha":671,"x_min":28,"x_max":626,"o":"m 233 -11 q 72 67 115 -11 q 28 292 28 146 q 59 475 28 411 q 146 569 90 539 q 315 635 201 599 l 382 657 l 382 660 l 382 761 q 366 823 382 801 q 328 844 350 844 q 294 826 308 844 q 279 778 279 808 l 279 717 l 43 717 l 43 750 q 113 964 43 900 q 342 1028 183 1028 q 547 962 468 1028 q 626 775 626 896 l 626 0 l 385 0 l 385 121 q 327 24 367 58 q 233 -11 288 -11 m 329 178 q 369 201 357 178 q 381 257 381 224 l 381 540 q 301 488 326 519 q 275 399 275 456 l 275 268 q 329 178 275 178 m 344 1090 q 149 1142 219 1090 q 78 1301 78 1194 q 81 1331 78 1311 l 254 1329 q 274 1271 254 1290 q 346 1251 294 1251 q 417 1271 396 1251 q 438 1329 438 1290 l 611 1331 l 613 1307 q 542 1144 613 1197 q 344 1090 471 1090 z "},"ắ":{"ha":671,"x_min":28,"x_max":626,"o":"m 233 -11 q 72 67 115 -11 q 28 292 28 146 q 59 475 28 411 q 146 569 90 539 q 315 635 201 599 l 382 657 l 382 660 l 382 761 q 366 823 382 801 q 328 844 350 844 q 294 826 308 844 q 279 778 279 808 l 279 717 l 43 717 l 43 750 q 113 964 43 900 q 342 1028 183 1028 q 547 962 468 1028 q 626 775 626 896 l 626 0 l 385 0 l 385 121 q 327 24 367 58 q 233 -11 288 -11 m 329 178 q 369 201 357 178 q 381 257 381 224 l 381 540 q 301 488 326 519 q 275 399 275 456 l 275 268 q 329 178 275 178 m 342 1079 q 146 1126 217 1079 q 75 1271 75 1174 q 78 1299 75 1279 l 251 1299 q 272 1235 251 1256 q 342 1214 292 1214 q 413 1235 393 1214 q 433 1299 433 1256 l 607 1299 q 608 1275 608 1288 q 538 1127 608 1175 q 342 1079 468 1079 m 181 1324 l 181 1456 l 503 1569 l 503 1375 l 181 1324 z "},"ặ":{"ha":671,"x_min":28,"x_max":626,"o":"m 233 -11 q 72 67 115 -11 q 28 292 28 146 q 59 475 28 411 q 146 569 90 539 q 315 635 201 599 l 382 657 l 382 660 l 382 761 q 366 823 382 801 q 328 844 350 844 q 294 826 308 844 q 279 778 279 808 l 279 717 l 43 717 l 43 750 q 113 964 43 900 q 342 1028 183 1028 q 547 962 468 1028 q 626 775 626 896 l 626 0 l 385 0 l 385 121 q 327 24 367 58 q 233 -11 288 -11 m 329 178 q 369 201 357 178 q 381 257 381 224 l 381 540 q 301 488 326 519 q 275 399 275 456 l 275 268 q 329 178 275 178 m 214 -283 l 214 -81 l 457 -81 l 457 -283 l 214 -283 m 344 1090 q 149 1142 219 1090 q 78 1301 78 1194 q 81 1331 78 1311 l 254 1329 q 274 1271 254 1290 q 346 1251 294 1251 q 417 1271 396 1251 q 438 1329 438 1290 l 611 1331 l 613 1307 q 542 1144 613 1197 q 344 1090 471 1090 z "},"ằ":{"ha":671,"x_min":28,"x_max":626,"o":"m 233 -11 q 72 67 115 -11 q 28 292 28 146 q 59 475 28 411 q 146 569 90 539 q 315 635 201 599 l 382 657 l 382 660 l 382 761 q 366 823 382 801 q 328 844 350 844 q 294 826 308 844 q 279 778 279 808 l 279 717 l 43 717 l 43 750 q 113 964 43 900 q 342 1028 183 1028 q 547 962 468 1028 q 626 775 626 896 l 626 0 l 385 0 l 385 121 q 327 24 367 58 q 233 -11 288 -11 m 329 178 q 369 201 357 178 q 381 257 381 224 l 381 540 q 301 488 326 519 q 275 399 275 456 l 275 268 q 329 178 275 178 m 503 1331 l 181 1375 l 181 1569 l 503 1442 l 503 1331 m 342 1072 q 146 1119 217 1072 q 75 1264 75 1167 q 78 1292 75 1272 l 251 1292 q 272 1228 251 1249 q 342 1207 292 1207 q 412 1228 392 1207 q 432 1292 432 1249 l 606 1292 q 607 1268 607 1281 q 537 1120 607 1168 q 342 1072 467 1072 z "},"ẳ":{"ha":671,"x_min":28,"x_max":626,"o":"m 233 -11 q 72 67 115 -11 q 28 292 28 146 q 59 475 28 411 q 146 569 90 539 q 315 635 201 599 l 382 657 l 382 660 l 382 761 q 366 823 382 801 q 328 844 350 844 q 294 826 308 844 q 279 778 279 808 l 279 717 l 43 717 l 43 750 q 113 964 43 900 q 342 1028 183 1028 q 547 962 468 1028 q 626 775 626 896 l 626 0 l 385 0 l 385 121 q 327 24 367 58 q 233 -11 288 -11 m 329 178 q 369 201 357 178 q 381 257 381 224 l 381 540 q 301 488 326 519 q 275 399 275 456 l 275 268 q 329 178 275 178 m 249 1382 q 310 1417 289 1397 q 331 1469 331 1438 q 261 1533 331 1533 q 200 1524 228 1533 l 200 1646 q 325 1668 263 1668 q 458 1625 410 1668 q 506 1506 506 1582 q 321 1297 506 1357 l 249 1382 m 342 1072 q 146 1119 217 1072 q 75 1264 75 1167 q 78 1292 75 1272 l 251 1292 q 272 1228 251 1249 q 342 1207 292 1207 q 412 1228 392 1207 q 432 1292 432 1249 l 606 1292 q 607 1268 607 1281 q 537 1120 607 1168 q 342 1072 467 1072 z "},"ẵ":{"ha":671,"x_min":28,"x_max":626,"o":"m 233 -11 q 72 67 115 -11 q 28 292 28 146 q 59 475 28 411 q 146 569 90 539 q 315 635 201 599 l 382 657 l 382 660 l 382 761 q 366 823 382 801 q 328 844 350 844 q 294 826 308 844 q 279 778 279 808 l 279 717 l 43 717 l 43 750 q 113 964 43 900 q 342 1028 183 1028 q 547 962 468 1028 q 626 775 626 896 l 626 0 l 385 0 l 385 121 q 327 24 367 58 q 233 -11 288 -11 m 329 178 q 369 201 357 178 q 381 257 381 224 l 381 540 q 301 488 326 519 q 275 399 275 456 l 275 268 q 329 178 275 178 m 454 1335 q 400 1343 426 1335 q 339 1368 374 1351 q 281 1390 301 1383 q 238 1397 260 1397 q 163 1351 190 1397 l 61 1404 q 124 1510 90 1474 q 218 1546 157 1546 q 272 1538 247 1546 q 333 1514 297 1529 q 388 1492 365 1500 q 433 1485 410 1485 q 475 1496 458 1485 q 510 1535 492 1507 l 622 1499 q 583 1411 601 1444 q 533 1356 564 1378 q 454 1335 501 1335 m 342 1072 q 146 1119 217 1072 q 75 1264 75 1167 q 78 1292 75 1272 l 251 1292 q 272 1228 251 1249 q 342 1207 292 1207 q 412 1228 392 1207 q 432 1292 432 1249 l 606 1292 q 607 1268 607 1281 q 537 1120 607 1168 q 342 1072 467 1072 z "},"â":{"ha":671,"x_min":28,"x_max":643,"o":"m 233 -11 q 72 67 115 -11 q 28 292 28 146 q 59 475 28 411 q 146 569 90 539 q 315 635 201 599 l 382 657 l 382 660 l 382 761 q 366 823 382 801 q 328 844 350 844 q 294 826 308 844 q 279 778 279 808 l 279 717 l 43 717 l 43 750 q 113 964 43 900 q 342 1028 183 1028 q 547 962 468 1028 q 626 775 626 896 l 626 0 l 385 0 l 385 121 q 327 24 367 58 q 233 -11 288 -11 m 329 178 q 369 201 357 178 q 381 257 381 224 l 381 540 q 301 488 326 519 q 275 399 275 456 l 275 268 q 329 178 275 178 m 40 1090 l 203 1364 l 479 1364 l 643 1090 l 400 1090 l 342 1283 l 283 1090 l 40 1090 z "},"ấ":{"ha":671,"x_min":28,"x_max":874,"o":"m 233 -11 q 72 67 115 -11 q 28 292 28 146 q 59 475 28 411 q 146 569 90 539 q 315 635 201 599 l 382 657 l 382 660 l 382 761 q 366 823 382 801 q 328 844 350 844 q 294 826 308 844 q 279 778 279 808 l 279 717 l 43 717 l 43 750 q 113 964 43 900 q 342 1028 183 1028 q 547 962 468 1028 q 626 775 626 896 l 626 0 l 385 0 l 385 121 q 327 24 367 58 q 233 -11 288 -11 m 329 178 q 369 201 357 178 q 381 257 381 224 l 381 540 q 301 488 326 519 q 275 399 275 456 l 275 268 q 329 178 275 178 m 554 1243 l 665 1443 l 874 1443 l 713 1243 l 554 1243 m 40 1079 l 203 1285 l 481 1285 l 643 1079 l 403 1079 l 342 1211 l 281 1079 l 40 1079 z "},"ậ":{"ha":671,"x_min":28,"x_max":643,"o":"m 233 -11 q 72 67 115 -11 q 28 292 28 146 q 59 475 28 411 q 146 569 90 539 q 315 635 201 599 l 382 657 l 382 660 l 382 761 q 366 823 382 801 q 328 844 350 844 q 294 826 308 844 q 279 778 279 808 l 279 717 l 43 717 l 43 750 q 113 964 43 900 q 342 1028 183 1028 q 547 962 468 1028 q 626 775 626 896 l 626 0 l 385 0 l 385 121 q 327 24 367 58 q 233 -11 288 -11 m 329 178 q 369 201 357 178 q 381 257 381 224 l 381 540 q 301 488 326 519 q 275 399 275 456 l 275 268 q 329 178 275 178 m 214 -283 l 214 -81 l 457 -81 l 457 -283 l 214 -283 m 40 1090 l 203 1364 l 479 1364 l 643 1090 l 400 1090 l 342 1283 l 283 1090 l 40 1090 z "},"ầ":{"ha":671,"x_min":28,"x_max":751,"o":"m 233 -11 q 72 67 115 -11 q 28 292 28 146 q 59 475 28 411 q 146 569 90 539 q 315 635 201 599 l 382 657 l 382 660 l 382 761 q 366 823 382 801 q 328 844 350 844 q 294 826 308 844 q 279 778 279 808 l 279 717 l 43 717 l 43 750 q 113 964 43 900 q 342 1028 183 1028 q 547 962 468 1028 q 626 775 626 896 l 626 0 l 385 0 l 385 121 q 327 24 367 58 q 233 -11 288 -11 m 329 178 q 369 201 357 178 q 381 257 381 224 l 381 540 q 301 488 326 519 q 275 399 275 456 l 275 268 q 329 178 275 178 m 594 1243 l 432 1443 l 640 1443 l 751 1243 l 594 1243 m 40 1079 l 203 1285 l 481 1285 l 643 1079 l 403 1079 l 342 1211 l 281 1079 l 40 1079 z "},"ẩ":{"ha":671,"x_min":28,"x_max":771,"o":"m 233 -11 q 72 67 115 -11 q 28 292 28 146 q 59 475 28 411 q 146 569 90 539 q 315 635 201 599 l 382 657 l 382 660 l 382 761 q 366 823 382 801 q 328 844 350 844 q 294 826 308 844 q 279 778 279 808 l 279 717 l 43 717 l 43 750 q 113 964 43 900 q 342 1028 183 1028 q 547 962 468 1028 q 626 775 626 896 l 626 0 l 385 0 l 385 121 q 327 24 367 58 q 233 -11 288 -11 m 329 178 q 369 201 357 178 q 381 257 381 224 l 381 540 q 301 488 326 519 q 275 399 275 456 l 275 268 q 329 178 275 178 m 515 1303 q 575 1338 554 1317 q 596 1390 596 1358 q 578 1439 596 1422 q 528 1456 560 1456 q 467 1444 496 1456 l 467 1567 q 590 1589 526 1589 q 723 1547 675 1589 q 771 1428 771 1504 q 586 1218 771 1278 l 515 1303 m 74 1079 l 224 1292 l 460 1292 l 610 1079 l 403 1079 l 342 1211 l 281 1079 l 74 1079 z "},"ẫ":{"ha":671,"x_min":28,"x_max":643,"o":"m 233 -11 q 72 67 115 -11 q 28 292 28 146 q 59 475 28 411 q 146 569 90 539 q 315 635 201 599 l 382 657 l 382 660 l 382 761 q 366 823 382 801 q 328 844 350 844 q 294 826 308 844 q 279 778 279 808 l 279 717 l 43 717 l 43 750 q 113 964 43 900 q 342 1028 183 1028 q 547 962 468 1028 q 626 775 626 896 l 626 0 l 385 0 l 385 121 q 327 24 367 58 q 233 -11 288 -11 m 329 178 q 369 201 357 178 q 381 257 381 224 l 381 540 q 301 488 326 519 q 275 399 275 456 l 275 268 q 329 178 275 178 m 454 1335 q 400 1343 426 1335 q 339 1368 374 1351 q 281 1390 301 1383 q 238 1397 260 1397 q 163 1351 190 1397 l 61 1404 q 124 1510 90 1474 q 218 1546 157 1546 q 272 1538 247 1546 q 333 1514 297 1529 q 388 1492 365 1500 q 433 1485 410 1485 q 475 1496 458 1485 q 510 1535 492 1507 l 622 1499 q 583 1411 601 1444 q 533 1356 564 1378 q 454 1335 501 1335 m 40 1079 l 203 1285 l 481 1285 l 643 1079 l 403 1079 l 342 1211 l 281 1079 l 40 1079 z "},"ȁ":{"ha":671,"x_min":-1,"x_max":626,"o":"m 233 -11 q 72 67 115 -11 q 28 292 28 146 q 59 475 28 411 q 146 569 90 539 q 315 635 201 599 l 382 657 l 382 660 l 382 761 q 366 823 382 801 q 328 844 350 844 q 294 826 308 844 q 279 778 279 808 l 279 717 l 43 717 l 43 750 q 113 964 43 900 q 342 1028 183 1028 q 547 962 468 1028 q 626 775 626 896 l 626 0 l 385 0 l 385 121 q 327 24 367 58 q 233 -11 288 -11 m 329 178 q 369 201 357 178 q 381 257 381 224 l 381 540 q 301 488 326 519 q 275 399 275 456 l 275 268 q 329 178 275 178 m 194 1086 l -1 1378 l 157 1451 l 307 1126 l 194 1086 m 400 1086 l 231 1378 l 388 1451 l 513 1126 l 400 1086 z "},"ä":{"ha":671,"x_min":28,"x_max":626,"o":"m 233 -11 q 72 67 115 -11 q 28 292 28 146 q 59 475 28 411 q 146 569 90 539 q 315 635 201 599 l 382 657 l 382 660 l 382 761 q 366 823 382 801 q 328 844 350 844 q 294 826 308 844 q 279 778 279 808 l 279 717 l 43 717 l 43 750 q 113 964 43 900 q 342 1028 183 1028 q 547 962 468 1028 q 626 775 626 896 l 626 0 l 385 0 l 385 121 q 327 24 367 58 q 233 -11 288 -11 m 329 178 q 369 201 357 178 q 381 257 381 224 l 381 540 q 301 488 326 519 q 275 399 275 456 l 275 268 q 329 178 275 178 m 51 1096 l 51 1297 l 294 1297 l 294 1096 l 51 1096 m 381 1096 l 381 1297 l 622 1297 l 622 1096 l 381 1096 z "},"ạ":{"ha":671,"x_min":28,"x_max":626,"o":"m 233 -11 q 72 67 115 -11 q 28 292 28 146 q 59 475 28 411 q 146 569 90 539 q 315 635 201 599 l 382 657 l 382 660 l 382 761 q 366 823 382 801 q 328 844 350 844 q 294 826 308 844 q 279 778 279 808 l 279 717 l 43 717 l 43 750 q 113 964 43 900 q 342 1028 183 1028 q 547 962 468 1028 q 626 775 626 896 l 626 0 l 385 0 l 385 121 q 327 24 367 58 q 233 -11 288 -11 m 329 178 q 369 201 357 178 q 381 257 381 224 l 381 540 q 301 488 326 519 q 275 399 275 456 l 275 268 q 329 178 275 178 m 214 -283 l 214 -81 l 457 -81 l 457 -283 l 214 -283 z "},"à":{"ha":671,"x_min":28,"x_max":626,"o":"m 233 -11 q 72 67 115 -11 q 28 292 28 146 q 59 475 28 411 q 146 569 90 539 q 315 635 201 599 l 382 657 l 382 660 l 382 761 q 366 823 382 801 q 328 844 350 844 q 294 826 308 844 q 279 778 279 808 l 279 717 l 43 717 l 43 750 q 113 964 43 900 q 342 1028 183 1028 q 547 962 468 1028 q 626 775 626 896 l 626 0 l 385 0 l 385 121 q 327 24 367 58 q 233 -11 288 -11 m 329 178 q 369 201 357 178 q 381 257 381 224 l 381 540 q 301 488 326 519 q 275 399 275 456 l 275 268 q 329 178 275 178 m 503 1064 l 181 1128 l 181 1364 l 503 1215 l 503 1064 z "},"ả":{"ha":671,"x_min":28,"x_max":626,"o":"m 233 -11 q 72 67 115 -11 q 28 292 28 146 q 59 475 28 411 q 146 569 90 539 q 315 635 201 599 l 382 657 l 382 660 l 382 761 q 366 823 382 801 q 328 844 350 844 q 294 826 308 844 q 279 778 279 808 l 279 717 l 43 717 l 43 750 q 113 964 43 900 q 342 1028 183 1028 q 547 962 468 1028 q 626 775 626 896 l 626 0 l 385 0 l 385 121 q 327 24 367 58 q 233 -11 288 -11 m 329 178 q 369 201 357 178 q 381 257 381 224 l 381 540 q 301 488 326 519 q 275 399 275 456 l 275 268 q 329 178 275 178 m 250 1154 q 311 1190 290 1169 q 332 1242 332 1210 q 263 1306 332 1306 q 201 1296 229 1306 l 201 1418 q 326 1440 264 1440 q 459 1397 411 1440 q 507 1278 507 1354 q 322 1069 507 1126 l 250 1154 z "},"ȃ":{"ha":671,"x_min":28,"x_max":626,"o":"m 233 -11 q 72 67 115 -11 q 28 292 28 146 q 59 475 28 411 q 146 569 90 539 q 315 635 201 599 l 382 657 l 382 660 l 382 761 q 366 823 382 801 q 328 844 350 844 q 294 826 308 844 q 279 778 279 808 l 279 717 l 43 717 l 43 750 q 113 964 43 900 q 342 1028 183 1028 q 547 962 468 1028 q 626 775 626 896 l 626 0 l 385 0 l 385 121 q 327 24 367 58 q 233 -11 288 -11 m 329 178 q 369 201 357 178 q 381 257 381 224 l 381 540 q 301 488 326 519 q 275 399 275 456 l 275 268 q 329 178 275 178 m 90 1101 q 88 1129 88 1121 q 153 1289 88 1238 q 340 1340 218 1340 q 530 1288 465 1340 q 594 1125 594 1236 q 593 1101 594 1111 l 433 1101 q 408 1169 433 1146 q 342 1193 383 1193 q 275 1169 300 1193 q 250 1101 250 1146 l 90 1101 z "},"ā":{"ha":671,"x_min":28,"x_max":626,"o":"m 233 -11 q 72 67 115 -11 q 28 292 28 146 q 59 475 28 411 q 146 569 90 539 q 315 635 201 599 l 382 657 l 382 660 l 382 761 q 366 823 382 801 q 328 844 350 844 q 294 826 308 844 q 279 778 279 808 l 279 717 l 43 717 l 43 750 q 113 964 43 900 q 342 1028 183 1028 q 547 962 468 1028 q 626 775 626 896 l 626 0 l 385 0 l 385 121 q 327 24 367 58 q 233 -11 288 -11 m 329 178 q 369 201 357 178 q 381 257 381 224 l 381 540 q 301 488 326 519 q 275 399 275 456 l 275 268 q 329 178 275 178 m 118 1110 l 118 1213 l 560 1213 l 560 1110 l 118 1110 z "},"ą":{"ha":671,"x_min":28,"x_max":636,"o":"m 557 -265 q 636 -250 590 -265 l 636 -401 q 501 -428 574 -428 q 383 -403 438 -428 q 297 -332 329 -378 q 265 -224 265 -286 q 444 0 265 -100 l 385 0 l 385 121 q 327 24 367 58 q 233 -11 288 -11 q 72 67 115 -11 q 28 292 28 146 q 59 475 28 411 q 146 569 90 539 q 315 635 201 599 l 382 657 l 382 660 l 382 761 q 366 823 382 801 q 328 844 350 844 q 294 826 308 844 q 279 778 279 808 l 279 717 l 43 717 l 43 750 q 113 964 43 900 q 342 1028 183 1028 q 547 962 468 1028 q 626 775 626 896 l 626 0 l 588 0 l 563 -29 q 499 -114 519 -81 q 479 -189 479 -147 q 499 -246 479 -226 q 557 -265 519 -265 m 381 540 q 301 488 326 519 q 275 399 275 456 l 275 268 q 329 178 275 178 q 369 201 357 178 q 381 257 381 224 l 381 540 z "},"å":{"ha":671,"x_min":28,"x_max":626,"o":"m 233 -11 q 72 67 115 -11 q 28 292 28 146 q 59 475 28 411 q 146 569 90 539 q 315 635 201 599 l 382 657 l 382 660 l 382 761 q 366 823 382 801 q 328 844 350 844 q 294 826 308 844 q 279 778 279 808 l 279 717 l 43 717 l 43 750 q 113 964 43 900 q 342 1028 183 1028 q 547 962 468 1028 q 626 775 626 896 l 626 0 l 385 0 l 385 121 q 327 24 367 58 q 233 -11 288 -11 m 329 178 q 369 201 357 178 q 381 257 381 224 l 381 540 q 301 488 326 519 q 275 399 275 456 l 275 268 q 329 178 275 178 m 342 1082 q 167 1144 232 1082 q 101 1313 101 1206 q 167 1481 101 1419 q 342 1542 232 1542 q 517 1481 451 1542 q 582 1313 582 1419 q 517 1144 582 1206 q 342 1082 451 1082 m 342 1206 q 413 1236 386 1206 q 439 1313 439 1267 q 413 1388 439 1358 q 342 1418 386 1418 q 272 1388 299 1418 q 246 1313 246 1357 q 272 1236 246 1267 q 342 1206 299 1206 z "},"ǻ":{"ha":671,"x_min":28,"x_max":626,"o":"m 233 -11 q 72 67 115 -11 q 28 292 28 146 q 59 475 28 411 q 146 569 90 539 q 315 635 201 599 l 382 657 l 382 660 l 382 761 q 366 823 382 801 q 328 844 350 844 q 294 826 308 844 q 279 778 279 808 l 279 717 l 43 717 l 43 750 q 113 964 43 900 q 342 1028 183 1028 q 547 962 468 1028 q 626 775 626 896 l 626 0 l 385 0 l 385 121 q 327 24 367 58 q 233 -11 288 -11 m 329 178 q 369 201 357 178 q 381 257 381 224 l 381 540 q 301 488 326 519 q 275 399 275 456 l 275 268 q 329 178 275 178 m 342 1071 q 167 1128 232 1071 q 103 1288 103 1186 q 168 1445 103 1388 q 342 1503 233 1503 q 517 1444 451 1503 q 582 1288 582 1386 q 517 1129 582 1188 q 342 1071 451 1071 m 342 1194 q 413 1221 386 1194 q 439 1288 439 1247 q 413 1354 439 1328 q 342 1381 386 1381 q 272 1354 299 1381 q 246 1288 246 1328 q 272 1221 246 1247 q 342 1194 299 1194 m 181 1528 l 181 1660 l 503 1774 l 503 1579 l 181 1528 z "},"ã":{"ha":671,"x_min":28,"x_max":626,"o":"m 233 -11 q 72 67 115 -11 q 28 292 28 146 q 59 475 28 411 q 146 569 90 539 q 315 635 201 599 l 382 657 l 382 660 l 382 761 q 366 823 382 801 q 328 844 350 844 q 294 826 308 844 q 279 778 279 808 l 279 717 l 43 717 l 43 750 q 113 964 43 900 q 342 1028 183 1028 q 547 962 468 1028 q 626 775 626 896 l 626 0 l 385 0 l 385 121 q 327 24 367 58 q 233 -11 288 -11 m 329 178 q 369 201 357 178 q 381 257 381 224 l 381 540 q 301 488 326 519 q 275 399 275 456 l 275 268 q 329 178 275 178 m 454 1104 q 383 1114 415 1104 q 304 1142 350 1124 q 261 1158 282 1151 q 225 1165 240 1165 q 163 1119 185 1165 l 61 1172 q 127 1285 92 1247 q 229 1324 163 1324 q 294 1315 265 1324 q 371 1289 324 1307 q 446 1267 421 1267 q 510 1317 485 1267 l 622 1281 q 583 1187 601 1222 q 533 1128 564 1151 q 454 1104 501 1104 z "},"æ":{"ha":1015,"x_min":26,"x_max":981,"o":"m 304 -12 q 99 68 171 -12 q 26 292 26 149 q 59 478 26 414 q 149 575 92 543 q 324 646 206 607 l 379 665 l 379 667 l 381 729 q 369 810 381 781 q 328 840 358 840 q 278 785 278 840 l 278 717 l 42 717 q 40 750 40 724 q 111 965 40 900 q 340 1029 182 1029 q 507 947 450 1029 q 688 1029 561 1029 q 981 740 981 1029 l 981 667 q 978 478 981 513 l 625 478 l 625 335 q 683 176 625 176 q 730 215 719 176 q 740 319 740 254 q 739 393 740 389 l 981 393 l 981 335 q 919 74 981 160 q 703 -12 858 -12 q 581 19 633 -12 q 507 100 528 50 q 431 18 483 49 q 304 -12 378 -12 m 739 632 l 739 738 q 685 847 739 847 q 635 817 644 847 q 625 714 625 786 l 625 632 l 739 632 m 328 178 q 367 201 354 178 q 379 257 379 224 l 379 525 q 299 472 325 503 q 274 386 274 442 l 274 268 q 328 178 274 178 z "},"ǽ":{"ha":1015,"x_min":26,"x_max":981,"o":"m 304 -12 q 99 68 171 -12 q 26 292 26 149 q 59 478 26 414 q 149 575 92 543 q 324 646 206 607 l 379 665 l 379 667 l 381 729 q 369 810 381 781 q 328 840 358 840 q 278 785 278 840 l 278 717 l 42 717 q 40 750 40 724 q 111 965 40 900 q 340 1029 182 1029 q 507 947 450 1029 q 688 1029 561 1029 q 981 740 981 1029 l 981 667 q 978 478 981 513 l 625 478 l 625 335 q 683 176 625 176 q 730 215 719 176 q 740 319 740 254 q 739 393 740 389 l 981 393 l 981 335 q 919 74 981 160 q 703 -12 858 -12 q 581 19 633 -12 q 507 100 528 50 q 431 18 483 49 q 304 -12 378 -12 m 739 632 l 739 738 q 685 847 739 847 q 635 817 644 847 q 625 714 625 786 l 625 632 l 739 632 m 328 178 q 367 201 354 178 q 379 257 379 224 l 379 525 q 299 472 325 503 q 274 386 274 442 l 274 268 q 328 178 274 178 m 358 1053 l 358 1204 l 681 1353 l 681 1117 l 358 1053 z "},"b":{"ha":696,"x_min":49,"x_max":656,"o":"m 442 -11 q 299 108 342 -11 l 299 0 l 49 0 l 49 1200 l 299 1200 l 299 968 q 435 1028 357 1028 q 604 958 553 1028 q 656 756 656 888 l 656 265 q 603 65 656 140 q 442 -11 550 -11 m 360 178 q 395 194 385 178 q 408 234 406 210 q 410 310 410 258 l 410 733 q 400 814 410 788 q 358 840 390 840 q 311 814 324 840 q 299 736 299 788 l 299 310 q 310 210 299 243 q 360 178 321 178 z "},"c":{"ha":682,"x_min":40,"x_max":646,"o":"m 354 -11 q 114 74 188 -11 q 40 333 40 158 l 40 647 q 69 862 40 779 q 165 986 97 944 q 351 1028 232 1028 q 564 960 482 1028 q 646 769 646 892 l 646 614 l 399 614 l 399 757 q 388 819 399 797 q 344 840 376 840 q 285 756 285 840 l 285 263 q 299 203 285 228 q 343 179 314 179 q 387 203 372 179 q 400 264 401 226 l 399 435 l 646 435 l 646 257 q 565 60 646 132 q 354 -11 483 -11 z "},"ć":{"ha":682,"x_min":40,"x_max":646,"o":"m 354 -11 q 114 74 188 -11 q 40 333 40 158 l 40 647 q 69 862 40 779 q 165 986 97 944 q 351 1028 232 1028 q 564 960 482 1028 q 646 769 646 892 l 646 614 l 399 614 l 399 757 q 388 819 399 797 q 344 840 376 840 q 285 756 285 840 l 285 263 q 299 203 285 228 q 343 179 314 179 q 387 203 372 179 q 400 264 401 226 l 399 435 l 646 435 l 646 257 q 565 60 646 132 q 354 -11 483 -11 m 186 1053 l 186 1204 l 508 1353 l 508 1117 l 186 1053 z "},"č":{"ha":682,"x_min":40,"x_max":650,"o":"m 354 -11 q 114 74 188 -11 q 40 333 40 158 l 40 647 q 69 862 40 779 q 165 986 97 944 q 351 1028 232 1028 q 564 960 482 1028 q 646 769 646 892 l 646 614 l 399 614 l 399 757 q 388 819 399 797 q 344 840 376 840 q 285 756 285 840 l 285 263 q 299 203 285 228 q 343 179 314 179 q 387 203 372 179 q 400 264 401 226 l 399 435 l 646 435 l 646 257 q 565 60 646 132 q 354 -11 483 -11 m 210 1079 l 47 1353 l 290 1353 l 349 1158 l 407 1353 l 650 1353 l 486 1079 l 210 1079 z "},"ç":{"ha":682,"x_min":40,"x_max":646,"o":"m 399 614 l 399 757 q 388 819 399 797 q 344 840 376 840 q 285 756 285 840 l 285 263 q 299 203 285 228 q 343 179 314 179 q 387 203 372 179 q 400 264 401 226 l 399 435 l 646 435 l 646 257 q 580 75 646 144 q 403 -8 514 6 q 499 -133 465 -65 q 533 -262 533 -200 q 483 -382 533 -336 q 331 -428 432 -428 q 196 -401 261 -428 l 196 -250 q 276 -265 239 -265 q 356 -185 356 -265 q 290 -7 356 -112 q 99 92 158 8 q 40 333 40 176 l 40 647 q 69 862 40 779 q 165 986 97 944 q 351 1028 232 1028 q 564 960 482 1028 q 646 769 646 892 l 646 614 l 399 614 z "},"ĉ":{"ha":682,"x_min":40,"x_max":650,"o":"m 354 -11 q 114 74 188 -11 q 40 333 40 158 l 40 647 q 69 862 40 779 q 165 986 97 944 q 351 1028 232 1028 q 564 960 482 1028 q 646 769 646 892 l 646 614 l 399 614 l 399 757 q 388 819 399 797 q 344 840 376 840 q 285 756 285 840 l 285 263 q 299 203 285 228 q 343 179 314 179 q 387 203 372 179 q 400 264 401 226 l 399 435 l 646 435 l 646 257 q 565 60 646 132 q 354 -11 483 -11 m 47 1079 l 210 1353 l 486 1353 l 650 1079 l 407 1079 l 349 1272 l 290 1079 l 47 1079 z "},"ċ":{"ha":682,"x_min":40,"x_max":646,"o":"m 354 -11 q 114 74 188 -11 q 40 333 40 158 l 40 647 q 69 862 40 779 q 165 986 97 944 q 351 1028 232 1028 q 564 960 482 1028 q 646 769 646 892 l 646 614 l 399 614 l 399 757 q 388 819 399 797 q 344 840 376 840 q 285 756 285 840 l 285 263 q 299 203 285 228 q 343 179 314 179 q 387 203 372 179 q 400 264 401 226 l 399 435 l 646 435 l 646 257 q 565 60 646 132 q 354 -11 483 -11 m 228 1079 l 228 1282 l 471 1282 l 471 1079 l 228 1079 z "},"d":{"ha":692,"x_min":40,"x_max":643,"o":"m 249 -11 q 115 31 160 -11 q 55 144 69 74 q 40 324 40 214 l 43 782 q 98 959 43 890 q 253 1028 153 1028 q 400 963 351 1028 l 400 1200 l 643 1200 l 643 0 l 400 0 l 400 108 q 344 19 379 49 q 249 -11 308 -11 m 342 179 q 389 215 378 179 q 400 310 400 250 l 400 353 l 400 735 q 388 810 400 779 q 343 840 375 840 q 295 812 307 840 q 283 735 283 783 l 283 307 q 342 179 283 179 z "},"ð":{"ha":699,"x_min":33,"x_max":689,"o":"m 344 -11 q 103 75 174 -11 q 33 346 33 161 q 101 591 33 510 q 315 672 169 672 q 378 665 343 672 q 432 644 413 657 q 361 824 419 739 l 231 739 l 160 849 l 275 924 q 167 1004 224 971 q 57 1049 110 1038 l 121 1203 q 295 1152 208 1194 q 456 1040 382 1110 l 618 1146 l 689 1038 l 542 942 q 637 755 603 857 q 671 542 671 653 l 671 365 q 640 151 671 233 q 539 29 610 69 q 344 -11 468 -11 m 358 189 q 422 285 422 189 l 422 401 q 354 492 422 492 q 294 386 294 492 l 294 326 q 306 222 294 254 q 358 189 317 189 z "},"ď":{"ha":692,"x_min":40,"x_max":994,"o":"m 249 -11 q 115 31 160 -11 q 55 144 69 74 q 40 324 40 214 l 43 782 q 98 959 43 890 q 253 1028 153 1028 q 400 963 351 1028 l 400 1200 l 643 1200 l 643 0 l 400 0 l 400 108 q 344 19 379 49 q 249 -11 308 -11 m 342 179 q 389 215 378 179 q 400 310 400 250 l 400 353 l 400 735 q 388 810 400 779 q 343 840 375 840 q 295 812 307 840 q 283 735 283 783 l 283 307 q 342 179 283 179 m 782 842 l 826 1003 l 740 1003 l 740 1204 l 994 1204 l 994 1008 l 925 842 l 782 842 z "},"đ":{"ha":692,"x_min":40,"x_max":739,"o":"m 739 1043 l 643 1043 l 643 0 l 400 0 l 400 108 q 344 19 379 49 q 249 -11 308 -11 q 115 31 160 -11 q 55 144 69 74 q 40 324 40 214 l 43 782 q 98 959 43 890 q 253 1028 153 1028 q 400 963 351 1028 l 400 1043 l 297 1043 l 297 1146 l 400 1146 l 400 1200 l 643 1200 l 643 1146 l 739 1146 l 739 1043 m 342 179 q 389 215 378 179 q 400 310 400 250 l 400 353 l 400 735 q 388 810 400 779 q 343 840 375 840 q 295 812 307 840 q 283 735 283 783 l 283 307 q 342 179 283 179 z "},"ǆ":{"ha":1228,"x_min":40,"x_max":1289,"o":"m 249 -11 q 115 31 160 -11 q 55 144 69 74 q 40 324 40 214 l 43 782 q 98 959 43 890 q 253 1028 153 1028 q 400 963 351 1028 l 400 1200 l 643 1200 l 643 0 l 400 0 l 400 108 q 344 19 379 49 q 249 -11 308 -11 m 342 179 q 389 215 378 179 q 400 310 400 250 l 400 353 l 400 735 q 388 810 400 779 q 343 840 375 840 q 295 812 307 840 q 283 735 283 783 l 283 307 q 342 179 283 179 m 711 0 l 711 149 l 964 825 l 722 825 l 722 1017 l 1215 1017 l 1215 851 l 976 182 l 1218 182 l 1218 0 l 711 0 m 849 1079 l 686 1353 l 929 1353 l 988 1158 l 1046 1353 l 1289 1353 l 1125 1079 l 849 1079 z "},"e":{"ha":678,"x_min":40,"x_max":639,"o":"m 333 -11 q 108 75 176 -11 q 40 332 40 161 l 40 740 q 121 954 40 881 q 346 1028 201 1028 q 639 740 639 1028 l 639 667 q 636 486 639 556 l 283 486 l 283 289 q 294 206 283 236 q 342 176 306 176 q 381 193 369 176 q 395 231 393 210 q 397 294 397 253 l 397 393 l 639 393 l 639 335 q 570 73 639 157 q 333 -11 501 -11 m 397 607 l 397 738 q 343 847 397 847 q 282 738 282 847 l 282 607 l 397 607 z "},"é":{"ha":678,"x_min":40,"x_max":639,"o":"m 333 -11 q 108 75 176 -11 q 40 332 40 161 l 40 740 q 121 954 40 881 q 346 1028 201 1028 q 639 740 639 1028 l 639 667 q 636 486 639 556 l 283 486 l 283 289 q 294 206 283 236 q 342 176 306 176 q 381 193 369 176 q 395 231 393 210 q 397 294 397 253 l 397 393 l 639 393 l 639 335 q 570 73 639 157 q 333 -11 501 -11 m 397 607 l 397 738 q 343 847 397 847 q 282 738 282 847 l 282 607 l 397 607 m 183 1064 l 183 1215 l 506 1364 l 506 1128 l 183 1064 z "},"ĕ":{"ha":678,"x_min":40,"x_max":639,"o":"m 333 -11 q 108 75 176 -11 q 40 332 40 161 l 40 740 q 121 954 40 881 q 346 1028 201 1028 q 639 740 639 1028 l 639 667 q 636 486 639 556 l 283 486 l 283 289 q 294 206 283 236 q 342 176 306 176 q 381 193 369 176 q 395 231 393 210 q 397 294 397 253 l 397 393 l 639 393 l 639 335 q 570 73 639 157 q 333 -11 501 -11 m 397 607 l 397 738 q 343 847 397 847 q 282 738 282 847 l 282 607 l 397 607 m 349 1090 q 153 1142 224 1090 q 82 1301 82 1194 q 85 1331 82 1311 l 258 1329 q 278 1271 258 1290 q 350 1251 299 1251 q 421 1271 400 1251 q 442 1329 442 1290 l 615 1331 l 617 1307 q 546 1144 617 1197 q 349 1090 475 1090 z "},"ě":{"ha":678,"x_min":40,"x_max":647,"o":"m 333 -11 q 108 75 176 -11 q 40 332 40 161 l 40 740 q 121 954 40 881 q 346 1028 201 1028 q 639 740 639 1028 l 639 667 q 636 486 639 556 l 283 486 l 283 289 q 294 206 283 236 q 342 176 306 176 q 381 193 369 176 q 395 231 393 210 q 397 294 397 253 l 397 393 l 639 393 l 639 335 q 570 73 639 157 q 333 -11 501 -11 m 397 607 l 397 738 q 343 847 397 847 q 282 738 282 847 l 282 607 l 397 607 m 207 1090 l 44 1364 l 288 1364 l 346 1169 l 404 1364 l 647 1364 l 483 1090 l 207 1090 z "},"ê":{"ha":678,"x_min":40,"x_max":647,"o":"m 333 -11 q 108 75 176 -11 q 40 332 40 161 l 40 740 q 121 954 40 881 q 346 1028 201 1028 q 639 740 639 1028 l 639 667 q 636 486 639 556 l 283 486 l 283 289 q 294 206 283 236 q 342 176 306 176 q 381 193 369 176 q 395 231 393 210 q 397 294 397 253 l 397 393 l 639 393 l 639 335 q 570 73 639 157 q 333 -11 501 -11 m 397 607 l 397 738 q 343 847 397 847 q 282 738 282 847 l 282 607 l 397 607 m 44 1090 l 207 1364 l 483 1364 l 647 1090 l 404 1090 l 346 1283 l 288 1090 l 44 1090 z "},"ế":{"ha":678,"x_min":40,"x_max":878,"o":"m 333 -11 q 108 75 176 -11 q 40 332 40 161 l 40 740 q 121 954 40 881 q 346 1028 201 1028 q 639 740 639 1028 l 639 667 q 636 486 639 556 l 283 486 l 283 289 q 294 206 283 236 q 342 176 306 176 q 381 193 369 176 q 395 231 393 210 q 397 294 397 253 l 397 393 l 639 393 l 639 335 q 570 73 639 157 q 333 -11 501 -11 m 397 607 l 397 738 q 343 847 397 847 q 282 738 282 847 l 282 607 l 397 607 m 558 1243 l 669 1443 l 878 1443 l 717 1243 l 558 1243 m 44 1079 l 207 1285 l 485 1285 l 647 1079 l 407 1079 l 346 1211 l 285 1079 l 44 1079 z "},"ệ":{"ha":678,"x_min":40,"x_max":647,"o":"m 333 -11 q 108 75 176 -11 q 40 332 40 161 l 40 740 q 121 954 40 881 q 346 1028 201 1028 q 639 740 639 1028 l 639 667 q 636 486 639 556 l 283 486 l 283 289 q 294 206 283 236 q 342 176 306 176 q 381 193 369 176 q 395 231 393 210 q 397 294 397 253 l 397 393 l 639 393 l 639 335 q 570 73 639 157 q 333 -11 501 -11 m 397 607 l 397 738 q 343 847 397 847 q 282 738 282 847 l 282 607 l 397 607 m 215 -283 l 215 -81 l 458 -81 l 458 -283 l 215 -283 m 44 1090 l 207 1364 l 483 1364 l 647 1090 l 404 1090 l 346 1283 l 288 1090 l 44 1090 z "},"ề":{"ha":678,"x_min":40,"x_max":756,"o":"m 333 -11 q 108 75 176 -11 q 40 332 40 161 l 40 740 q 121 954 40 881 q 346 1028 201 1028 q 639 740 639 1028 l 639 667 q 636 486 639 556 l 283 486 l 283 289 q 294 206 283 236 q 342 176 306 176 q 381 193 369 176 q 395 231 393 210 q 397 294 397 253 l 397 393 l 639 393 l 639 335 q 570 73 639 157 q 333 -11 501 -11 m 397 607 l 397 738 q 343 847 397 847 q 282 738 282 847 l 282 607 l 397 607 m 599 1243 l 436 1443 l 644 1443 l 756 1243 l 599 1243 m 44 1079 l 207 1285 l 485 1285 l 647 1079 l 407 1079 l 346 1211 l 285 1079 l 44 1079 z "},"ể":{"ha":678,"x_min":40,"x_max":775,"o":"m 333 -11 q 108 75 176 -11 q 40 332 40 161 l 40 740 q 121 954 40 881 q 346 1028 201 1028 q 639 740 639 1028 l 639 667 q 636 486 639 556 l 283 486 l 283 289 q 294 206 283 236 q 342 176 306 176 q 381 193 369 176 q 395 231 393 210 q 397 294 397 253 l 397 393 l 639 393 l 639 335 q 570 73 639 157 q 333 -11 501 -11 m 397 607 l 397 738 q 343 847 397 847 q 282 738 282 847 l 282 607 l 397 607 m 519 1303 q 579 1338 558 1317 q 600 1390 600 1358 q 582 1439 600 1422 q 532 1456 564 1456 q 471 1444 500 1456 l 471 1567 q 594 1589 531 1589 q 727 1547 679 1589 q 775 1428 775 1504 q 590 1218 775 1278 l 519 1303 m 78 1079 l 228 1292 l 464 1292 l 614 1079 l 407 1079 l 346 1211 l 285 1079 l 78 1079 z "},"ễ":{"ha":678,"x_min":40,"x_max":647,"o":"m 333 -11 q 108 75 176 -11 q 40 332 40 161 l 40 740 q 121 954 40 881 q 346 1028 201 1028 q 639 740 639 1028 l 639 667 q 636 486 639 556 l 283 486 l 283 289 q 294 206 283 236 q 342 176 306 176 q 381 193 369 176 q 395 231 393 210 q 397 294 397 253 l 397 393 l 639 393 l 639 335 q 570 73 639 157 q 333 -11 501 -11 m 397 607 l 397 738 q 343 847 397 847 q 282 738 282 847 l 282 607 l 397 607 m 458 1335 q 404 1343 431 1335 q 343 1368 378 1351 q 285 1390 306 1383 q 242 1397 264 1397 q 167 1351 194 1397 l 65 1404 q 128 1510 94 1474 q 222 1546 161 1546 q 276 1538 251 1546 q 338 1514 301 1529 q 392 1492 369 1500 q 438 1485 414 1485 q 479 1496 463 1485 q 514 1535 496 1507 l 626 1499 q 587 1411 606 1444 q 537 1356 568 1378 q 458 1335 506 1335 m 44 1079 l 207 1285 l 485 1285 l 647 1079 l 407 1079 l 346 1211 l 285 1079 l 44 1079 z "},"ȅ":{"ha":678,"x_min":3,"x_max":639,"o":"m 333 -11 q 108 75 176 -11 q 40 332 40 161 l 40 740 q 121 954 40 881 q 346 1028 201 1028 q 639 740 639 1028 l 639 667 q 636 486 639 556 l 283 486 l 283 289 q 294 206 283 236 q 342 176 306 176 q 381 193 369 176 q 395 231 393 210 q 397 294 397 253 l 397 393 l 639 393 l 639 335 q 570 73 639 157 q 333 -11 501 -11 m 397 607 l 397 738 q 343 847 397 847 q 282 738 282 847 l 282 607 l 397 607 m 199 1086 l 3 1378 l 161 1451 l 311 1126 l 199 1086 m 404 1086 l 235 1378 l 392 1451 l 517 1126 l 404 1086 z "},"ë":{"ha":678,"x_min":40,"x_max":639,"o":"m 333 -11 q 108 75 176 -11 q 40 332 40 161 l 40 740 q 121 954 40 881 q 346 1028 201 1028 q 639 740 639 1028 l 639 667 q 636 486 639 556 l 283 486 l 283 289 q 294 206 283 236 q 342 176 306 176 q 381 193 369 176 q 395 231 393 210 q 397 294 397 253 l 397 393 l 639 393 l 639 335 q 570 73 639 157 q 333 -11 501 -11 m 397 607 l 397 738 q 343 847 397 847 q 282 738 282 847 l 282 607 l 397 607 m 56 1096 l 56 1297 l 299 1297 l 299 1096 l 56 1096 m 385 1096 l 385 1297 l 626 1297 l 626 1096 l 385 1096 z "},"ė":{"ha":678,"x_min":40,"x_max":639,"o":"m 333 -11 q 108 75 176 -11 q 40 332 40 161 l 40 740 q 121 954 40 881 q 346 1028 201 1028 q 639 740 639 1028 l 639 667 q 636 486 639 556 l 283 486 l 283 289 q 294 206 283 236 q 342 176 306 176 q 381 193 369 176 q 395 231 393 210 q 397 294 397 253 l 397 393 l 639 393 l 639 335 q 570 73 639 157 q 333 -11 501 -11 m 397 607 l 397 738 q 343 847 397 847 q 282 738 282 847 l 282 607 l 397 607 m 225 1090 l 225 1293 l 468 1293 l 468 1090 l 225 1090 z "},"ẹ":{"ha":678,"x_min":40,"x_max":639,"o":"m 333 -11 q 108 75 176 -11 q 40 332 40 161 l 40 740 q 121 954 40 881 q 346 1028 201 1028 q 639 740 639 1028 l 639 667 q 636 486 639 556 l 283 486 l 283 289 q 294 206 283 236 q 342 176 306 176 q 381 193 369 176 q 395 231 393 210 q 397 294 397 253 l 397 393 l 639 393 l 639 335 q 570 73 639 157 q 333 -11 501 -11 m 397 607 l 397 738 q 343 847 397 847 q 282 738 282 847 l 282 607 l 397 607 m 215 -283 l 215 -81 l 458 -81 l 458 -283 l 215 -283 z "},"è":{"ha":678,"x_min":40,"x_max":639,"o":"m 333 -11 q 108 75 176 -11 q 40 332 40 161 l 40 740 q 121 954 40 881 q 346 1028 201 1028 q 639 740 639 1028 l 639 667 q 636 486 639 556 l 283 486 l 283 289 q 294 206 283 236 q 342 176 306 176 q 381 193 369 176 q 395 231 393 210 q 397 294 397 253 l 397 393 l 639 393 l 639 335 q 570 73 639 157 q 333 -11 501 -11 m 397 607 l 397 738 q 343 847 397 847 q 282 738 282 847 l 282 607 l 397 607 m 507 1064 l 185 1128 l 185 1364 l 507 1215 l 507 1064 z "},"ẻ":{"ha":678,"x_min":40,"x_max":639,"o":"m 333 -11 q 108 75 176 -11 q 40 332 40 161 l 40 740 q 121 954 40 881 q 346 1028 201 1028 q 639 740 639 1028 l 639 667 q 636 486 639 556 l 283 486 l 283 289 q 294 206 283 236 q 342 176 306 176 q 381 193 369 176 q 395 231 393 210 q 397 294 397 253 l 397 393 l 639 393 l 639 335 q 570 73 639 157 q 333 -11 501 -11 m 397 607 l 397 738 q 343 847 397 847 q 282 738 282 847 l 282 607 l 397 607 m 274 1178 q 335 1215 314 1194 q 356 1267 356 1235 q 288 1331 356 1331 q 226 1319 256 1331 l 226 1442 q 350 1464 281 1464 q 483 1422 435 1464 q 531 1303 531 1379 q 346 1094 531 1151 l 274 1178 z "},"ȇ":{"ha":678,"x_min":40,"x_max":639,"o":"m 340 1339 q 538 1285 467 1339 q 608 1122 608 1232 l 607 1099 l 433 1100 q 413 1158 433 1139 q 342 1178 392 1178 q 270 1158 290 1178 q 250 1100 250 1139 l 76 1099 q 74 1128 74 1118 q 144 1287 74 1235 q 340 1339 215 1339 m 333 -11 q 108 75 176 -11 q 40 332 40 161 l 40 740 q 121 954 40 881 q 346 1028 201 1028 q 639 740 639 1028 l 639 667 q 636 486 639 556 l 283 486 l 283 289 q 294 206 283 236 q 342 176 306 176 q 381 193 369 176 q 395 231 393 210 q 397 294 397 253 l 397 393 l 639 393 l 639 335 q 570 73 639 157 q 333 -11 501 -11 m 397 607 l 397 738 q 343 847 397 847 q 282 738 282 847 l 282 607 l 397 607 z "},"ē":{"ha":678,"x_min":40,"x_max":639,"o":"m 333 -11 q 108 75 176 -11 q 40 332 40 161 l 40 740 q 121 954 40 881 q 346 1028 201 1028 q 639 740 639 1028 l 639 667 q 636 486 639 556 l 283 486 l 283 289 q 294 206 283 236 q 342 176 306 176 q 381 193 369 176 q 395 231 393 210 q 397 294 397 253 l 397 393 l 639 393 l 639 335 q 570 73 639 157 q 333 -11 501 -11 m 397 607 l 397 738 q 343 847 397 847 q 282 738 282 847 l 282 607 l 397 607 m 122 1110 l 122 1213 l 564 1213 l 564 1110 l 122 1110 z "},"ę":{"ha":678,"x_min":40,"x_max":639,"o":"m 283 486 l 283 289 q 294 206 283 236 q 342 176 306 176 q 381 193 369 176 q 395 231 393 210 q 397 294 397 253 l 397 393 l 639 393 l 639 335 q 590 100 639 183 q 424 -4 540 17 l 403 -29 q 339 -113 360 -79 q 318 -189 318 -147 q 338 -246 318 -226 q 396 -265 358 -265 q 475 -250 429 -265 l 475 -401 q 340 -428 413 -428 q 222 -403 276 -428 q 136 -332 168 -378 q 104 -224 104 -286 q 271 -7 104 -106 q 94 94 149 10 q 40 332 40 179 l 40 740 q 121 954 40 881 q 346 1028 201 1028 q 639 740 639 1028 l 639 667 q 636 486 639 556 l 283 486 m 397 607 l 397 738 q 343 847 397 847 q 282 738 282 847 l 282 607 l 397 607 z "},"ẽ":{"ha":678,"x_min":40,"x_max":639,"o":"m 333 -11 q 108 75 176 -11 q 40 332 40 161 l 40 740 q 121 954 40 881 q 346 1028 201 1028 q 639 740 639 1028 l 639 667 q 636 486 639 556 l 283 486 l 283 289 q 294 206 283 236 q 342 176 306 176 q 381 193 369 176 q 395 231 393 210 q 397 294 397 253 l 397 393 l 639 393 l 639 335 q 570 73 639 157 q 333 -11 501 -11 m 397 607 l 397 738 q 343 847 397 847 q 282 738 282 847 l 282 607 l 397 607 m 458 1104 q 387 1114 419 1104 q 308 1142 354 1124 q 265 1158 286 1151 q 229 1165 244 1165 q 167 1119 189 1165 l 65 1172 q 131 1285 96 1247 q 233 1324 167 1324 q 299 1315 269 1324 q 375 1289 328 1307 q 450 1267 425 1267 q 514 1317 489 1267 l 626 1281 q 587 1187 606 1222 q 537 1128 568 1151 q 458 1104 506 1104 z "},"ə":{"ha":678,"x_min":39,"x_max":638,"o":"m 332 -11 q 39 276 39 -11 l 39 350 q 42 531 39 461 l 394 531 l 394 728 q 383 810 394 781 q 336 840 372 840 q 297 824 308 840 q 283 786 285 808 q 281 722 281 764 l 281 625 l 39 625 l 39 682 q 108 944 39 860 q 344 1028 176 1028 q 569 942 501 1028 q 638 686 638 856 l 638 276 q 557 63 638 136 q 332 -11 476 -11 m 335 171 q 396 281 396 171 l 396 410 l 281 410 l 281 281 q 335 171 281 171 z "},"f":{"ha":389,"x_min":28,"x_max":360,"o":"m 71 788 l 28 788 l 29 972 l 71 972 l 71 1042 q 235 1206 71 1206 q 360 1186 313 1206 l 360 1036 q 338 1040 346 1040 q 313 1026 318 1040 q 307 985 307 1013 l 307 972 l 360 972 l 360 785 l 313 785 l 313 0 l 71 0 l 71 788 z "},"g":{"ha":700,"x_min":31,"x_max":654,"o":"m 322 -149 q 152 -131 214 -149 q 31 -65 90 -114 l 114 75 q 290 22 203 22 q 376 58 347 22 q 406 157 406 94 l 406 213 q 251 108 376 108 q 98 179 147 108 q 49 368 49 250 l 49 750 q 94 956 49 885 q 251 1028 139 1028 q 355 995 317 1028 q 406 903 393 963 l 406 1017 l 654 1017 l 654 172 q 575 -74 654 1 q 322 -149 496 -149 m 349 292 q 406 394 406 292 l 406 757 q 389 815 406 788 q 347 843 372 843 q 304 820 315 843 q 293 757 293 797 l 293 394 q 304 320 293 349 q 349 292 315 292 z "},"ğ":{"ha":700,"x_min":31,"x_max":654,"o":"m 322 -149 q 152 -131 214 -149 q 31 -65 90 -114 l 114 75 q 290 22 203 22 q 376 58 347 22 q 406 157 406 94 l 406 213 q 251 108 376 108 q 98 179 147 108 q 49 368 49 250 l 49 750 q 94 956 49 885 q 251 1028 139 1028 q 355 995 317 1028 q 406 903 393 963 l 406 1017 l 654 1017 l 654 172 q 575 -74 654 1 q 322 -149 496 -149 m 349 292 q 406 394 406 292 l 406 757 q 389 815 406 788 q 347 843 372 843 q 304 820 315 843 q 293 757 293 797 l 293 394 q 304 320 293 349 q 349 292 315 292 m 349 1079 q 153 1131 224 1079 q 82 1290 82 1183 q 85 1319 82 1300 l 258 1318 q 278 1260 258 1279 q 350 1240 299 1240 q 421 1260 400 1240 q 442 1318 442 1279 l 615 1319 l 617 1296 q 546 1133 617 1186 q 349 1079 475 1079 z "},"ǧ":{"ha":700,"x_min":31,"x_max":654,"o":"m 322 -149 q 152 -131 214 -149 q 31 -65 90 -114 l 114 75 q 290 22 203 22 q 376 58 347 22 q 406 157 406 94 l 406 213 q 251 108 376 108 q 98 179 147 108 q 49 368 49 250 l 49 750 q 94 956 49 885 q 251 1028 139 1028 q 355 995 317 1028 q 406 903 393 963 l 406 1017 l 654 1017 l 654 172 q 575 -74 654 1 q 322 -149 496 -149 m 349 292 q 406 394 406 292 l 406 757 q 389 815 406 788 q 347 843 372 843 q 304 820 315 843 q 293 757 293 797 l 293 394 q 304 320 293 349 q 349 292 315 292 m 207 1079 l 44 1353 l 288 1353 l 346 1158 l 404 1353 l 647 1353 l 483 1079 l 207 1079 z "},"ĝ":{"ha":700,"x_min":31,"x_max":654,"o":"m 322 -149 q 152 -131 214 -149 q 31 -65 90 -114 l 114 75 q 290 22 203 22 q 376 58 347 22 q 406 157 406 94 l 406 213 q 251 108 376 108 q 98 179 147 108 q 49 368 49 250 l 49 750 q 94 956 49 885 q 251 1028 139 1028 q 355 995 317 1028 q 406 903 393 963 l 406 1017 l 654 1017 l 654 172 q 575 -74 654 1 q 322 -149 496 -149 m 349 292 q 406 394 406 292 l 406 757 q 389 815 406 788 q 347 843 372 843 q 304 820 315 843 q 293 757 293 797 l 293 394 q 304 320 293 349 q 349 292 315 292 m 44 1079 l 207 1353 l 483 1353 l 647 1079 l 404 1079 l 346 1272 l 288 1079 l 44 1079 z "},"ģ":{"ha":700,"x_min":31,"x_max":654,"o":"m 322 -149 q 152 -131 214 -149 q 31 -65 90 -114 l 114 75 q 290 22 203 22 q 376 58 347 22 q 406 157 406 94 l 406 213 q 251 108 376 108 q 98 179 147 108 q 49 368 49 250 l 49 750 q 94 956 49 885 q 251 1028 139 1028 q 355 995 317 1028 q 406 903 393 963 l 406 1017 l 654 1017 l 654 172 q 575 -74 654 1 q 322 -149 496 -149 m 349 292 q 406 394 406 292 l 406 757 q 389 815 406 788 q 347 843 372 843 q 304 820 315 843 q 293 757 293 797 l 293 394 q 304 320 293 349 q 349 292 315 292 m 222 1169 l 222 1365 l 290 1532 l 433 1532 l 389 1372 l 475 1372 l 475 1169 l 222 1169 z "},"ġ":{"ha":700,"x_min":31,"x_max":654,"o":"m 322 -149 q 152 -131 214 -149 q 31 -65 90 -114 l 114 75 q 290 22 203 22 q 376 58 347 22 q 406 157 406 94 l 406 213 q 251 108 376 108 q 98 179 147 108 q 49 368 49 250 l 49 750 q 94 956 49 885 q 251 1028 139 1028 q 355 995 317 1028 q 406 903 393 963 l 406 1017 l 654 1017 l 654 172 q 575 -74 654 1 q 322 -149 496 -149 m 349 292 q 406 394 406 292 l 406 757 q 389 815 406 788 q 347 843 372 843 q 304 820 315 843 q 293 757 293 797 l 293 394 q 304 320 293 349 q 349 292 315 292 m 225 1079 l 225 1282 l 468 1282 l 468 1079 l 225 1079 z "},"h":{"ha":701,"x_min":49,"x_max":656,"o":"m 49 1200 l 299 1200 l 299 917 q 447 1028 338 1028 q 603 963 550 1028 q 656 783 656 897 l 656 0 l 413 0 l 413 768 q 397 822 413 801 q 353 843 382 843 q 313 822 328 843 q 299 769 299 800 l 299 0 l 49 0 l 49 1200 z "},"ħ":{"ha":701,"x_min":-54,"x_max":656,"o":"m 447 1028 q 603 963 550 1028 q 656 783 656 897 l 656 0 l 413 0 l 413 768 q 397 822 413 801 q 353 843 382 843 q 313 822 328 843 q 299 769 299 800 l 299 0 l 49 0 l 49 1026 l -54 1026 l -54 1129 l 49 1129 l 49 1200 l 299 1200 l 299 1129 l 388 1129 l 388 1026 l 299 1026 l 299 917 q 447 1028 338 1028 z "},"ĥ":{"ha":701,"x_min":-128,"x_max":656,"o":"m 49 1200 l 299 1200 l 299 917 q 447 1028 338 1028 q 603 963 550 1028 q 656 783 656 897 l 656 0 l 413 0 l 413 768 q 397 822 413 801 q 353 843 382 843 q 313 822 328 843 q 299 769 299 800 l 299 0 l 49 0 l 49 1200 m -128 1263 l 35 1536 l 311 1536 l 475 1263 l 232 1263 l 174 1456 l 115 1263 l -128 1263 z "},"i":{"ha":338,"x_min":47,"x_max":290,"o":"m 47 1085 l 47 1254 l 290 1254 l 290 1085 l 47 1085 m 47 0 l 47 1017 l 290 1017 l 290 0 l 47 0 z "},"ı":{"ha":326,"x_min":42,"x_max":285,"o":"m 42 0 l 42 1017 l 285 1017 l 285 0 l 42 0 z "},"í":{"ha":326,"x_min":1,"x_max":324,"o":"m 42 0 l 42 1017 l 285 1017 l 285 0 l 42 0 m 1 1053 l 1 1204 l 324 1353 l 324 1117 l 1 1053 z "},"ĭ":{"ha":326,"x_min":-100,"x_max":435,"o":"m 42 0 l 42 1017 l 285 1017 l 285 0 l 42 0 m 167 1079 q -29 1131 42 1079 q -100 1290 -100 1183 q -97 1319 -100 1300 l 76 1318 q 97 1260 76 1279 q 168 1240 117 1240 q 239 1260 218 1240 q 260 1318 260 1279 l 433 1319 l 435 1296 q 364 1133 435 1186 q 167 1079 293 1079 z "},"î":{"ha":326,"x_min":-137,"x_max":465,"o":"m 42 0 l 42 1017 l 285 1017 l 285 0 l 42 0 m -137 1079 l 25 1353 l 301 1353 l 465 1079 l 222 1079 l 164 1272 l 106 1079 l -137 1079 z "},"ȉ":{"ha":326,"x_min":-179,"x_max":335,"o":"m 42 0 l 42 1017 l 285 1017 l 285 0 l 42 0 m 17 1075 l -179 1367 l -21 1440 l 129 1115 l 17 1075 m 222 1075 l 53 1367 l 210 1440 l 335 1115 l 222 1075 z "},"ï":{"ha":326,"x_min":-126,"x_max":444,"o":"m 42 0 l 42 1017 l 285 1017 l 285 0 l 42 0 m -126 1085 l -126 1286 l 117 1286 l 117 1085 l -126 1085 m 203 1085 l 203 1286 l 444 1286 l 444 1085 l 203 1085 z "},"ị":{"ha":338,"x_min":47,"x_max":292,"o":"m 47 1085 l 47 1254 l 290 1254 l 290 1085 l 47 1085 m 47 0 l 47 1017 l 290 1017 l 290 0 l 47 0 m 49 -283 l 49 -81 l 292 -81 l 292 -283 l 49 -283 z "},"ì":{"ha":326,"x_min":3,"x_max":325,"o":"m 42 0 l 42 1017 l 285 1017 l 285 0 l 42 0 m 325 1053 l 3 1117 l 3 1353 l 325 1204 l 325 1053 z "},"ỉ":{"ha":326,"x_min":42,"x_max":349,"o":"m 42 0 l 42 1017 l 285 1017 l 285 0 l 42 0 m 92 1167 q 153 1203 132 1183 q 174 1256 174 1224 q 106 1319 174 1319 q 44 1308 74 1319 l 44 1431 q 168 1453 99 1453 q 301 1410 253 1453 q 349 1292 349 1368 q 164 1083 349 1140 l 92 1167 z "},"ȋ":{"ha":357,"x_min":-89,"x_max":446,"o":"m 178 1339 q 375 1285 304 1339 q 446 1122 446 1232 l 444 1099 l 271 1100 q 250 1158 271 1139 q 179 1178 229 1178 q 108 1158 128 1178 q 88 1100 88 1139 l -86 1099 q -89 1128 -89 1118 q -18 1287 -89 1235 q 178 1339 53 1339 m 42 0 l 42 1017 l 285 1017 l 285 0 l 42 0 z "},"ĳ":{"ha":703,"x_min":47,"x_max":656,"o":"m 47 1085 l 47 1254 l 290 1254 l 290 1085 l 47 1085 m 47 0 l 47 1017 l 290 1017 l 290 0 l 47 0 m 413 1085 l 413 1254 l 656 1254 l 656 1085 l 413 1085 m 464 -119 q 361 -101 385 -119 l 361 61 q 383 58 368 58 q 407 70 401 58 q 413 106 413 82 l 413 1017 l 656 1017 l 656 113 q 610 -60 656 0 q 464 -119 564 -119 z "},"ī":{"ha":326,"x_min":-60,"x_max":382,"o":"m 42 0 l 42 1017 l 285 1017 l 285 0 l 42 0 m -60 1099 l -60 1201 l 382 1201 l 382 1099 l -60 1099 z "},"į":{"ha":339,"x_min":-32,"x_max":339,"o":"m 204 -428 q 86 -403 140 -428 q 0 -332 32 -378 q -32 -224 -32 -286 q 147 0 -32 -100 l 290 0 l 265 -29 q 202 -114 222 -81 q 182 -189 182 -147 q 202 -246 182 -226 q 260 -265 222 -265 q 339 -250 293 -265 l 339 -401 q 204 -428 276 -428 m 47 1085 l 47 1254 l 290 1254 l 290 1085 l 47 1085 m 47 0 l 47 1017 l 290 1017 l 290 0 l 47 0 z "},"ĩ":{"ha":326,"x_min":-117,"x_max":444,"o":"m 42 0 l 42 1017 l 285 1017 l 285 0 l 42 0 m 276 1093 q 205 1103 238 1093 q 126 1131 172 1113 q 83 1147 104 1140 q 47 1154 63 1154 q -15 1108 7 1154 l -117 1161 q -51 1274 -86 1236 q 51 1313 -15 1313 q 117 1304 88 1313 q 193 1278 146 1296 q 268 1256 243 1256 q 332 1306 307 1256 l 444 1269 q 405 1176 424 1211 q 355 1117 386 1140 q 276 1093 324 1093 z "},"j":{"ha":365,"x_min":24,"x_max":318,"o":"m 75 1085 l 75 1254 l 318 1254 l 318 1085 l 75 1085 m 126 -119 q 24 -101 47 -119 l 24 61 q 46 58 31 58 q 69 70 64 58 q 75 106 75 82 l 75 1017 l 318 1017 l 318 113 q 272 -60 318 0 q 126 -119 226 -119 z "},"ȷ":{"ha":365,"x_min":24,"x_max":318,"o":"m 126 -119 q 24 -101 47 -119 l 24 61 q 46 58 31 58 q 69 70 64 58 q 75 106 75 82 l 75 1017 l 318 1017 l 318 113 q 272 -60 318 0 q 126 -119 226 -119 z "},"ĵ":{"ha":365,"x_min":-100,"x_max":503,"o":"m 126 -119 q 24 -101 47 -119 l 24 61 q 46 58 31 58 q 69 70 64 58 q 75 106 75 82 l 75 1017 l 318 1017 l 318 113 q 272 -60 318 0 q 126 -119 226 -119 m -100 1079 l 63 1353 l 339 1353 l 503 1079 l 260 1079 l 201 1272 l 143 1079 l -100 1079 z "},"k":{"ha":682,"x_min":49,"x_max":699,"o":"m 49 0 l 49 1200 l 289 1200 l 289 667 l 406 1017 l 657 1017 l 504 575 l 699 0 l 440 0 l 289 479 l 289 0 l 49 0 z "},"ķ":{"ha":690,"x_min":49,"x_max":699,"o":"m 294 -432 l 339 -272 l 253 -272 l 253 -69 l 506 -69 l 506 -265 l 438 -432 l 294 -432 m 49 0 l 49 1200 l 289 1200 l 289 667 l 406 1017 l 657 1017 l 504 575 l 699 0 l 440 0 l 289 479 l 289 0 l 49 0 z "},"ĸ":{"ha":678,"x_min":42,"x_max":692,"o":"m 42 0 l 42 1017 l 282 1017 l 282 644 l 399 1017 l 650 1017 l 497 553 l 692 0 l 433 0 l 282 457 l 282 0 l 42 0 z "},"l":{"ha":344,"x_min":49,"x_max":296,"o":"m 49 0 l 49 1200 l 296 1200 l 296 0 l 49 0 z "},"ĺ":{"ha":344,"x_min":10,"x_max":332,"o":"m 49 0 l 49 1200 l 296 1200 l 296 0 l 49 0 m 10 1236 l 10 1388 l 332 1536 l 332 1300 l 10 1236 z "},"ľ":{"ha":344,"x_min":49,"x_max":644,"o":"m 49 0 l 49 1200 l 296 1200 l 296 0 l 49 0 m 432 842 l 476 1003 l 390 1003 l 390 1204 l 644 1204 l 644 1008 l 575 842 l 432 842 z "},"ļ":{"ha":344,"x_min":49,"x_max":314,"o":"m 49 0 l 49 1200 l 296 1200 l 296 0 l 49 0 m 103 -436 l 147 -276 l 61 -276 l 61 -74 l 314 -74 l 314 -269 l 246 -436 l 103 -436 z "},"ŀ":{"ha":608,"x_min":49,"x_max":585,"o":"m 49 0 l 49 1200 l 296 1200 l 296 0 l 49 0 m 368 557 l 368 772 l 585 772 l 585 557 l 368 557 z "},"ǉ":{"ha":710,"x_min":49,"x_max":663,"o":"m 49 0 l 49 1200 l 296 1200 l 296 0 l 49 0 m 419 1085 l 419 1254 l 663 1254 l 663 1085 l 419 1085 m 471 -119 q 368 -101 392 -119 l 368 61 q 390 58 375 58 q 414 70 408 58 q 419 106 419 82 l 419 1017 l 663 1017 l 663 113 q 617 -60 663 0 q 471 -119 571 -119 z "},"ł":{"ha":400,"x_min":-1,"x_max":403,"o":"m 403 775 l 403 578 l 322 546 l 322 0 l 76 0 l 76 450 l -1 419 l -1 618 l 76 649 l 76 1199 l 322 1199 l 322 743 l 403 775 z "},"m":{"ha":1053,"x_min":49,"x_max":1007,"o":"m 49 1017 l 286 1017 l 286 899 q 343 996 303 964 q 457 1028 383 1028 q 560 1001 517 1028 q 622 926 604 974 q 690 1003 653 979 q 794 1028 728 1028 q 960 955 914 1028 q 1007 743 1007 882 l 1004 0 l 760 0 l 760 747 q 710 846 760 846 q 660 812 675 846 q 644 731 644 778 l 644 0 l 401 0 l 401 747 q 392 817 401 790 q 354 843 383 843 q 301 806 317 843 q 286 718 286 769 l 286 0 l 49 0 l 49 1017 z "},"n":{"ha":693,"x_min":49,"x_max":646,"o":"m 49 1017 l 292 1017 l 292 888 q 344 989 307 950 q 444 1028 382 1028 q 597 965 547 1028 q 646 785 646 901 l 646 0 l 407 0 l 407 760 q 394 817 407 793 q 353 840 381 840 q 303 806 315 840 q 292 715 292 772 l 292 0 l 49 0 l 49 1017 z "},"ń":{"ha":693,"x_min":49,"x_max":646,"o":"m 49 1017 l 292 1017 l 292 888 q 344 989 307 950 q 444 1028 382 1028 q 597 965 547 1028 q 646 785 646 901 l 646 0 l 407 0 l 407 760 q 394 817 407 793 q 353 840 381 840 q 303 806 315 840 q 292 715 292 772 l 292 0 l 49 0 l 49 1017 m 185 1053 l 185 1204 l 507 1353 l 507 1117 l 185 1053 z "},"ŉ":{"ha":743,"x_min":-50,"x_max":696,"o":"m -10 1081 l 36 1240 l -50 1240 l -50 1442 l 203 1442 l 203 1246 l 133 1081 l -10 1081 m 99 1017 l 342 1017 l 342 888 q 394 989 357 950 q 494 1028 432 1028 q 647 965 597 1028 q 696 785 696 901 l 696 0 l 457 0 l 457 760 q 444 817 457 793 q 403 840 431 840 q 353 806 365 840 q 342 715 342 772 l 342 0 l 99 0 l 99 1017 z "},"ň":{"ha":693,"x_min":46,"x_max":649,"o":"m 49 1017 l 292 1017 l 292 888 q 344 989 307 950 q 444 1028 382 1028 q 597 965 547 1028 q 646 785 646 901 l 646 0 l 407 0 l 407 760 q 394 817 407 793 q 353 840 381 840 q 303 806 315 840 q 292 715 292 772 l 292 0 l 49 0 l 49 1017 m 208 1079 l 46 1353 l 289 1353 l 347 1158 l 406 1353 l 649 1353 l 485 1079 l 208 1079 z "},"ņ":{"ha":693,"x_min":49,"x_max":646,"o":"m 49 1017 l 292 1017 l 292 888 q 344 989 307 950 q 444 1028 382 1028 q 597 965 547 1028 q 646 785 646 901 l 646 0 l 407 0 l 407 760 q 394 817 407 793 q 353 840 381 840 q 303 806 315 840 q 292 715 292 772 l 292 0 l 49 0 l 49 1017 m 257 -436 l 301 -276 l 215 -276 l 215 -74 l 468 -74 l 468 -269 l 400 -436 l 257 -436 z "},"ŋ":{"ha":679,"x_min":49,"x_max":646,"o":"m 444 1028 q 597 965 547 1028 q 646 785 646 901 l 646 -12 q 562 -252 646 -174 q 344 -331 478 -331 q 197 -310 274 -331 q 51 -250 121 -289 l 106 -110 q 290 -160 224 -160 q 376 -128 344 -160 q 407 -28 407 -96 l 407 760 q 394 817 407 793 q 353 840 381 840 q 303 806 315 840 q 292 715 292 772 l 292 0 l 49 0 l 49 1017 l 292 1017 l 292 888 q 344 989 307 950 q 444 1028 382 1028 z "},"ǌ":{"ha":1058,"x_min":49,"x_max":1011,"o":"m 49 1017 l 292 1017 l 292 888 q 344 989 307 950 q 444 1028 382 1028 q 597 965 547 1028 q 646 785 646 901 l 646 0 l 407 0 l 407 760 q 394 817 407 793 q 353 840 381 840 q 303 806 315 840 q 292 715 292 772 l 292 0 l 49 0 l 49 1017 m 768 1085 l 768 1254 l 1011 1254 l 1011 1085 l 768 1085 m 819 -119 q 717 -101 740 -119 l 717 61 q 739 58 724 58 q 763 70 757 58 q 768 106 768 82 l 768 1017 l 1011 1017 l 1011 113 q 965 -60 1011 0 q 819 -119 919 -119 z "},"ñ":{"ha":693,"x_min":49,"x_max":646,"o":"m 49 1017 l 292 1017 l 292 888 q 344 989 307 950 q 444 1028 382 1028 q 597 965 547 1028 q 646 785 646 901 l 646 0 l 407 0 l 407 760 q 394 817 407 793 q 353 840 381 840 q 303 806 315 840 q 292 715 292 772 l 292 0 l 49 0 l 49 1017 m 460 1093 q 388 1103 421 1093 q 310 1131 356 1113 q 267 1147 288 1140 q 231 1154 246 1154 q 168 1108 190 1154 l 67 1161 q 133 1274 97 1236 q 235 1313 168 1313 q 300 1304 271 1313 q 376 1278 329 1296 q 451 1256 426 1256 q 515 1306 490 1256 l 628 1269 q 588 1176 607 1211 q 538 1117 569 1140 q 460 1093 507 1093 z "},"o":{"ha":690,"x_min":40,"x_max":649,"o":"m 344 -11 q 40 304 40 -11 l 40 713 q 122 942 40 857 q 344 1028 203 1028 q 567 942 486 1028 q 649 713 649 857 l 649 304 q 344 -11 649 -11 m 344 176 q 388 197 374 176 q 401 254 401 218 l 401 751 q 344 840 401 840 q 288 751 288 840 l 288 254 q 301 197 288 218 q 344 176 315 176 z "},"ó":{"ha":690,"x_min":40,"x_max":649,"o":"m 344 -11 q 40 304 40 -11 l 40 713 q 122 942 40 857 q 344 1028 203 1028 q 567 942 486 1028 q 649 713 649 857 l 649 304 q 344 -11 649 -11 m 344 176 q 388 197 374 176 q 401 254 401 218 l 401 751 q 344 840 401 840 q 288 751 288 840 l 288 254 q 301 197 288 218 q 344 176 315 176 m 182 1064 l 182 1215 l 504 1364 l 504 1128 l 182 1064 z "},"ŏ":{"ha":690,"x_min":40,"x_max":649,"o":"m 344 -11 q 40 304 40 -11 l 40 713 q 122 942 40 857 q 344 1028 203 1028 q 567 942 486 1028 q 649 713 649 857 l 649 304 q 344 -11 649 -11 m 344 176 q 388 197 374 176 q 401 254 401 218 l 401 751 q 344 840 401 840 q 288 751 288 840 l 288 254 q 301 197 288 218 q 344 176 315 176 m 347 1090 q 151 1142 222 1090 q 81 1301 81 1194 q 83 1331 81 1311 l 257 1329 q 277 1271 257 1290 q 349 1251 297 1251 q 419 1271 399 1251 q 440 1329 440 1290 l 614 1331 l 615 1307 q 544 1144 615 1197 q 347 1090 474 1090 z "},"ô":{"ha":690,"x_min":40,"x_max":649,"o":"m 344 -11 q 40 304 40 -11 l 40 713 q 122 942 40 857 q 344 1028 203 1028 q 567 942 486 1028 q 649 713 649 857 l 649 304 q 344 -11 649 -11 m 344 176 q 388 197 374 176 q 401 254 401 218 l 401 751 q 344 840 401 840 q 288 751 288 840 l 288 254 q 301 197 288 218 q 344 176 315 176 m 43 1090 l 206 1364 l 482 1364 l 646 1090 l 403 1090 l 344 1283 l 286 1090 l 43 1090 z "},"ố":{"ha":690,"x_min":40,"x_max":876,"o":"m 344 -11 q 40 304 40 -11 l 40 713 q 122 942 40 857 q 344 1028 203 1028 q 567 942 486 1028 q 649 713 649 857 l 649 304 q 344 -11 649 -11 m 344 176 q 388 197 374 176 q 401 254 401 218 l 401 751 q 344 840 401 840 q 288 751 288 840 l 288 254 q 301 197 288 218 q 344 176 315 176 m 557 1243 l 668 1443 l 876 1443 l 715 1243 l 557 1243 m 43 1079 l 206 1285 l 483 1285 l 646 1079 l 406 1079 l 344 1211 l 283 1079 l 43 1079 z "},"ộ":{"ha":690,"x_min":40,"x_max":649,"o":"m 344 -11 q 40 304 40 -11 l 40 713 q 122 942 40 857 q 344 1028 203 1028 q 567 942 486 1028 q 649 713 649 857 l 649 304 q 344 -11 649 -11 m 344 176 q 388 197 374 176 q 401 254 401 218 l 401 751 q 344 840 401 840 q 288 751 288 840 l 288 254 q 301 197 288 218 q 344 176 315 176 m 224 -283 l 224 -81 l 467 -81 l 467 -283 l 224 -283 m 43 1090 l 206 1364 l 482 1364 l 646 1090 l 403 1090 l 344 1283 l 286 1090 l 43 1090 z "},"ồ":{"ha":690,"x_min":40,"x_max":754,"o":"m 344 -11 q 40 304 40 -11 l 40 713 q 122 942 40 857 q 344 1028 203 1028 q 567 942 486 1028 q 649 713 649 857 l 649 304 q 344 -11 649 -11 m 344 176 q 388 197 374 176 q 401 254 401 218 l 401 751 q 344 840 401 840 q 288 751 288 840 l 288 254 q 301 197 288 218 q 344 176 315 176 m 597 1243 l 435 1443 l 643 1443 l 754 1243 l 597 1243 m 43 1079 l 206 1285 l 483 1285 l 646 1079 l 406 1079 l 344 1211 l 283 1079 l 43 1079 z "},"ổ":{"ha":690,"x_min":40,"x_max":774,"o":"m 344 -11 q 40 304 40 -11 l 40 713 q 122 942 40 857 q 344 1028 203 1028 q 567 942 486 1028 q 649 713 649 857 l 649 304 q 344 -11 649 -11 m 344 176 q 388 197 374 176 q 401 254 401 218 l 401 751 q 344 840 401 840 q 288 751 288 840 l 288 254 q 301 197 288 218 q 344 176 315 176 m 518 1303 q 578 1338 557 1317 q 599 1390 599 1358 q 581 1439 599 1422 q 531 1456 563 1456 q 469 1444 499 1456 l 469 1567 q 593 1589 529 1589 q 726 1547 678 1589 q 774 1428 774 1504 q 589 1218 774 1278 l 518 1303 m 76 1079 l 226 1292 l 463 1292 l 613 1079 l 406 1079 l 344 1211 l 283 1079 l 76 1079 z "},"ỗ":{"ha":690,"x_min":40,"x_max":649,"o":"m 344 -11 q 40 304 40 -11 l 40 713 q 122 942 40 857 q 344 1028 203 1028 q 567 942 486 1028 q 649 713 649 857 l 649 304 q 344 -11 649 -11 m 344 176 q 388 197 374 176 q 401 254 401 218 l 401 751 q 344 840 401 840 q 288 751 288 840 l 288 254 q 301 197 288 218 q 344 176 315 176 m 457 1335 q 403 1343 429 1335 q 342 1368 376 1351 q 283 1390 304 1383 q 240 1397 263 1397 q 165 1351 193 1397 l 64 1404 q 126 1510 93 1474 q 221 1546 160 1546 q 275 1538 250 1546 q 336 1514 300 1529 q 390 1492 368 1500 q 436 1485 413 1485 q 478 1496 461 1485 q 513 1535 494 1507 l 625 1499 q 585 1411 604 1444 q 535 1356 567 1378 q 457 1335 504 1335 m 43 1079 l 206 1285 l 483 1285 l 646 1079 l 406 1079 l 344 1211 l 283 1079 l 43 1079 z "},"ȍ":{"ha":690,"x_min":1,"x_max":649,"o":"m 344 -11 q 40 304 40 -11 l 40 713 q 122 942 40 857 q 344 1028 203 1028 q 567 942 486 1028 q 649 713 649 857 l 649 304 q 344 -11 649 -11 m 344 176 q 388 197 374 176 q 401 254 401 218 l 401 751 q 344 840 401 840 q 288 751 288 840 l 288 254 q 301 197 288 218 q 344 176 315 176 m 197 1086 l 1 1378 l 160 1451 l 310 1126 l 197 1086 m 403 1086 l 233 1378 l 390 1451 l 515 1126 l 403 1086 z "},"ö":{"ha":690,"x_min":40,"x_max":649,"o":"m 344 -11 q 40 304 40 -11 l 40 713 q 122 942 40 857 q 344 1028 203 1028 q 567 942 486 1028 q 649 713 649 857 l 649 304 q 344 -11 649 -11 m 344 176 q 388 197 374 176 q 401 254 401 218 l 401 751 q 344 840 401 840 q 288 751 288 840 l 288 254 q 301 197 288 218 q 344 176 315 176 m 54 1096 l 54 1297 l 297 1297 l 297 1096 l 54 1096 m 383 1096 l 383 1297 l 625 1297 l 625 1096 l 383 1096 z "},"ȫ":{"ha":690,"x_min":40,"x_max":649,"o":"m 344 -11 q 40 304 40 -11 l 40 713 q 122 942 40 857 q 344 1028 203 1028 q 567 942 486 1028 q 649 713 649 857 l 649 304 q 344 -11 649 -11 m 344 176 q 388 197 374 176 q 401 254 401 218 l 401 751 q 344 840 401 840 q 288 751 288 840 l 288 254 q 301 197 288 218 q 344 176 315 176 m 58 1085 l 58 1253 l 301 1253 l 301 1085 l 58 1085 m 388 1085 l 388 1253 l 631 1253 l 631 1085 l 388 1085 m 124 1326 l 124 1429 l 565 1429 l 565 1326 l 124 1326 z "},"ȱ":{"ha":690,"x_min":40,"x_max":649,"o":"m 344 -11 q 40 304 40 -11 l 40 713 q 122 942 40 857 q 344 1028 203 1028 q 567 942 486 1028 q 649 713 649 857 l 649 304 q 344 -11 649 -11 m 344 176 q 388 197 374 176 q 401 254 401 218 l 401 751 q 344 840 401 840 q 288 751 288 840 l 288 254 q 301 197 288 218 q 344 176 315 176 m 224 1079 l 224 1254 l 465 1254 l 465 1079 l 224 1079 m 124 1314 l 124 1417 l 565 1417 l 565 1314 l 124 1314 z "},"ọ":{"ha":690,"x_min":40,"x_max":649,"o":"m 344 -11 q 40 304 40 -11 l 40 713 q 122 942 40 857 q 344 1028 203 1028 q 567 942 486 1028 q 649 713 649 857 l 649 304 q 344 -11 649 -11 m 344 176 q 388 197 374 176 q 401 254 401 218 l 401 751 q 344 840 401 840 q 288 751 288 840 l 288 254 q 301 197 288 218 q 344 176 315 176 m 224 -283 l 224 -81 l 467 -81 l 467 -283 l 224 -283 z "},"ò":{"ha":690,"x_min":40,"x_max":649,"o":"m 344 -11 q 40 304 40 -11 l 40 713 q 122 942 40 857 q 344 1028 203 1028 q 567 942 486 1028 q 649 713 649 857 l 649 304 q 344 -11 649 -11 m 344 176 q 388 197 374 176 q 401 254 401 218 l 401 751 q 344 840 401 840 q 288 751 288 840 l 288 254 q 301 197 288 218 q 344 176 315 176 m 506 1064 l 183 1128 l 183 1364 l 506 1215 l 506 1064 z "},"ỏ":{"ha":690,"x_min":40,"x_max":649,"o":"m 344 -11 q 40 304 40 -11 l 40 713 q 122 942 40 857 q 344 1028 203 1028 q 567 942 486 1028 q 649 713 649 857 l 649 304 q 344 -11 649 -11 m 344 176 q 388 197 374 176 q 401 254 401 218 l 401 751 q 344 840 401 840 q 288 751 288 840 l 288 254 q 301 197 288 218 q 344 176 315 176 m 272 1178 q 333 1215 313 1194 q 354 1267 354 1235 q 286 1331 354 1331 q 225 1319 254 1331 l 225 1442 q 349 1464 279 1464 q 481 1422 433 1464 q 529 1303 529 1379 q 344 1094 529 1151 l 272 1178 z "},"ơ":{"ha":690,"x_min":40,"x_max":664,"o":"m 664 1118 q 583 926 664 986 q 649 713 649 843 l 649 304 q 344 -11 649 -11 q 40 304 40 -11 l 40 713 q 122 942 40 857 q 344 1028 203 1028 l 397 1028 q 475 1113 475 1028 l 475 1128 l 664 1129 l 664 1118 m 401 751 q 344 840 401 840 q 288 751 288 840 l 288 254 q 301 197 288 218 q 344 176 315 176 q 388 197 374 176 q 401 254 401 218 l 401 751 z "},"ớ":{"ha":690,"x_min":40,"x_max":664,"o":"m 664 1118 q 583 926 664 986 q 649 713 649 843 l 649 304 q 344 -11 649 -11 q 40 304 40 -11 l 40 713 q 122 942 40 857 q 344 1028 203 1028 l 397 1028 q 475 1113 475 1028 l 475 1128 l 664 1129 l 664 1118 m 401 751 q 344 840 401 840 q 288 751 288 840 l 288 254 q 301 197 288 218 q 344 176 315 176 q 388 197 374 176 q 401 254 401 218 l 401 751 m 182 1111 l 182 1263 l 504 1411 l 504 1175 l 182 1111 z "},"ợ":{"ha":690,"x_min":40,"x_max":664,"o":"m 664 1118 q 583 926 664 986 q 649 713 649 843 l 649 304 q 344 -11 649 -11 q 40 304 40 -11 l 40 713 q 122 942 40 857 q 344 1028 203 1028 l 397 1028 q 475 1113 475 1028 l 475 1128 l 664 1129 l 664 1118 m 401 751 q 344 840 401 840 q 288 751 288 840 l 288 254 q 301 197 288 218 q 344 176 315 176 q 388 197 374 176 q 401 254 401 218 l 401 751 m 224 -283 l 224 -81 l 467 -81 l 467 -283 l 224 -283 z "},"ờ":{"ha":690,"x_min":40,"x_max":664,"o":"m 664 1118 q 583 926 664 986 q 649 713 649 843 l 649 304 q 344 -11 649 -11 q 40 304 40 -11 l 40 713 q 122 942 40 857 q 344 1028 203 1028 l 397 1028 q 475 1113 475 1028 l 475 1128 l 664 1129 l 664 1118 m 401 751 q 344 840 401 840 q 288 751 288 840 l 288 254 q 301 197 288 218 q 344 176 315 176 q 388 197 374 176 q 401 254 401 218 l 401 751 m 506 1156 l 183 1219 l 183 1456 l 506 1307 l 506 1156 z "},"ở":{"ha":690,"x_min":40,"x_max":664,"o":"m 664 1118 q 583 926 664 986 q 649 713 649 843 l 649 304 q 344 -11 649 -11 q 40 304 40 -11 l 40 713 q 122 942 40 857 q 344 1028 203 1028 l 397 1028 q 475 1113 475 1028 l 475 1128 l 664 1129 l 664 1118 m 401 751 q 344 840 401 840 q 288 751 288 840 l 288 254 q 301 197 288 218 q 344 176 315 176 q 388 197 374 176 q 401 254 401 218 l 401 751 m 272 1204 q 333 1241 313 1221 q 354 1293 354 1261 q 286 1357 354 1357 q 225 1346 254 1357 l 225 1468 q 349 1490 279 1490 q 481 1448 433 1490 q 529 1329 529 1406 q 344 1121 529 1178 l 272 1204 z "},"ỡ":{"ha":690,"x_min":40,"x_max":664,"o":"m 664 1118 q 583 926 664 986 q 649 713 649 843 l 649 304 q 344 -11 649 -11 q 40 304 40 -11 l 40 713 q 122 942 40 857 q 344 1028 203 1028 l 397 1028 q 475 1113 475 1028 l 475 1128 l 664 1129 l 664 1118 m 401 751 q 344 840 401 840 q 288 751 288 840 l 288 254 q 301 197 288 218 q 344 176 315 176 q 388 197 374 176 q 401 254 401 218 l 401 751 m 457 1165 q 385 1175 418 1165 q 307 1203 353 1185 q 264 1219 285 1213 q 228 1226 243 1226 q 165 1181 188 1226 l 64 1233 q 130 1347 94 1308 q 232 1385 165 1385 q 297 1376 268 1385 q 374 1350 326 1368 q 449 1328 424 1328 q 513 1378 488 1328 l 625 1342 q 585 1248 604 1283 q 535 1189 567 1213 q 457 1165 504 1165 z "},"ő":{"ha":690,"x_min":40,"x_max":696,"o":"m 344 -11 q 40 304 40 -11 l 40 713 q 122 942 40 857 q 344 1028 203 1028 q 567 942 486 1028 q 649 713 649 857 l 649 304 q 344 -11 649 -11 m 344 176 q 388 197 374 176 q 401 254 401 218 l 401 751 q 344 840 401 840 q 288 751 288 840 l 288 254 q 301 197 288 218 q 344 176 315 176 m 296 1100 l 183 1140 l 307 1464 l 464 1392 l 296 1100 m 500 1100 l 388 1140 l 538 1464 l 696 1392 l 500 1100 z "},"ȏ":{"ha":690,"x_min":40,"x_max":649,"o":"m 344 1339 q 542 1285 471 1339 q 613 1122 613 1232 l 611 1099 l 438 1100 q 417 1158 438 1139 q 346 1178 396 1178 q 274 1158 294 1178 q 254 1100 254 1139 l 81 1099 q 78 1128 78 1118 q 149 1287 78 1235 q 344 1339 219 1339 m 344 -11 q 40 304 40 -11 l 40 713 q 122 942 40 857 q 344 1028 203 1028 q 567 942 486 1028 q 649 713 649 857 l 649 304 q 344 -11 649 -11 m 344 176 q 388 197 374 176 q 401 254 401 218 l 401 751 q 344 840 401 840 q 288 751 288 840 l 288 254 q 301 197 288 218 q 344 176 315 176 z "},"ō":{"ha":690,"x_min":40,"x_max":649,"o":"m 344 -11 q 40 304 40 -11 l 40 713 q 122 942 40 857 q 344 1028 203 1028 q 567 942 486 1028 q 649 713 649 857 l 649 304 q 344 -11 649 -11 m 344 176 q 388 197 374 176 q 401 254 401 218 l 401 751 q 344 840 401 840 q 288 751 288 840 l 288 254 q 301 197 288 218 q 344 176 315 176 m 121 1110 l 121 1213 l 563 1213 l 563 1110 l 121 1110 z "},"ǫ":{"ha":690,"x_min":40,"x_max":649,"o":"m 649 304 q 564 60 649 140 l 544 38 q 483 -45 504 -10 q 463 -121 463 -81 q 483 -178 463 -158 q 540 -197 503 -197 q 619 -182 574 -197 l 619 -333 q 485 -360 557 -360 q 367 -335 421 -360 q 281 -264 313 -310 q 249 -156 249 -218 q 318 -11 249 -78 q 40 304 40 4 l 40 713 q 122 942 40 857 q 344 1028 203 1028 q 567 942 486 1028 q 649 713 649 857 l 649 304 m 288 254 q 301 197 288 218 q 344 176 315 176 q 388 197 374 176 q 401 254 401 218 l 401 751 q 344 840 401 840 q 288 751 288 840 l 288 254 z "},"ø":{"ha":671,"x_min":40,"x_max":664,"o":"m 576 932 q 649 713 649 849 l 649 304 q 344 -11 649 -11 q 206 11 263 -11 l 150 -118 l 58 -83 l 121 64 q 40 304 40 140 l 40 713 q 122 942 40 857 q 344 1028 203 1028 q 500 993 433 1028 l 568 1126 l 664 1088 l 576 932 m 401 751 q 344 840 401 840 q 288 751 288 840 l 288 254 q 301 197 288 218 q 344 176 315 176 q 388 197 374 176 q 401 254 401 218 l 401 751 z "},"ǿ":{"ha":671,"x_min":40,"x_max":664,"o":"m 576 932 q 649 713 649 849 l 649 304 q 344 -11 649 -11 q 206 11 263 -11 l 150 -118 l 58 -83 l 121 64 q 40 304 40 140 l 40 713 q 122 942 40 857 q 344 1028 203 1028 q 500 993 433 1028 l 568 1126 l 664 1088 l 576 932 m 401 751 q 344 840 401 840 q 288 751 288 840 l 288 254 q 301 197 288 218 q 344 176 315 176 q 388 197 374 176 q 401 254 401 218 l 401 751 m 182 1064 l 182 1215 l 504 1364 l 504 1128 l 182 1064 z "},"õ":{"ha":690,"x_min":40,"x_max":649,"o":"m 344 -11 q 40 304 40 -11 l 40 713 q 122 942 40 857 q 344 1028 203 1028 q 567 942 486 1028 q 649 713 649 857 l 649 304 q 344 -11 649 -11 m 344 176 q 388 197 374 176 q 401 254 401 218 l 401 751 q 344 840 401 840 q 288 751 288 840 l 288 254 q 301 197 288 218 q 344 176 315 176 m 457 1104 q 385 1114 418 1104 q 307 1142 353 1124 q 264 1158 285 1151 q 228 1165 243 1165 q 165 1119 188 1165 l 64 1172 q 130 1285 94 1247 q 232 1324 165 1324 q 297 1315 268 1324 q 374 1289 326 1307 q 449 1267 424 1267 q 513 1317 488 1267 l 625 1281 q 585 1187 604 1222 q 535 1128 567 1151 q 457 1104 504 1104 z "},"ȭ":{"ha":690,"x_min":40,"x_max":649,"o":"m 344 -11 q 40 304 40 -11 l 40 713 q 122 942 40 857 q 344 1028 203 1028 q 567 942 486 1028 q 649 713 649 857 l 649 304 q 344 -11 649 -11 m 344 176 q 388 197 374 176 q 401 254 401 218 l 401 751 q 344 840 401 840 q 288 751 288 840 l 288 254 q 301 197 288 218 q 344 176 315 176 m 457 1072 q 385 1082 418 1072 q 307 1110 353 1092 q 264 1126 285 1119 q 228 1133 243 1133 q 165 1088 188 1133 l 64 1140 q 130 1243 94 1208 q 232 1278 165 1278 q 297 1269 268 1278 q 374 1243 326 1261 q 449 1221 424 1221 q 483 1233 468 1221 q 513 1272 499 1244 l 625 1236 q 585 1149 604 1182 q 535 1094 567 1115 q 457 1072 504 1072 m 124 1333 l 124 1436 l 565 1436 l 565 1333 l 124 1333 z "},"œ":{"ha":1026,"x_min":32,"x_max":992,"o":"m 336 -12 q 32 304 32 -12 l 32 713 q 113 943 32 857 q 336 1029 194 1029 q 517 964 442 1029 q 699 1029 583 1029 q 992 740 992 1029 l 992 667 q 989 478 992 547 l 636 478 l 636 335 l 636 289 q 647 206 636 236 q 694 176 658 176 q 741 216 731 176 q 751 319 751 256 q 750 393 751 389 l 992 393 l 992 335 q 922 72 992 157 q 686 -12 853 -12 q 519 47 583 -12 q 336 -12 450 -12 m 750 632 l 750 738 q 696 847 750 847 q 645 813 656 847 q 635 717 635 779 l 636 632 l 750 632 m 336 176 q 379 197 365 176 q 393 254 393 218 l 393 751 q 336 840 393 840 q 279 751 279 840 l 279 254 q 293 197 279 218 q 336 176 307 176 z "},"p":{"ha":694,"x_min":49,"x_max":653,"o":"m 49 1017 l 296 1017 l 296 963 q 442 1028 349 1028 q 606 949 560 1028 q 653 729 653 869 l 653 353 q 639 158 653 233 q 578 35 625 82 q 435 -11 531 -11 q 296 40 343 -11 l 296 -203 l 49 -203 l 49 1017 m 354 178 q 397 208 388 178 q 407 297 407 239 l 407 729 q 397 810 407 782 q 353 838 388 838 q 296 732 296 838 l 296 286 q 308 206 296 235 q 354 178 319 178 z "},"þ":{"ha":683,"x_min":42,"x_max":649,"o":"m 42 1200 l 292 1200 l 292 968 q 428 1031 353 1031 q 597 960 546 1031 q 649 756 649 889 l 649 265 q 596 64 649 140 q 435 -12 543 -12 q 292 108 336 -12 l 292 -125 l 42 -125 l 42 1200 m 353 178 q 388 194 378 178 q 401 234 399 210 q 403 310 403 258 l 403 733 q 393 814 403 788 q 351 840 383 840 q 304 814 317 840 q 292 736 292 788 l 292 310 q 303 210 292 243 q 353 178 314 178 z "},"q":{"ha":694,"x_min":40,"x_max":644,"o":"m 397 61 q 338 9 374 29 q 258 -11 303 -11 q 117 30 164 -11 q 55 141 69 71 q 40 326 40 211 l 40 729 q 88 949 40 869 q 251 1028 135 1028 q 397 963 344 1028 l 397 1017 l 644 1017 l 644 -203 l 397 -203 l 397 61 m 339 178 q 385 206 374 178 q 397 286 397 235 l 397 732 q 340 838 397 838 q 296 809 306 838 q 286 729 286 781 l 286 297 q 296 208 286 239 q 339 178 306 178 z "},"r":{"ha":478,"x_min":49,"x_max":467,"o":"m 49 1017 l 292 1017 l 292 904 q 355 997 310 964 q 467 1029 400 1029 l 467 826 q 353 812 415 826 q 292 778 292 797 l 292 0 l 49 0 l 49 1017 z "},"ŕ":{"ha":478,"x_min":49,"x_max":467,"o":"m 49 1017 l 292 1017 l 292 904 q 355 997 310 964 q 467 1029 400 1029 l 467 826 q 353 812 415 826 q 292 778 292 797 l 292 0 l 49 0 l 49 1017 m 97 1053 l 97 1204 l 419 1353 l 419 1117 l 97 1053 z "},"ř":{"ha":475,"x_min":-35,"x_max":568,"o":"m 128 1099 l -35 1372 l 208 1372 l 267 1178 l 325 1372 l 568 1372 l 404 1099 l 128 1099 m 49 1017 l 292 1017 l 292 904 q 355 997 310 964 q 467 1029 400 1029 l 467 826 q 353 812 415 826 q 292 778 292 797 l 292 0 l 49 0 l 49 1017 z "},"ŗ":{"ha":478,"x_min":44,"x_max":467,"o":"m 49 1017 l 292 1017 l 292 904 q 355 997 310 964 q 467 1029 400 1029 l 467 826 q 353 812 415 826 q 292 778 292 797 l 292 0 l 49 0 l 49 1017 m 86 -436 l 131 -276 l 44 -276 l 44 -74 l 297 -74 l 297 -269 l 229 -436 l 86 -436 z "},"ȑ":{"ha":478,"x_min":-83,"x_max":467,"o":"m 49 1017 l 292 1017 l 292 904 q 355 997 310 964 q 467 1029 400 1029 l 467 826 q 353 812 415 826 q 292 778 292 797 l 292 0 l 49 0 l 49 1017 m 113 1075 l -83 1367 l 75 1440 l 225 1115 l 113 1075 m 318 1075 l 149 1367 l 306 1440 l 431 1115 l 318 1075 z "},"ȓ":{"ha":475,"x_min":-1,"x_max":533,"o":"m 265 1339 q 463 1285 392 1339 q 533 1122 533 1232 l 532 1099 l 358 1100 q 338 1158 358 1139 q 267 1178 317 1178 q 195 1158 215 1178 q 175 1100 175 1139 l 1 1099 q -1 1128 -1 1118 q 69 1287 -1 1235 q 265 1339 140 1339 m 49 1017 l 292 1017 l 292 904 q 355 997 310 964 q 467 1029 400 1029 l 467 826 q 353 812 415 826 q 292 778 292 797 l 292 0 l 49 0 l 49 1017 z "},"s":{"ha":660,"x_min":26,"x_max":633,"o":"m 328 -11 q 26 294 26 -11 l 28 375 l 271 375 l 272 256 q 286 201 272 219 q 332 182 300 182 q 381 261 381 182 q 358 353 381 319 q 285 424 335 386 l 156 524 q 60 630 89 575 q 31 785 31 685 q 72 917 31 863 q 181 1000 113 972 q 332 1028 249 1028 q 628 733 628 1028 l 628 714 l 376 714 l 376 753 q 365 815 376 789 q 325 840 353 840 q 287 826 300 840 q 274 786 274 811 q 317 700 274 731 l 467 590 q 590 460 547 531 q 633 283 633 390 q 553 65 633 142 q 328 -11 472 -11 z "},"ś":{"ha":660,"x_min":26,"x_max":633,"o":"m 328 -11 q 26 294 26 -11 l 28 375 l 271 375 l 272 256 q 286 201 272 219 q 332 182 300 182 q 381 261 381 182 q 358 353 381 319 q 285 424 335 386 l 156 524 q 60 630 89 575 q 31 785 31 685 q 72 917 31 863 q 181 1000 113 972 q 332 1028 249 1028 q 628 733 628 1028 l 628 714 l 376 714 l 376 753 q 365 815 376 789 q 325 840 353 840 q 287 826 300 840 q 274 786 274 811 q 317 700 274 731 l 467 590 q 590 460 547 531 q 633 283 633 390 q 553 65 633 142 q 328 -11 472 -11 m 169 1053 l 169 1204 l 492 1353 l 492 1117 l 169 1053 z "},"š":{"ha":661,"x_min":26,"x_max":633,"o":"m 193 1099 l 31 1372 l 274 1372 l 332 1178 l 390 1372 l 633 1372 l 469 1099 l 193 1099 m 328 -11 q 26 294 26 -11 l 28 375 l 271 375 l 272 256 q 286 201 272 219 q 332 182 300 182 q 381 261 381 182 q 358 353 381 319 q 285 424 335 386 l 156 524 q 60 630 89 575 q 31 785 31 685 q 72 917 31 863 q 181 1000 113 972 q 332 1028 249 1028 q 628 733 628 1028 l 628 714 l 376 714 l 376 753 q 365 815 376 789 q 325 840 353 840 q 287 826 300 840 q 274 786 274 811 q 317 700 274 731 l 467 590 q 590 460 547 531 q 633 283 633 390 q 553 65 633 142 q 328 -11 472 -11 z "},"ş":{"ha":660,"x_min":26,"x_max":633,"o":"m 633 283 q 567 79 633 154 q 379 -8 500 4 q 474 -133 440 -65 q 508 -262 508 -200 q 458 -382 508 -336 q 306 -428 407 -428 q 171 -401 236 -428 l 171 -250 q 251 -265 214 -265 q 331 -185 331 -265 q 264 -7 331 -111 q 26 294 26 22 l 28 375 l 271 375 l 272 256 q 286 201 272 219 q 332 182 300 182 q 381 261 381 182 q 358 353 381 319 q 285 424 335 386 l 156 524 q 60 630 89 575 q 31 785 31 685 q 72 917 31 863 q 181 1000 113 972 q 332 1028 249 1028 q 628 733 628 1028 l 628 714 l 376 714 l 376 753 q 365 815 376 789 q 325 840 353 840 q 287 826 300 840 q 274 786 274 811 q 317 700 274 731 l 467 590 q 590 460 547 531 q 633 283 633 390 z "},"ŝ":{"ha":660,"x_min":26,"x_max":633,"o":"m 328 -11 q 26 294 26 -11 l 28 375 l 271 375 l 272 256 q 286 201 272 219 q 332 182 300 182 q 381 261 381 182 q 358 353 381 319 q 285 424 335 386 l 156 524 q 60 630 89 575 q 31 785 31 685 q 72 917 31 863 q 181 1000 113 972 q 332 1028 249 1028 q 628 733 628 1028 l 628 714 l 376 714 l 376 753 q 365 815 376 789 q 325 840 353 840 q 287 826 300 840 q 274 786 274 811 q 317 700 274 731 l 467 590 q 590 460 547 531 q 633 283 633 390 q 553 65 633 142 q 328 -11 472 -11 m 31 1079 l 193 1353 l 469 1353 l 633 1079 l 390 1079 l 332 1272 l 274 1079 l 31 1079 z "},"ș":{"ha":661,"x_min":26,"x_max":633,"o":"m 244 -444 l 289 -285 l 203 -285 l 203 -82 l 456 -82 l 456 -278 l 388 -444 l 244 -444 m 328 -11 q 26 294 26 -11 l 28 375 l 271 375 l 272 256 q 286 201 272 219 q 332 182 300 182 q 381 261 381 182 q 358 353 381 319 q 285 424 335 386 l 156 524 q 60 630 89 575 q 31 785 31 685 q 72 917 31 863 q 181 1000 113 972 q 332 1028 249 1028 q 628 733 628 1028 l 628 714 l 376 714 l 376 753 q 365 815 376 789 q 325 840 353 840 q 287 826 300 840 q 274 786 274 811 q 317 700 274 731 l 467 590 q 590 460 547 531 q 633 283 633 390 q 553 65 633 142 q 328 -11 472 -11 z "},"ß":{"ha":683,"x_min":39,"x_max":657,"o":"m 39 957 q 328 1204 39 1204 q 617 957 617 1204 l 617 878 q 515 692 617 725 q 626 597 596 674 q 657 379 657 521 q 597 104 657 208 q 394 0 536 0 l 324 0 l 324 190 q 421 271 421 190 l 421 496 q 399 574 421 551 q 321 596 376 596 l 321 764 q 366 785 354 764 q 378 844 378 806 l 378 985 q 328 1038 378 1038 q 276 985 276 1038 l 276 0 l 39 0 l 39 957 z "},"t":{"ha":424,"x_min":22,"x_max":396,"o":"m 258 -11 q 126 29 163 -11 q 90 158 90 69 l 90 793 l 22 793 l 22 978 l 90 978 l 90 1193 l 326 1193 l 326 978 l 396 978 l 396 793 l 326 793 l 326 222 q 331 183 326 196 q 353 171 335 171 q 379 172 367 171 q 396 174 392 174 l 396 7 q 335 -5 375 1 q 258 -11 296 -11 z "},"ŧ":{"ha":424,"x_min":-10,"x_max":432,"o":"m 326 465 l 326 222 q 331 183 326 196 q 353 171 335 171 q 379 172 367 171 q 396 174 392 174 l 396 7 q 335 -5 375 1 q 258 -11 296 -11 q 126 29 163 -11 q 90 158 90 69 l 90 465 l -10 465 l -10 568 l 90 568 l 90 793 l 22 793 l 22 978 l 90 978 l 90 1193 l 326 1193 l 326 978 l 396 978 l 396 793 l 326 793 l 326 568 l 432 568 l 432 465 l 326 465 z "},"ť":{"ha":424,"x_min":22,"x_max":688,"o":"m 258 -11 q 126 29 163 -11 q 90 158 90 69 l 90 793 l 22 793 l 22 978 l 90 978 l 90 1193 l 326 1193 l 326 978 l 396 978 l 396 793 l 326 793 l 326 222 q 331 183 326 196 q 353 171 335 171 q 379 172 367 171 q 396 174 392 174 l 396 7 q 335 -5 375 1 q 258 -11 296 -11 m 475 842 l 519 1003 l 433 1003 l 433 1204 l 688 1204 l 688 1008 l 618 842 l 475 842 z "},"ţ":{"ha":424,"x_min":22,"x_max":444,"o":"m 314 -7 q 410 -133 375 -65 q 444 -262 444 -201 q 394 -382 444 -336 q 242 -428 343 -428 q 107 -401 172 -428 l 107 -250 q 188 -265 150 -265 q 267 -185 267 -265 q 249 -102 267 -149 q 200 -7 232 -56 q 115 44 139 4 q 90 158 90 83 l 90 793 l 22 793 l 22 978 l 90 978 l 90 1193 l 326 1193 l 326 978 l 396 978 l 396 793 l 326 793 l 326 222 q 331 183 326 196 q 353 171 335 171 q 379 172 367 171 q 396 174 392 174 l 396 7 q 368 1 392 7 q 314 -7 344 -4 z "},"ț":{"ha":424,"x_min":22,"x_max":396,"o":"m 258 -11 q 126 29 163 -11 q 90 158 90 69 l 90 793 l 22 793 l 22 978 l 90 978 l 90 1193 l 326 1193 l 326 978 l 396 978 l 396 793 l 326 793 l 326 222 q 331 183 326 196 q 353 171 335 171 q 379 172 367 171 q 396 174 392 174 l 396 7 q 335 -5 375 1 q 258 -11 296 -11 m 167 -436 l 211 -276 l 125 -276 l 125 -74 l 378 -74 l 378 -269 l 310 -436 l 167 -436 z "},"u":{"ha":693,"x_min":46,"x_max":644,"o":"m 244 -11 q 88 57 131 -11 q 46 260 46 125 l 46 1017 l 290 1017 l 290 308 q 290 256 290 299 q 303 197 290 214 q 344 179 317 179 q 392 210 382 179 q 401 300 401 242 l 401 308 l 403 1017 l 644 1017 l 644 0 l 401 0 l 401 108 q 343 17 376 44 q 244 -11 310 -11 z "},"ú":{"ha":693,"x_min":46,"x_max":644,"o":"m 244 -11 q 88 57 131 -11 q 46 260 46 125 l 46 1017 l 290 1017 l 290 308 q 290 256 290 299 q 303 197 290 214 q 344 179 317 179 q 392 210 382 179 q 401 300 401 242 l 401 308 l 403 1017 l 644 1017 l 644 0 l 401 0 l 401 108 q 343 17 376 44 q 244 -11 310 -11 m 185 1053 l 185 1204 l 507 1353 l 507 1117 l 185 1053 z "},"ŭ":{"ha":693,"x_min":46,"x_max":644,"o":"m 244 -11 q 88 57 131 -11 q 46 260 46 125 l 46 1017 l 290 1017 l 290 308 q 290 256 290 299 q 303 197 290 214 q 344 179 317 179 q 392 210 382 179 q 401 300 401 242 l 401 308 l 403 1017 l 644 1017 l 644 0 l 401 0 l 401 108 q 343 17 376 44 q 244 -11 310 -11 m 350 1079 q 154 1131 225 1079 q 83 1290 83 1183 q 86 1319 83 1300 l 260 1318 q 280 1260 260 1279 q 351 1240 300 1240 q 422 1260 401 1240 q 443 1318 443 1279 l 617 1319 l 618 1296 q 547 1133 618 1186 q 350 1079 476 1079 z "},"û":{"ha":693,"x_min":46,"x_max":649,"o":"m 244 -11 q 88 57 131 -11 q 46 260 46 125 l 46 1017 l 290 1017 l 290 308 q 290 256 290 299 q 303 197 290 214 q 344 179 317 179 q 392 210 382 179 q 401 300 401 242 l 401 308 l 403 1017 l 644 1017 l 644 0 l 401 0 l 401 108 q 343 17 376 44 q 244 -11 310 -11 m 46 1079 l 208 1353 l 485 1353 l 649 1079 l 406 1079 l 347 1272 l 289 1079 l 46 1079 z "},"ȕ":{"ha":693,"x_min":4,"x_max":644,"o":"m 244 -11 q 88 57 131 -11 q 46 260 46 125 l 46 1017 l 290 1017 l 290 308 q 290 256 290 299 q 303 197 290 214 q 344 179 317 179 q 392 210 382 179 q 401 300 401 242 l 401 308 l 403 1017 l 644 1017 l 644 0 l 401 0 l 401 108 q 343 17 376 44 q 244 -11 310 -11 m 200 1075 l 4 1367 l 163 1440 l 313 1115 l 200 1075 m 406 1075 l 236 1367 l 393 1440 l 518 1115 l 406 1075 z "},"ü":{"ha":693,"x_min":46,"x_max":644,"o":"m 244 -11 q 88 57 131 -11 q 46 260 46 125 l 46 1017 l 290 1017 l 290 308 q 290 256 290 299 q 303 197 290 214 q 344 179 317 179 q 392 210 382 179 q 401 300 401 242 l 401 308 l 403 1017 l 644 1017 l 644 0 l 401 0 l 401 108 q 343 17 376 44 q 244 -11 310 -11 m 57 1085 l 57 1286 l 300 1286 l 300 1085 l 57 1085 m 386 1085 l 386 1286 l 628 1286 l 628 1085 l 386 1085 z "},"ụ":{"ha":693,"x_min":46,"x_max":644,"o":"m 244 -11 q 88 57 131 -11 q 46 260 46 125 l 46 1017 l 290 1017 l 290 308 q 290 256 290 299 q 303 197 290 214 q 344 179 317 179 q 392 210 382 179 q 401 300 401 242 l 401 308 l 403 1017 l 644 1017 l 644 0 l 401 0 l 401 108 q 343 17 376 44 q 244 -11 310 -11 m 244 -283 l 244 -81 l 488 -81 l 488 -283 l 244 -283 z "},"ù":{"ha":693,"x_min":46,"x_max":644,"o":"m 244 -11 q 88 57 131 -11 q 46 260 46 125 l 46 1017 l 290 1017 l 290 308 q 290 256 290 299 q 303 197 290 214 q 344 179 317 179 q 392 210 382 179 q 401 300 401 242 l 401 308 l 403 1017 l 644 1017 l 644 0 l 401 0 l 401 108 q 343 17 376 44 q 244 -11 310 -11 m 508 1053 l 186 1117 l 186 1353 l 508 1204 l 508 1053 z "},"ủ":{"ha":693,"x_min":46,"x_max":644,"o":"m 244 -11 q 88 57 131 -11 q 46 260 46 125 l 46 1017 l 290 1017 l 290 308 q 290 256 290 299 q 303 197 290 214 q 344 179 317 179 q 392 210 382 179 q 401 300 401 242 l 401 308 l 403 1017 l 644 1017 l 644 0 l 401 0 l 401 108 q 343 17 376 44 q 244 -11 310 -11 m 275 1167 q 336 1203 315 1183 q 357 1256 357 1224 q 289 1319 357 1319 q 228 1308 257 1319 l 228 1431 q 351 1453 282 1453 q 484 1410 436 1453 q 532 1292 532 1368 q 347 1083 532 1140 l 275 1167 z "},"ư":{"ha":792,"x_min":46,"x_max":792,"o":"m 792 1118 l 792 1107 q 752 958 792 1013 q 644 885 713 903 l 644 0 l 401 0 l 401 108 q 343 17 376 44 q 244 -11 310 -11 q 88 57 131 -11 q 46 260 46 125 l 46 1017 l 290 1017 l 290 308 q 290 256 290 299 q 303 197 290 214 q 344 179 317 179 q 392 210 382 179 q 401 300 401 242 l 401 308 l 403 1017 l 525 1017 q 604 1101 604 1017 l 604 1117 l 792 1118 z "},"ứ":{"ha":792,"x_min":46,"x_max":792,"o":"m 792 1118 l 792 1107 q 752 958 792 1013 q 644 885 713 903 l 644 0 l 401 0 l 401 108 q 343 17 376 44 q 244 -11 310 -11 q 88 57 131 -11 q 46 260 46 125 l 46 1017 l 290 1017 l 290 308 q 290 256 290 299 q 303 197 290 214 q 344 179 317 179 q 392 210 382 179 q 401 300 401 242 l 401 308 l 403 1017 l 525 1017 q 604 1101 604 1017 l 604 1117 l 792 1118 m 185 1074 l 185 1225 l 507 1374 l 507 1138 l 185 1074 z "},"ự":{"ha":792,"x_min":46,"x_max":792,"o":"m 792 1118 l 792 1107 q 752 958 792 1013 q 644 885 713 903 l 644 0 l 401 0 l 401 108 q 343 17 376 44 q 244 -11 310 -11 q 88 57 131 -11 q 46 260 46 125 l 46 1017 l 290 1017 l 290 308 q 290 256 290 299 q 303 197 290 214 q 344 179 317 179 q 392 210 382 179 q 401 300 401 242 l 401 308 l 403 1017 l 525 1017 q 604 1101 604 1017 l 604 1117 l 792 1118 m 244 -283 l 244 -81 l 488 -81 l 488 -283 l 244 -283 z "},"ừ":{"ha":792,"x_min":46,"x_max":792,"o":"m 792 1118 l 792 1107 q 752 958 792 1013 q 644 885 713 903 l 644 0 l 401 0 l 401 108 q 343 17 376 44 q 244 -11 310 -11 q 88 57 131 -11 q 46 260 46 125 l 46 1017 l 290 1017 l 290 308 q 290 256 290 299 q 303 197 290 214 q 344 179 317 179 q 392 210 382 179 q 401 300 401 242 l 401 308 l 403 1017 l 525 1017 q 604 1101 604 1017 l 604 1117 l 792 1118 m 508 1074 l 186 1138 l 186 1374 l 508 1225 l 508 1074 z "},"ử":{"ha":792,"x_min":46,"x_max":792,"o":"m 792 1118 l 792 1107 q 752 958 792 1013 q 644 885 713 903 l 644 0 l 401 0 l 401 108 q 343 17 376 44 q 244 -11 310 -11 q 88 57 131 -11 q 46 260 46 125 l 46 1017 l 290 1017 l 290 308 q 290 256 290 299 q 303 197 290 214 q 344 179 317 179 q 392 210 382 179 q 401 300 401 242 l 401 308 l 403 1017 l 525 1017 q 604 1101 604 1017 l 604 1117 l 792 1118 m 275 1188 q 336 1224 315 1204 q 357 1276 357 1244 q 289 1340 357 1340 q 228 1329 257 1340 l 228 1451 q 351 1474 282 1474 q 484 1431 436 1474 q 532 1313 532 1389 q 347 1104 532 1161 l 275 1188 z "},"ữ":{"ha":792,"x_min":46,"x_max":792,"o":"m 792 1118 l 792 1107 q 752 958 792 1013 q 644 885 713 903 l 644 0 l 401 0 l 401 108 q 343 17 376 44 q 244 -11 310 -11 q 88 57 131 -11 q 46 260 46 125 l 46 1017 l 290 1017 l 290 308 q 290 256 290 299 q 303 197 290 214 q 344 179 317 179 q 392 210 382 179 q 401 300 401 242 l 401 308 l 403 1017 l 525 1017 q 604 1101 604 1017 l 604 1117 l 792 1118 m 460 1114 q 388 1124 421 1114 q 310 1151 356 1133 q 267 1168 288 1161 q 231 1175 246 1175 q 168 1129 190 1175 l 67 1182 q 133 1295 97 1257 q 235 1333 168 1333 q 300 1325 271 1333 q 376 1299 329 1317 q 451 1276 426 1276 q 515 1326 490 1276 l 628 1290 q 588 1197 607 1232 q 538 1138 569 1161 q 460 1114 507 1114 z "},"ű":{"ha":693,"x_min":46,"x_max":699,"o":"m 244 -11 q 88 57 131 -11 q 46 260 46 125 l 46 1017 l 290 1017 l 290 308 q 290 256 290 299 q 303 197 290 214 q 344 179 317 179 q 392 210 382 179 q 401 300 401 242 l 401 308 l 403 1017 l 644 1017 l 644 0 l 401 0 l 401 108 q 343 17 376 44 q 244 -11 310 -11 m 299 1089 l 186 1129 l 310 1453 l 467 1381 l 299 1089 m 503 1089 l 390 1129 l 540 1453 l 699 1381 l 503 1089 z "},"ȗ":{"ha":710,"x_min":46,"x_max":644,"o":"m 353 1339 q 550 1285 479 1339 q 621 1122 621 1232 l 619 1099 l 446 1100 q 425 1158 446 1139 q 354 1178 404 1178 q 283 1158 303 1178 q 263 1100 263 1139 l 89 1099 q 86 1128 86 1118 q 157 1287 86 1235 q 353 1339 228 1339 m 244 -11 q 88 57 131 -11 q 46 260 46 125 l 46 1017 l 290 1017 l 290 308 q 290 256 290 299 q 303 197 290 214 q 344 179 317 179 q 392 210 382 179 q 401 300 401 242 l 401 308 l 403 1017 l 644 1017 l 644 0 l 401 0 l 401 108 q 343 17 376 44 q 244 -11 310 -11 z "},"ū":{"ha":693,"x_min":46,"x_max":644,"o":"m 244 -11 q 88 57 131 -11 q 46 260 46 125 l 46 1017 l 290 1017 l 290 308 q 290 256 290 299 q 303 197 290 214 q 344 179 317 179 q 392 210 382 179 q 401 300 401 242 l 401 308 l 403 1017 l 644 1017 l 644 0 l 401 0 l 401 108 q 343 17 376 44 q 244 -11 310 -11 m 124 1099 l 124 1201 l 565 1201 l 565 1099 l 124 1099 z "},"ǎ":{"ha":671,"x_min":28,"x_max":643,"o":"m 233 -11 q 72 67 115 -11 q 28 292 28 146 q 59 475 28 411 q 146 569 90 539 q 315 635 201 599 l 382 657 l 382 660 l 382 761 q 366 823 382 801 q 328 844 350 844 q 294 826 308 844 q 279 778 279 808 l 279 717 l 43 717 l 43 750 q 113 964 43 900 q 342 1028 183 1028 q 547 962 468 1028 q 626 775 626 896 l 626 0 l 385 0 l 385 121 q 327 24 367 58 q 233 -11 288 -11 m 329 178 q 369 201 357 178 q 381 257 381 224 l 381 540 q 301 488 326 519 q 275 399 275 456 l 275 268 q 329 178 275 178 m 203 1090 l 40 1364 l 283 1364 l 342 1169 l 400 1364 l 643 1364 l 479 1090 l 203 1090 z "},"ǐ":{"ha":326,"x_min":-137,"x_max":465,"o":"m 42 0 l 42 1017 l 285 1017 l 285 0 l 42 0 m 25 1079 l -137 1353 l 106 1353 l 164 1158 l 222 1353 l 465 1353 l 301 1079 l 25 1079 z "},"ǒ":{"ha":690,"x_min":40,"x_max":649,"o":"m 344 -11 q 40 304 40 -11 l 40 713 q 122 942 40 857 q 344 1028 203 1028 q 567 942 486 1028 q 649 713 649 857 l 649 304 q 344 -11 649 -11 m 344 176 q 388 197 374 176 q 401 254 401 218 l 401 751 q 344 840 401 840 q 288 751 288 840 l 288 254 q 301 197 288 218 q 344 176 315 176 m 206 1090 l 43 1364 l 286 1364 l 344 1169 l 403 1364 l 646 1364 l 482 1090 l 206 1090 z "},"ǔ":{"ha":693,"x_min":46,"x_max":649,"o":"m 244 -11 q 88 57 131 -11 q 46 260 46 125 l 46 1017 l 290 1017 l 290 308 q 290 256 290 299 q 303 197 290 214 q 344 179 317 179 q 392 210 382 179 q 401 300 401 242 l 401 308 l 403 1017 l 644 1017 l 644 0 l 401 0 l 401 108 q 343 17 376 44 q 244 -11 310 -11 m 208 1079 l 46 1353 l 289 1353 l 347 1158 l 406 1353 l 649 1353 l 485 1079 l 208 1079 z "},"ǩ":{"ha":682,"x_min":-132,"x_max":699,"o":"m 49 0 l 49 1200 l 289 1200 l 289 667 l 406 1017 l 657 1017 l 504 575 l 699 0 l 440 0 l 289 479 l 289 0 l 49 0 m 31 1263 l -132 1536 l 111 1536 l 169 1342 l 228 1536 l 471 1536 l 307 1263 l 31 1263 z "},"ǰ":{"ha":365,"x_min":-100,"x_max":503,"o":"m 126 -119 q 24 -101 47 -119 l 24 61 q 46 58 31 58 q 69 70 64 58 q 75 106 75 82 l 75 1017 l 318 1017 l 318 113 q 272 -60 318 0 q 126 -119 226 -119 m 63 1079 l -100 1353 l 143 1353 l 201 1158 l 260 1353 l 503 1353 l 339 1079 l 63 1079 z "},"ǳ":{"ha":1228,"x_min":40,"x_max":1218,"o":"m 249 -11 q 115 31 160 -11 q 55 144 69 74 q 40 324 40 214 l 43 782 q 98 959 43 890 q 253 1028 153 1028 q 400 963 351 1028 l 400 1200 l 643 1200 l 643 0 l 400 0 l 400 108 q 344 19 379 49 q 249 -11 308 -11 m 342 179 q 389 215 378 179 q 400 310 400 250 l 400 353 l 400 735 q 388 810 400 779 q 343 840 375 840 q 295 812 307 840 q 283 735 283 783 l 283 307 q 342 179 283 179 m 711 0 l 711 149 l 964 825 l 722 825 l 722 1017 l 1215 1017 l 1215 851 l 976 182 l 1218 182 l 1218 0 l 711 0 z "},"ǵ":{"ha":700,"x_min":31,"x_max":654,"o":"m 322 -149 q 152 -131 214 -149 q 31 -65 90 -114 l 114 75 q 290 22 203 22 q 376 58 347 22 q 406 157 406 94 l 406 213 q 251 108 376 108 q 98 179 147 108 q 49 368 49 250 l 49 750 q 94 956 49 885 q 251 1028 139 1028 q 355 995 317 1028 q 406 903 393 963 l 406 1017 l 654 1017 l 654 172 q 575 -74 654 1 q 322 -149 496 -149 m 349 292 q 406 394 406 292 l 406 757 q 389 815 406 788 q 347 843 372 843 q 304 820 315 843 q 293 757 293 797 l 293 394 q 304 320 293 349 q 349 292 315 292 m 183 1053 l 183 1204 l 506 1353 l 506 1117 l 183 1053 z "},"ǹ":{"ha":693,"x_min":49,"x_max":646,"o":"m 49 1017 l 292 1017 l 292 888 q 344 989 307 950 q 444 1028 382 1028 q 597 965 547 1028 q 646 785 646 901 l 646 0 l 407 0 l 407 760 q 394 817 407 793 q 353 840 381 840 q 303 806 315 840 q 292 715 292 772 l 292 0 l 49 0 l 49 1017 m 508 1053 l 186 1117 l 186 1353 l 508 1204 l 508 1053 z "},"ȟ":{"ha":701,"x_min":-128,"x_max":656,"o":"m 49 1200 l 299 1200 l 299 917 q 447 1028 338 1028 q 603 963 550 1028 q 656 783 656 897 l 656 0 l 413 0 l 413 768 q 397 822 413 801 q 353 843 382 843 q 313 822 328 843 q 299 769 299 800 l 299 0 l 49 0 l 49 1200 m 35 1263 l -128 1536 l 115 1536 l 174 1342 l 232 1536 l 475 1536 l 311 1263 l 35 1263 z "},"ȧ":{"ha":671,"x_min":28,"x_max":626,"o":"m 233 -11 q 72 67 115 -11 q 28 292 28 146 q 59 475 28 411 q 146 569 90 539 q 315 635 201 599 l 382 657 l 382 660 l 382 761 q 366 823 382 801 q 328 844 350 844 q 294 826 308 844 q 279 778 279 808 l 279 717 l 43 717 l 43 750 q 113 964 43 900 q 342 1028 183 1028 q 547 962 468 1028 q 626 775 626 896 l 626 0 l 385 0 l 385 121 q 327 24 367 58 q 233 -11 288 -11 m 329 178 q 369 201 357 178 q 381 257 381 224 l 381 540 q 301 488 326 519 q 275 399 275 456 l 275 268 q 329 178 275 178 m 221 1090 l 221 1293 l 464 1293 l 464 1090 l 221 1090 z "},"ȩ":{"ha":678,"x_min":40,"x_max":639,"o":"m 283 486 l 283 289 q 294 206 283 236 q 342 176 306 176 q 381 193 369 176 q 395 231 393 210 q 397 294 397 253 l 397 393 l 639 393 l 639 335 q 583 90 639 174 q 392 -8 526 6 q 487 -133 453 -65 q 521 -262 521 -200 q 470 -382 521 -336 q 318 -428 419 -428 q 183 -401 249 -428 l 183 -250 q 264 -265 226 -265 q 343 -185 343 -265 q 278 -8 343 -112 q 96 92 151 7 q 40 332 40 178 l 40 740 q 121 954 40 881 q 346 1028 201 1028 q 639 740 639 1028 l 639 667 q 636 486 639 556 l 283 486 m 397 607 l 397 738 q 343 847 397 847 q 282 738 282 847 l 282 607 l 397 607 z "},"ȯ":{"ha":690,"x_min":40,"x_max":649,"o":"m 344 -11 q 40 304 40 -11 l 40 713 q 122 942 40 857 q 344 1028 203 1028 q 567 942 486 1028 q 649 713 649 857 l 649 304 q 344 -11 649 -11 m 344 176 q 388 197 374 176 q 401 254 401 218 l 401 751 q 344 840 401 840 q 288 751 288 840 l 288 254 q 301 197 288 218 q 344 176 315 176 m 224 1090 l 224 1293 l 467 1293 l 467 1090 l 224 1090 z "},"ḃ":{"ha":696,"x_min":49,"x_max":656,"o":"m 442 -11 q 299 108 342 -11 l 299 0 l 49 0 l 49 1200 l 299 1200 l 299 968 q 435 1028 357 1028 q 604 958 553 1028 q 656 756 656 888 l 656 265 q 603 65 656 140 q 442 -11 550 -11 m 360 178 q 395 194 385 178 q 408 234 406 210 q 410 310 410 258 l 410 733 q 400 814 410 788 q 358 840 390 840 q 311 814 324 840 q 299 736 299 788 l 299 310 q 310 210 299 243 q 360 178 321 178 m 53 1263 l 53 1465 l 296 1465 l 296 1263 l 53 1263 z "},"ḋ":{"ha":692,"x_min":40,"x_max":643,"o":"m 249 -11 q 115 31 160 -11 q 55 144 69 74 q 40 324 40 214 l 43 782 q 98 959 43 890 q 253 1028 153 1028 q 400 963 351 1028 l 400 1200 l 643 1200 l 643 0 l 400 0 l 400 108 q 344 19 379 49 q 249 -11 308 -11 m 342 179 q 389 215 378 179 q 400 310 400 250 l 400 353 l 400 735 q 388 810 400 779 q 343 840 375 840 q 295 812 307 840 q 283 735 283 783 l 283 307 q 342 179 283 179 m 400 1263 l 400 1465 l 643 1465 l 643 1263 l 400 1263 z "},"ḟ":{"ha":389,"x_min":28,"x_max":360,"o":"m 71 788 l 28 788 l 29 972 l 71 972 l 71 1042 q 235 1206 71 1206 q 360 1186 313 1206 l 360 1036 q 338 1040 346 1040 q 313 1026 318 1040 q 307 985 307 1013 l 307 972 l 360 972 l 360 785 l 313 785 l 313 0 l 71 0 l 71 788 m 97 1256 l 97 1458 l 340 1458 l 340 1256 l 97 1256 z "},"ṁ":{"ha":1053,"x_min":49,"x_max":1007,"o":"m 49 1017 l 286 1017 l 286 899 q 343 996 303 964 q 457 1028 383 1028 q 560 1001 517 1028 q 622 926 604 974 q 690 1003 653 979 q 794 1028 728 1028 q 960 955 914 1028 q 1007 743 1007 882 l 1004 0 l 760 0 l 760 747 q 710 846 760 846 q 660 812 675 846 q 644 731 644 778 l 644 0 l 401 0 l 401 747 q 392 817 401 790 q 354 843 383 843 q 301 806 317 843 q 286 718 286 769 l 286 0 l 49 0 l 49 1017 m 407 1079 l 407 1282 l 650 1282 l 650 1079 l 407 1079 z "},"ṗ":{"ha":694,"x_min":49,"x_max":653,"o":"m 49 1017 l 296 1017 l 296 963 q 442 1028 349 1028 q 606 949 560 1028 q 653 729 653 869 l 653 353 q 639 158 653 233 q 578 35 625 82 q 435 -11 531 -11 q 296 40 343 -11 l 296 -203 l 49 -203 l 49 1017 m 354 178 q 397 208 388 178 q 407 297 407 239 l 407 729 q 397 810 407 782 q 353 838 388 838 q 296 732 296 838 l 296 286 q 308 206 296 235 q 354 178 319 178 m 226 1079 l 226 1282 l 469 1282 l 469 1079 l 226 1079 z "},"ṡ":{"ha":660,"x_min":26,"x_max":633,"o":"m 328 -11 q 26 294 26 -11 l 28 375 l 271 375 l 272 256 q 286 201 272 219 q 332 182 300 182 q 381 261 381 182 q 358 353 381 319 q 285 424 335 386 l 156 524 q 60 630 89 575 q 31 785 31 685 q 72 917 31 863 q 181 1000 113 972 q 332 1028 249 1028 q 628 733 628 1028 l 628 714 l 376 714 l 376 753 q 365 815 376 789 q 325 840 353 840 q 287 826 300 840 q 274 786 274 811 q 317 700 274 731 l 467 590 q 590 460 547 531 q 633 283 633 390 q 553 65 633 142 q 328 -11 472 -11 m 211 1079 l 211 1282 l 454 1282 l 454 1079 l 211 1079 z "},"ṫ":{"ha":424,"x_min":22,"x_max":396,"o":"m 258 -11 q 126 29 163 -11 q 90 158 90 69 l 90 793 l 22 793 l 22 978 l 90 978 l 90 1193 l 326 1193 l 326 978 l 396 978 l 396 793 l 326 793 l 326 222 q 331 183 326 196 q 353 171 335 171 q 379 172 367 171 q 396 174 392 174 l 396 7 q 335 -5 375 1 q 258 -11 296 -11 m 93 1256 l 93 1458 l 336 1458 l 336 1256 l 93 1256 z "},"ų":{"ha":693,"x_min":46,"x_max":644,"o":"m 588 0 l 563 -29 q 499 -114 519 -81 q 479 -189 479 -147 q 499 -246 479 -226 q 557 -265 519 -265 q 636 -250 590 -265 l 636 -401 q 501 -428 574 -428 q 383 -403 438 -428 q 297 -332 329 -378 q 265 -224 265 -286 q 444 0 265 -100 l 401 0 l 401 108 q 343 17 376 44 q 244 -11 310 -11 q 88 57 131 -11 q 46 260 46 125 l 46 1017 l 290 1017 l 290 308 q 290 256 290 299 q 303 197 290 214 q 344 179 317 179 q 392 210 382 179 q 401 300 401 242 l 401 308 l 403 1017 l 644 1017 l 644 0 l 588 0 z "},"ů":{"ha":693,"x_min":46,"x_max":644,"o":"m 244 -11 q 88 57 131 -11 q 46 260 46 125 l 46 1017 l 290 1017 l 290 308 q 290 256 290 299 q 303 197 290 214 q 344 179 317 179 q 392 210 382 179 q 401 300 401 242 l 401 308 l 403 1017 l 644 1017 l 644 0 l 401 0 l 401 108 q 343 17 376 44 q 244 -11 310 -11 m 347 1071 q 172 1133 238 1071 q 107 1301 107 1194 q 172 1469 107 1408 q 347 1531 238 1531 q 522 1469 457 1531 q 588 1301 588 1408 q 522 1133 588 1194 q 347 1071 457 1071 m 347 1194 q 418 1225 392 1194 q 444 1301 444 1256 q 418 1377 444 1347 q 347 1407 392 1407 q 278 1376 304 1407 q 251 1301 251 1346 q 278 1225 251 1256 q 347 1194 304 1194 z "},"ũ":{"ha":693,"x_min":46,"x_max":644,"o":"m 244 -11 q 88 57 131 -11 q 46 260 46 125 l 46 1017 l 290 1017 l 290 308 q 290 256 290 299 q 303 197 290 214 q 344 179 317 179 q 392 210 382 179 q 401 300 401 242 l 401 308 l 403 1017 l 644 1017 l 644 0 l 401 0 l 401 108 q 343 17 376 44 q 244 -11 310 -11 m 460 1093 q 388 1103 421 1093 q 310 1131 356 1113 q 267 1147 288 1140 q 231 1154 246 1154 q 168 1108 190 1154 l 67 1161 q 133 1274 97 1236 q 235 1313 168 1313 q 300 1304 271 1313 q 376 1278 329 1296 q 451 1256 426 1256 q 515 1306 490 1256 l 628 1269 q 588 1176 607 1211 q 538 1117 569 1140 q 460 1093 507 1093 z "},"v":{"ha":640,"x_min":15,"x_max":625,"o":"m 178 0 l 15 1017 l 258 1017 l 308 503 l 317 338 l 326 504 l 382 1017 l 625 1017 l 460 0 l 178 0 z "},"w":{"ha":967,"x_min":32,"x_max":935,"o":"m 156 0 l 32 1017 l 240 1017 l 308 471 l 367 1017 l 579 1017 l 649 471 l 706 1017 l 935 1017 l 804 0 l 561 0 l 489 578 l 425 0 l 156 0 z "},"ẃ":{"ha":967,"x_min":32,"x_max":935,"o":"m 156 0 l 32 1017 l 240 1017 l 308 471 l 367 1017 l 579 1017 l 649 471 l 706 1017 l 935 1017 l 804 0 l 561 0 l 489 578 l 425 0 l 156 0 m 328 1053 l 328 1204 l 650 1353 l 650 1117 l 328 1053 z "},"ŵ":{"ha":967,"x_min":32,"x_max":935,"o":"m 156 0 l 32 1017 l 240 1017 l 308 471 l 367 1017 l 579 1017 l 649 471 l 706 1017 l 935 1017 l 804 0 l 561 0 l 489 578 l 425 0 l 156 0 m 189 1079 l 351 1353 l 628 1353 l 792 1079 l 549 1079 l 490 1272 l 432 1079 l 189 1079 z "},"ẅ":{"ha":967,"x_min":32,"x_max":935,"o":"m 156 0 l 32 1017 l 240 1017 l 308 471 l 367 1017 l 579 1017 l 649 471 l 706 1017 l 935 1017 l 804 0 l 561 0 l 489 578 l 425 0 l 156 0 m 200 1085 l 200 1286 l 443 1286 l 443 1085 l 200 1085 m 529 1085 l 529 1286 l 771 1286 l 771 1085 l 529 1085 z "},"ẁ":{"ha":967,"x_min":32,"x_max":935,"o":"m 156 0 l 32 1017 l 240 1017 l 308 471 l 367 1017 l 579 1017 l 649 471 l 706 1017 l 935 1017 l 804 0 l 561 0 l 489 578 l 425 0 l 156 0 m 651 1053 l 329 1117 l 329 1353 l 651 1204 l 651 1053 z "},"x":{"ha":638,"x_min":6,"x_max":632,"o":"m 632 0 l 389 0 l 286 286 l 189 0 l 6 0 l 192 546 l 22 1018 l 269 1018 l 357 771 l 443 1018 l 624 1018 l 449 515 l 632 0 z "},"y":{"ha":640,"x_min":11,"x_max":625,"o":"m 29 -15 l 146 -15 q 171 6 171 -15 q 169 21 171 15 l 11 1017 l 243 1017 l 289 521 l 311 268 l 338 521 l 392 1017 l 625 1017 l 436 -53 q 397 -141 426 -112 q 303 -169 367 -169 l 29 -169 l 29 -15 z "},"ý":{"ha":640,"x_min":11,"x_max":625,"o":"m 29 -15 l 146 -15 q 171 6 171 -15 q 169 21 171 15 l 11 1017 l 243 1017 l 289 521 l 311 268 l 338 521 l 392 1017 l 625 1017 l 436 -53 q 397 -141 426 -112 q 303 -169 367 -169 l 29 -169 l 29 -15 m 157 1053 l 157 1204 l 479 1353 l 479 1117 l 157 1053 z "},"ŷ":{"ha":640,"x_min":11,"x_max":625,"o":"m 29 -15 l 146 -15 q 171 6 171 -15 q 169 21 171 15 l 11 1017 l 243 1017 l 289 521 l 311 268 l 338 521 l 392 1017 l 625 1017 l 436 -53 q 397 -141 426 -112 q 303 -169 367 -169 l 29 -169 l 29 -15 m 18 1079 l 181 1353 l 457 1353 l 621 1079 l 378 1079 l 319 1272 l 261 1079 l 18 1079 z "},"ÿ":{"ha":640,"x_min":11,"x_max":625,"o":"m 29 -15 l 146 -15 q 171 6 171 -15 q 169 21 171 15 l 11 1017 l 243 1017 l 289 521 l 311 268 l 338 521 l 392 1017 l 625 1017 l 436 -53 q 397 -141 426 -112 q 303 -169 367 -169 l 29 -169 l 29 -15 m 29 1085 l 29 1286 l 272 1286 l 272 1085 l 29 1085 m 358 1085 l 358 1286 l 600 1286 l 600 1085 l 358 1085 z "},"ỵ":{"ha":640,"x_min":11,"x_max":625,"o":"m 29 -15 l 146 -15 q 171 6 171 -15 q 169 21 171 15 l 11 1017 l 243 1017 l 289 521 l 311 268 l 338 521 l 392 1017 l 625 1017 l 436 -53 q 397 -141 426 -112 q 303 -169 367 -169 l 29 -169 l 29 -15 m 182 -453 l 182 -250 l 425 -250 l 425 -453 l 182 -453 z "},"ỳ":{"ha":640,"x_min":11,"x_max":625,"o":"m 29 -15 l 146 -15 q 171 6 171 -15 q 169 21 171 15 l 11 1017 l 243 1017 l 289 521 l 311 268 l 338 521 l 392 1017 l 625 1017 l 436 -53 q 397 -141 426 -112 q 303 -169 367 -169 l 29 -169 l 29 -15 m 481 1053 l 158 1117 l 158 1353 l 481 1204 l 481 1053 z "},"ỷ":{"ha":640,"x_min":11,"x_max":625,"o":"m 29 -15 l 146 -15 q 171 6 171 -15 q 169 21 171 15 l 11 1017 l 243 1017 l 289 521 l 311 268 l 338 521 l 392 1017 l 625 1017 l 436 -53 q 397 -141 426 -112 q 303 -169 367 -169 l 29 -169 l 29 -15 m 247 1167 q 308 1203 288 1183 q 329 1256 329 1224 q 261 1319 329 1319 q 200 1308 229 1319 l 200 1431 q 324 1453 254 1453 q 456 1410 408 1453 q 504 1292 504 1368 q 319 1083 504 1140 l 247 1167 z "},"ȳ":{"ha":640,"x_min":11,"x_max":625,"o":"m 29 -15 l 146 -15 q 171 6 171 -15 q 169 21 171 15 l 11 1017 l 243 1017 l 289 521 l 311 268 l 338 521 l 392 1017 l 625 1017 l 436 -53 q 397 -141 426 -112 q 303 -169 367 -169 l 29 -169 l 29 -15 m 96 1099 l 96 1201 l 538 1201 l 538 1099 l 96 1099 z "},"ỹ":{"ha":640,"x_min":11,"x_max":625,"o":"m 29 -15 l 146 -15 q 171 6 171 -15 q 169 21 171 15 l 11 1017 l 243 1017 l 289 521 l 311 268 l 338 521 l 392 1017 l 625 1017 l 436 -53 q 397 -141 426 -112 q 303 -169 367 -169 l 29 -169 l 29 -15 m 432 1093 q 360 1103 393 1093 q 282 1131 328 1113 q 239 1147 260 1140 q 203 1154 218 1154 q 140 1108 163 1154 l 39 1161 q 105 1274 69 1236 q 207 1313 140 1313 q 272 1304 243 1313 q 349 1278 301 1296 q 424 1256 399 1256 q 488 1306 463 1256 l 600 1269 q 560 1176 579 1211 q 510 1117 542 1140 q 432 1093 479 1093 z "},"z":{"ha":536,"x_min":19,"x_max":526,"o":"m 19 0 l 19 149 l 272 825 l 31 825 l 31 1017 l 524 1017 l 524 851 l 285 182 l 526 182 l 526 0 l 19 0 z "},"ź":{"ha":536,"x_min":19,"x_max":526,"o":"m 19 0 l 19 149 l 272 825 l 31 825 l 31 1017 l 524 1017 l 524 851 l 285 182 l 526 182 l 526 0 l 19 0 m 133 1053 l 133 1204 l 456 1353 l 456 1117 l 133 1053 z "},"ž":{"ha":536,"x_min":-6,"x_max":597,"o":"m 19 0 l 19 149 l 272 825 l 31 825 l 31 1017 l 524 1017 l 524 851 l 285 182 l 526 182 l 526 0 l 19 0 m 157 1079 l -6 1353 l 238 1353 l 296 1158 l 354 1353 l 597 1353 l 433 1079 l 157 1079 z "},"ż":{"ha":536,"x_min":19,"x_max":526,"o":"m 19 0 l 19 149 l 272 825 l 31 825 l 31 1017 l 524 1017 l 524 851 l 285 182 l 526 182 l 526 0 l 19 0 m 175 1079 l 175 1282 l 418 1282 l 418 1079 l 175 1079 z "},"ﬁ":{"ha":726,"x_min":28,"x_max":679,"o":"m 71 788 l 28 788 l 29 972 l 71 972 l 71 1042 q 235 1206 71 1206 q 360 1186 313 1206 l 360 1036 q 338 1040 346 1040 q 313 1026 318 1040 q 307 985 307 1013 l 307 972 l 360 972 l 360 785 l 313 785 l 313 0 l 71 0 l 71 788 m 436 1085 l 436 1254 l 679 1254 l 679 1085 l 436 1085 m 436 0 l 436 1017 l 679 1017 l 679 0 l 436 0 z "},"ﬂ":{"ha":733,"x_min":28,"x_max":685,"o":"m 71 788 l 28 788 l 29 972 l 71 972 l 71 1042 q 235 1206 71 1206 q 360 1186 313 1206 l 360 1036 q 338 1040 346 1040 q 313 1026 318 1040 q 307 985 307 1013 l 307 972 l 360 972 l 360 785 l 313 785 l 313 0 l 71 0 l 71 788 m 438 0 l 438 1200 l 685 1200 l 685 0 l 438 0 z "},"ª":{"ha":544,"x_min":29,"x_max":506,"o":"m 194 528 q 65 591 100 528 q 29 769 29 654 q 56 918 29 867 q 128 994 82 969 q 271 1051 175 1019 l 311 1065 l 311 1067 l 313 1114 q 303 1179 313 1154 q 269 1204 294 1204 q 231 1160 231 1204 l 231 1106 l 43 1106 q 42 1132 42 1113 q 98 1303 42 1251 q 279 1354 154 1354 l 285 1354 q 444 1301 382 1354 q 506 1153 506 1247 l 506 538 l 314 538 l 314 622 q 270 558 306 588 q 194 528 235 528 m 269 679 q 301 697 292 679 q 311 742 311 715 l 311 954 q 247 913 268 938 q 226 844 226 889 l 226 750 q 269 679 226 679 z "},"º":{"ha":551,"x_min":33,"x_max":517,"o":"m 275 528 q 33 779 33 528 l 33 1103 q 98 1285 33 1217 q 274 1354 163 1354 l 275 1354 q 452 1286 388 1354 q 517 1103 517 1218 l 517 779 q 456 592 517 656 q 275 528 396 528 m 231 740 q 244 694 231 711 q 278 678 258 678 q 307 694 294 678 q 319 740 319 710 l 319 1133 q 275 1204 319 1204 q 231 1133 231 1204 l 231 740 z "},"Δ":{"ha":749,"x_min":21,"x_max":728,"o":"m 21 0 l 203 1193 l 540 1193 l 728 0 l 21 0 m 243 153 l 453 153 l 360 1058 l 349 1058 l 243 153 z "},"Σ":{"ha":567,"x_min":42,"x_max":539,"o":"m 42 -81 l 42 101 l 271 557 l 42 986 l 42 1193 l 528 1193 l 528 979 l 263 979 l 469 588 l 469 536 l 263 119 l 539 119 l 539 -81 l 42 -81 z "},"π":{"ha":842,"x_min":25,"x_max":818,"o":"m 118 0 l 118 799 l 25 799 l 25 1017 l 818 1017 l 818 799 l 722 799 l 725 0 l 489 0 l 482 799 l 361 799 l 361 0 l 118 0 z "},"ტ":{"ha":889,"x_min":-29,"x_max":863,"o":"m -29 0 l 188 1193 l 847 1193 l 847 983 l 653 983 l 653 711 l 838 711 l 838 508 l 653 508 l 653 211 l 863 211 l 863 0 l 422 0 l 422 325 l 282 325 l 229 0 l -29 0 m 314 521 l 419 521 l 419 990 l 381 990 l 314 521 m 317 1275 l 317 1378 l 758 1378 l 758 1275 l 317 1275 z "},"უ":{"ha":1015,"x_min":26,"x_max":981,"o":"m 304 -12 q 99 68 171 -12 q 26 292 26 149 q 59 478 26 414 q 149 575 92 543 q 324 646 206 607 l 379 665 l 379 667 l 381 729 q 369 810 381 781 q 328 840 358 840 q 278 785 278 840 l 278 717 l 42 717 q 40 750 40 724 q 111 965 40 900 q 340 1029 182 1029 q 507 947 450 1029 q 688 1029 561 1029 q 981 740 981 1029 l 981 667 q 978 478 981 513 l 625 478 l 625 335 q 683 176 625 176 q 730 215 719 176 q 740 319 740 254 q 739 393 740 389 l 981 393 l 981 335 q 919 74 981 160 q 703 -12 858 -12 q 581 19 633 -12 q 507 100 528 50 q 431 18 483 49 q 304 -12 378 -12 m 739 632 l 739 738 q 685 847 739 847 q 635 817 644 847 q 625 714 625 786 l 625 632 l 739 632 m 328 178 q 367 201 354 178 q 379 257 379 224 l 379 525 q 299 472 325 503 q 274 386 274 442 l 274 268 q 328 178 274 178 m 297 1099 l 297 1201 l 739 1201 l 739 1099 l 297 1099 z "},"¹":{"ha":286,"x_min":19,"x_max":246,"o":"m 103 1029 q 19 1008 63 1008 q 21 1083 21 1038 q 19 1113 21 1110 q 67 1124 39 1113 q 117 1155 96 1136 q 138 1193 138 1174 l 246 1193 l 246 556 l 103 556 l 103 1029 z "},"²":{"ha":419,"x_min":28,"x_max":389,"o":"m 32 575 q 49 680 32 633 q 88 759 65 726 q 150 836 111 792 q 221 931 197 890 q 244 1025 244 971 q 208 1081 244 1081 q 174 1022 174 1081 l 174 942 l 32 942 l 31 982 q 67 1151 28 1097 q 210 1204 106 1204 q 342 1158 294 1204 q 389 1026 389 1111 q 374 928 389 972 q 336 852 358 885 q 276 774 314 819 q 199 667 221 711 l 383 667 l 383 543 l 32 543 l 32 575 z "},"³":{"ha":414,"x_min":29,"x_max":379,"o":"m 197 546 q 69 591 110 546 q 29 728 29 636 l 29 796 l 165 796 l 165 728 q 174 683 165 699 q 204 667 182 667 q 233 686 228 667 q 239 750 239 706 q 228 823 239 797 q 182 849 217 849 l 168 849 l 168 965 q 222 981 204 965 q 239 1031 239 996 q 207 1085 239 1085 q 178 1071 183 1085 q 172 1038 172 1057 q 171 1008 171 1018 l 32 1008 l 32 1032 q 73 1163 31 1122 q 206 1204 115 1204 q 376 1032 376 1204 q 363 951 376 981 q 315 908 349 921 q 367 856 356 890 q 379 750 379 822 q 336 597 379 649 q 197 546 293 546 z "},"⁴":{"ha":425,"x_min":21,"x_max":393,"o":"m 226 556 l 226 658 l 21 658 l 21 760 l 147 1194 l 367 1194 l 367 775 l 393 775 l 393 658 l 367 658 l 367 556 l 226 556 m 151 775 l 226 775 l 226 1076 l 151 775 z "},"⁄":{"ha":314,"x_min":-136,"x_max":450,"o":"m -136 -11 l 257 1204 l 450 1204 l -11 -11 l -136 -11 z "},"½":{"ha":1196,"x_min":101,"x_max":1094,"o":"m 185 1029 q 101 1008 144 1008 q 103 1083 103 1038 q 101 1113 103 1110 q 149 1124 121 1113 q 199 1155 178 1136 q 219 1193 219 1174 l 328 1193 l 328 556 l 185 556 l 185 1029 m 290 -4 l 683 1211 l 876 1211 l 415 -4 l 290 -4 m 738 32 q 754 137 738 90 q 794 216 771 183 q 856 293 817 249 q 926 388 903 347 q 950 482 950 428 q 914 538 950 538 q 879 479 879 538 l 879 399 l 738 399 l 736 439 q 772 608 733 554 q 915 661 811 661 q 1047 615 1000 661 q 1094 483 1094 568 q 1079 385 1094 429 q 1042 309 1064 342 q 982 231 1019 276 q 904 124 926 168 l 1089 124 l 1089 0 l 738 0 l 738 32 z "},"¼":{"ha":1131,"x_min":101,"x_max":1029,"o":"m 185 1029 q 101 1008 144 1008 q 103 1083 103 1038 q 101 1113 103 1110 q 149 1124 121 1113 q 199 1155 178 1136 q 219 1193 219 1174 l 328 1193 l 328 556 l 185 556 l 185 1029 m 283 -11 l 676 1204 l 869 1204 l 408 -11 l 283 -11 m 863 0 l 863 103 l 657 103 l 657 204 l 783 639 l 1003 639 l 1003 219 l 1029 219 l 1029 103 l 1003 103 l 1003 0 l 863 0 m 788 219 l 863 219 l 863 521 l 788 219 z "},"¾":{"ha":1186,"x_min":103,"x_max":1086,"o":"m 271 546 q 143 591 183 546 q 103 728 103 636 l 103 796 l 239 796 l 239 728 q 247 683 239 699 q 278 667 256 667 q 307 686 301 667 q 313 750 313 706 q 301 823 313 797 q 256 849 290 849 l 242 849 l 242 965 q 295 981 278 965 q 313 1031 313 996 q 281 1085 313 1085 q 251 1071 257 1085 q 245 1038 246 1057 q 244 1008 244 1018 l 106 1008 l 106 1032 q 147 1163 104 1122 q 279 1204 189 1204 q 450 1032 450 1204 q 436 951 450 981 q 389 908 422 921 q 441 856 429 890 q 453 750 453 822 q 410 597 453 649 q 271 546 367 546 m 350 -11 l 743 1204 l 936 1204 l 475 -11 l 350 -11 m 919 0 l 919 103 l 714 103 l 714 204 l 840 639 l 1060 639 l 1060 219 l 1086 219 l 1086 103 l 1060 103 l 1060 0 l 919 0 m 844 219 l 919 219 l 919 521 l 844 219 z "},"*":{"ha":628,"x_min":25,"x_max":604,"o":"m 235 503 l 265 707 l 103 579 l 25 715 l 210 794 l 25 868 l 103 1004 l 264 882 l 235 1081 l 393 1081 l 369 886 l 525 1004 l 604 868 l 417 794 l 604 715 l 525 579 l 368 703 l 393 503 l 235 503 z "},"\\":{"ha":563,"x_min":18,"x_max":543,"o":"m 297 0 l 18 1199 l 265 1199 l 543 0 l 297 0 z "},"·":{"ha":325,"x_min":56,"x_max":271,"o":"m 56 490 l 56 693 l 271 693 l 271 490 l 56 490 z "},"•":{"ha":489,"x_min":32,"x_max":457,"o":"m 244 274 q 88 336 144 274 q 32 503 32 399 q 88 669 32 607 q 244 732 144 732 q 401 669 344 732 q 457 503 457 607 q 401 336 457 399 q 244 274 344 274 z "},":":{"ha":336,"x_min":46,"x_max":289,"o":"m 46 663 l 46 864 l 289 864 l 289 663 l 46 663 m 46 161 l 46 363 l 289 363 l 289 161 l 46 161 z "},",":{"ha":328,"x_min":38,"x_max":290,"o":"m 79 -160 l 124 0 l 38 0 l 38 203 l 290 203 l 290 7 l 222 -160 l 79 -160 z "},"…":{"ha":983,"x_min":38,"x_max":946,"o":"m 38 0 l 38 203 l 281 203 l 281 0 l 38 0 m 371 0 l 371 203 l 613 203 l 613 0 l 371 0 m 703 0 l 703 203 l 946 203 l 946 0 l 703 0 z "},"!":{"ha":318,"x_min":38,"x_max":281,"o":"m 85 325 l 38 1193 l 281 1193 l 232 325 l 85 325 m 38 0 l 38 203 l 281 203 l 281 0 l 38 0 z "},"¡":{"ha":315,"x_min":38,"x_max":281,"o":"m 38 918 l 38 1119 l 281 1119 l 281 918 l 38 918 m 38 -74 l 85 796 l 232 796 l 281 -74 l 38 -74 z "},"#":{"ha":758,"x_min":26,"x_max":733,"o":"m 26 0 l 93 346 l 29 346 l 29 503 l 124 503 l 143 601 l 68 601 l 68 758 l 174 758 l 236 1081 l 429 1081 l 365 758 l 478 758 l 542 1081 l 733 1081 l 671 758 l 733 758 l 733 601 l 640 601 l 621 503 l 694 503 l 694 346 l 590 346 l 522 0 l 331 0 l 399 346 l 285 346 l 218 0 l 26 0 m 317 503 l 429 503 l 447 601 l 335 601 l 317 503 z "},".":{"ha":318,"x_min":38,"x_max":281,"o":"m 38 0 l 38 203 l 281 203 l 281 0 l 38 0 z "},"?":{"ha":683,"x_min":32,"x_max":664,"o":"m 86 590 q 277 609 211 590 q 375 689 343 628 q 407 878 407 750 q 394 958 407 929 q 344 988 382 988 q 293 954 306 988 q 281 863 281 921 l 281 763 l 32 763 l 32 935 q 117 1136 32 1068 q 344 1204 201 1204 q 591 1112 518 1204 q 664 832 664 1019 q 574 536 664 649 q 313 424 485 424 l 313 308 l 86 308 l 86 590 m 79 0 l 79 203 l 321 203 l 321 0 l 79 0 z "},"¿":{"ha":685,"x_min":25,"x_max":657,"o":"m 610 1117 l 610 914 l 368 914 l 368 1117 l 610 1117 m 603 526 q 412 508 478 526 q 314 428 346 489 q 282 239 282 367 q 294 158 282 188 q 344 129 307 129 q 396 163 383 129 q 408 254 408 196 l 408 354 l 657 354 l 657 182 q 572 -19 657 49 q 344 -87 488 -87 q 98 5 171 -87 q 25 285 25 97 q 115 581 25 468 q 376 693 204 693 l 376 808 l 603 808 l 603 526 z "},"\"":{"ha":596,"x_min":28,"x_max":565,"o":"m 96 763 l 28 1193 l 267 1193 l 215 763 l 96 763 m 394 763 l 326 1193 l 565 1193 l 514 763 l 394 763 z "},"'":{"ha":297,"x_min":28,"x_max":267,"o":"m 96 763 l 28 1193 l 267 1193 l 215 763 l 96 763 z "},";":{"ha":340,"x_min":44,"x_max":299,"o":"m 44 663 l 44 864 l 288 864 l 288 663 l 44 663 m 86 0 l 131 160 l 44 160 l 44 363 l 299 363 l 299 167 l 229 0 l 86 0 z "},"/":{"ha":563,"x_min":19,"x_max":544,"o":"m 19 0 l 297 1199 l 544 1199 l 265 0 l 19 0 z "},"_":{"ha":507,"x_min":33,"x_max":475,"o":"m 33 -246 l 33 -87 l 475 -87 l 475 -246 l 33 -246 z "},"{":{"ha":472,"x_min":21,"x_max":449,"o":"m 449 -128 q 246 -102 317 -125 q 145 -26 175 -79 q 115 122 115 26 l 115 349 q 108 426 115 399 q 82 468 101 453 q 21 488 63 483 l 21 621 q 82 640 63 625 q 108 683 101 656 q 115 760 115 710 l 115 986 q 145 1135 115 1083 q 246 1210 175 1188 q 449 1236 317 1233 l 449 1056 q 378 1041 401 1051 q 354 999 354 1031 l 354 744 q 315 613 354 654 q 207 554 275 571 q 315 496 275 538 q 354 365 354 454 l 354 111 q 378 67 354 78 q 449 54 403 57 l 449 -128 z "},"}":{"ha":472,"x_min":28,"x_max":454,"o":"m 28 54 q 97 67 74 57 q 121 111 121 78 l 121 365 q 161 497 121 454 q 269 554 201 539 q 160 612 200 569 q 121 744 121 654 l 121 999 q 97 1041 121 1031 q 28 1056 74 1051 l 28 1236 q 230 1210 160 1233 q 330 1135 300 1188 q 360 986 360 1083 l 360 760 q 378 658 360 688 q 454 621 396 628 l 454 488 q 378 451 396 481 q 360 349 360 421 l 360 122 q 330 -26 360 26 q 230 -102 300 -79 q 28 -128 160 -125 l 28 54 z "},"[":{"ha":442,"x_min":42,"x_max":418,"o":"m 42 0 l 42 1194 l 418 1194 l 418 1004 l 281 1004 l 281 190 l 418 190 l 418 0 l 42 0 z "},"]":{"ha":442,"x_min":24,"x_max":400,"o":"m 24 0 l 24 190 l 161 190 l 161 1004 l 24 1004 l 24 1194 l 400 1194 l 400 0 l 24 0 z "},"(":{"ha":404,"x_min":33,"x_max":379,"o":"m 379 -11 q 195 43 274 -7 q 75 181 117 93 q 33 381 33 268 l 33 803 q 119 1089 33 989 q 379 1194 206 1189 l 379 1013 q 308 972 329 1004 q 286 879 286 940 l 286 306 q 312 225 286 257 q 379 182 338 193 l 379 -11 z "},")":{"ha":404,"x_min":25,"x_max":371,"o":"m 25 182 q 92 225 67 193 q 118 306 118 257 l 118 879 q 97 972 118 940 q 25 1013 75 1004 l 25 1194 q 285 1089 199 1189 q 371 803 371 989 l 371 381 q 329 180 371 267 q 209 43 288 93 q 25 -11 131 -7 l 25 182 z "},"—":{"ha":782,"x_min":40,"x_max":740,"o":"m 40 346 l 40 503 l 740 503 l 740 346 l 40 346 z "},"–":{"ha":432,"x_min":40,"x_max":390,"o":"m 40 346 l 40 503 l 390 503 l 390 346 l 40 346 z "},"-":{"ha":432,"x_min":40,"x_max":390,"o":"m 40 346 l 40 503 l 390 503 l 390 346 l 40 346 z "},"­":{"ha":407,"x_min":40,"x_max":390,"o":"m 40 346 l 40 503 l 390 503 l 390 346 l 40 346 z "},"«":{"ha":803,"x_min":26,"x_max":764,"o":"m 372 176 l 26 369 l 26 650 l 372 835 l 372 590 l 160 508 l 372 419 l 372 176 m 764 176 l 418 369 l 418 650 l 764 835 l 764 590 l 551 508 l 764 419 l 764 176 z "},"»":{"ha":803,"x_min":39,"x_max":776,"o":"m 39 176 l 39 419 l 251 508 l 39 590 l 39 835 l 385 650 l 385 369 l 39 176 m 431 176 l 431 419 l 642 508 l 431 590 l 431 835 l 776 650 l 776 369 l 431 176 z "},"‹":{"ha":411,"x_min":26,"x_max":372,"o":"m 372 176 l 26 369 l 26 650 l 372 835 l 372 590 l 160 508 l 372 419 l 372 176 z "},"›":{"ha":411,"x_min":39,"x_max":385,"o":"m 39 176 l 39 419 l 251 508 l 39 590 l 39 835 l 385 650 l 385 369 l 39 176 z "},"„":{"ha":649,"x_min":38,"x_max":611,"o":"m 79 -160 l 124 0 l 38 0 l 38 203 l 290 203 l 290 6 l 222 -160 l 79 -160 m 400 -160 l 444 0 l 358 0 l 358 203 l 611 203 l 611 6 l 543 -160 l 400 -160 z "},"“":{"ha":644,"x_min":36,"x_max":608,"o":"m 36 832 l 36 1028 l 106 1193 l 249 1193 l 204 1033 l 290 1033 l 290 832 l 36 832 m 354 832 l 354 1028 l 424 1193 l 567 1193 l 522 1033 l 608 1033 l 608 832 l 354 832 z "},"”":{"ha":643,"x_min":33,"x_max":608,"o":"m 75 832 l 119 992 l 33 992 l 33 1193 l 288 1193 l 288 997 l 218 832 l 75 832 m 396 832 l 440 992 l 354 992 l 354 1193 l 608 1193 l 608 997 l 539 832 l 396 832 z "},"‘":{"ha":326,"x_min":36,"x_max":290,"o":"m 36 832 l 36 1028 l 106 1193 l 249 1193 l 204 1033 l 290 1033 l 290 832 l 36 832 z "},"’":{"ha":322,"x_min":33,"x_max":288,"o":"m 75 843 l 119 1004 l 33 1004 l 33 1206 l 288 1206 l 288 1010 l 218 843 l 75 843 z "},"‚":{"ha":328,"x_min":38,"x_max":290,"o":"m 79 -160 l 124 0 l 38 0 l 38 203 l 290 203 l 290 6 l 222 -160 l 79 -160 z "}," ":{"ha":325,"x_min":0,"x_max":0,"o":""}}}
